G04*
G04 #@! TF.GenerationSoftware,Altium Limited,Altium Designer,24.5.2 (23)*
G04*
G04 Layer_Color=8388736*
%FSLAX44Y44*%
%MOMM*%
G71*
G04*
G04 #@! TF.SameCoordinates,2FE71BF4-1BC5-4688-A169-50693282DBDC*
G04*
G04*
G04 #@! TF.FilePolarity,Negative*
G04*
G01*
G75*
%ADD21R,0.5153X0.4725*%
%ADD23R,0.9500X1.3500*%
%ADD25R,0.9000X0.7500*%
%ADD27R,2.2032X1.0032*%
%ADD28R,1.0032X2.2032*%
%ADD29R,0.8532X0.9032*%
%ADD30R,0.5032X0.6532*%
%ADD31R,1.1532X0.9732*%
%ADD32C,0.9906*%
%ADD33R,0.9532X0.8032*%
%ADD34R,0.5032X0.4732*%
%ADD35R,2.0200X2.0200*%
%ADD36C,2.0200*%
%ADD37C,3.5500*%
%ADD38C,2.3900*%
%ADD39C,0.3032*%
D21*
X444524Y1060450D02*
D03*
X452096D02*
D03*
X444524Y1027430D02*
D03*
X452096D02*
D03*
D23*
X324880Y1068070D02*
D03*
X309880D02*
D03*
D25*
X267970Y1299470D02*
D03*
Y1283970D02*
D03*
D27*
X290830Y1299210D02*
D03*
Y1286510D02*
D03*
Y1273810D02*
D03*
Y1261110D02*
D03*
Y1248410D02*
D03*
Y1235710D02*
D03*
Y1223010D02*
D03*
Y1210310D02*
D03*
Y1197610D02*
D03*
Y1184910D02*
D03*
Y1172210D02*
D03*
Y1159510D02*
D03*
X440830D02*
D03*
Y1172210D02*
D03*
Y1184910D02*
D03*
Y1197610D02*
D03*
Y1210310D02*
D03*
Y1223010D02*
D03*
Y1235710D02*
D03*
Y1248410D02*
D03*
Y1261110D02*
D03*
Y1273810D02*
D03*
Y1286510D02*
D03*
Y1299210D02*
D03*
D28*
X315030Y1135110D02*
D03*
X327730D02*
D03*
X340430D02*
D03*
X353130D02*
D03*
X365830D02*
D03*
X378530D02*
D03*
X391230D02*
D03*
X403930D02*
D03*
X416630D02*
D03*
D29*
X427990Y1070280D02*
D03*
Y1060780D02*
D03*
Y1009980D02*
D03*
Y1019480D02*
D03*
D30*
X432990Y1046880D02*
D03*
X427990D02*
D03*
X422990D02*
D03*
Y1033380D02*
D03*
X427990D02*
D03*
X432990D02*
D03*
D31*
X464820Y1059710D02*
D03*
Y1043410D02*
D03*
Y1027960D02*
D03*
Y1011660D02*
D03*
D32*
X388620Y1084580D02*
D03*
X375920D02*
D03*
X363220D02*
D03*
X388620Y1097280D02*
D03*
X363220D02*
D03*
X375920D02*
D03*
D33*
X268690Y1079500D02*
D03*
X295190Y1089000D02*
D03*
Y1070000D02*
D03*
D34*
X267970Y1257610D02*
D03*
Y1251910D02*
D03*
D35*
X364480Y300980D02*
D03*
D36*
Y1023180D02*
D03*
D37*
X444480Y938080D02*
D03*
X284480Y386080D02*
D03*
D38*
Y1020080D02*
D03*
D39*
X401320Y1101090D02*
D03*
Y1080770D02*
D03*
X350520Y1090930D02*
D03*
M02*
