G04*
G04 #@! TF.GenerationSoftware,Altium Limited,Altium Designer,24.5.2 (23)*
G04*
G04 Layer_Physical_Order=3*
G04 Layer_Color=16440176*
%FSLAX44Y44*%
%MOMM*%
G71*
G04*
G04 #@! TF.SameCoordinates,2FE71BF4-1BC5-4688-A169-50693282DBDC*
G04*
G04*
G04 #@! TF.FilePolarity,Positive*
G04*
G01*
G75*
%ADD35R,2.0200X2.0200*%
%ADD36C,2.0200*%
%ADD37C,3.5500*%
%ADD38C,2.3900*%
%ADD42C,0.1000*%
%ADD43C,0.4500*%
%ADD44C,1.2700*%
G36*
X473660Y256590D02*
X256590D01*
Y1313180D01*
X473660D01*
Y256590D01*
D02*
G37*
%LPC*%
G36*
X268923Y1277239D02*
X267017D01*
X265176Y1276746D01*
X263525Y1275793D01*
X262177Y1274445D01*
X261224Y1272794D01*
X260731Y1270953D01*
Y1269047D01*
X261224Y1267206D01*
X262177Y1265555D01*
X263525Y1264207D01*
X265176Y1263254D01*
X267017Y1262761D01*
X268923D01*
X270764Y1263254D01*
X272415Y1264207D01*
X273763Y1265555D01*
X274716Y1267206D01*
X275209Y1269047D01*
Y1270953D01*
X274716Y1272794D01*
X273763Y1274445D01*
X272415Y1275793D01*
X270764Y1276746D01*
X268923Y1277239D01*
D02*
G37*
G36*
X463233Y1256919D02*
X461327D01*
X459486Y1256426D01*
X457835Y1255473D01*
X456487Y1254125D01*
X455534Y1252474D01*
X455041Y1250633D01*
Y1248727D01*
X455534Y1246886D01*
X456487Y1245235D01*
X457835Y1243887D01*
X459486Y1242934D01*
X461327Y1242441D01*
X463233D01*
X465074Y1242934D01*
X466725Y1243887D01*
X468073Y1245235D01*
X469026Y1246886D01*
X469519Y1248727D01*
Y1250633D01*
X469026Y1252474D01*
X468073Y1254125D01*
X466725Y1255473D01*
X465074Y1256426D01*
X463233Y1256919D01*
D02*
G37*
G36*
Y1240409D02*
X461327D01*
X459486Y1239916D01*
X457835Y1238963D01*
X456487Y1237615D01*
X455534Y1235964D01*
X455041Y1234123D01*
Y1232217D01*
X455534Y1230376D01*
X456487Y1228725D01*
X457835Y1227377D01*
X459486Y1226424D01*
X461327Y1225931D01*
X463233D01*
X465074Y1226424D01*
X466725Y1227377D01*
X468073Y1228725D01*
X469026Y1230376D01*
X469519Y1232217D01*
Y1234123D01*
X469026Y1235964D01*
X468073Y1237615D01*
X466725Y1238963D01*
X465074Y1239916D01*
X463233Y1240409D01*
D02*
G37*
G36*
X376873Y1119759D02*
X374967D01*
X373126Y1119266D01*
X371475Y1118313D01*
X370127Y1116965D01*
X369174Y1115314D01*
X368681Y1113473D01*
Y1111567D01*
X369174Y1109726D01*
X370127Y1108075D01*
X371475Y1106727D01*
X373126Y1105774D01*
X374967Y1105281D01*
X376873D01*
X378714Y1105774D01*
X380365Y1106727D01*
X381713Y1108075D01*
X382666Y1109726D01*
X383159Y1111567D01*
Y1113473D01*
X382666Y1115314D01*
X381713Y1116965D01*
X380365Y1118313D01*
X378714Y1119266D01*
X376873Y1119759D01*
D02*
G37*
G36*
X359093D02*
X357187D01*
X355346Y1119266D01*
X353695Y1118313D01*
X352347Y1116965D01*
X351394Y1115314D01*
X350901Y1113473D01*
Y1111567D01*
X351394Y1109726D01*
X352347Y1108075D01*
X353695Y1106727D01*
X355346Y1105774D01*
X357187Y1105281D01*
X359093D01*
X360934Y1105774D01*
X362585Y1106727D01*
X363933Y1108075D01*
X364886Y1109726D01*
X365379Y1111567D01*
Y1113473D01*
X364886Y1115314D01*
X363933Y1116965D01*
X362585Y1118313D01*
X360934Y1119266D01*
X359093Y1119759D01*
D02*
G37*
G36*
X416243Y1113409D02*
X414337D01*
X412496Y1112916D01*
X410845Y1111963D01*
X409497Y1110615D01*
X408544Y1108964D01*
X408051Y1107123D01*
Y1105217D01*
X408544Y1103376D01*
X409497Y1101725D01*
X410845Y1100377D01*
X412496Y1099424D01*
X414337Y1098931D01*
X416243D01*
X418084Y1099424D01*
X419735Y1100377D01*
X421083Y1101725D01*
X422036Y1103376D01*
X422529Y1105217D01*
Y1107123D01*
X422036Y1108964D01*
X421083Y1110615D01*
X419735Y1111963D01*
X418084Y1112916D01*
X416243Y1113409D01*
D02*
G37*
G36*
X402482Y1106932D02*
X400158D01*
X398011Y1106043D01*
X396367Y1104399D01*
X395478Y1102252D01*
Y1099928D01*
X396367Y1097781D01*
X398011Y1096137D01*
X400158Y1095248D01*
X402482D01*
X404629Y1096137D01*
X406273Y1097781D01*
X407162Y1099928D01*
Y1102252D01*
X406273Y1104399D01*
X404629Y1106043D01*
X402482Y1106932D01*
D02*
G37*
G36*
X351682Y1096772D02*
X349358D01*
X347211Y1095883D01*
X345567Y1094239D01*
X344678Y1092092D01*
Y1089768D01*
X345567Y1087621D01*
X347211Y1085977D01*
X349358Y1085088D01*
X351682D01*
X353829Y1085977D01*
X355473Y1087621D01*
X356362Y1089768D01*
Y1092092D01*
X355473Y1094239D01*
X353829Y1095883D01*
X351682Y1096772D01*
D02*
G37*
G36*
X310833Y1090549D02*
X308927D01*
X307086Y1090056D01*
X305435Y1089103D01*
X304087Y1087755D01*
X303134Y1086104D01*
X302641Y1084263D01*
Y1082357D01*
X303134Y1080516D01*
X304087Y1078865D01*
X305435Y1077517D01*
X307086Y1076564D01*
X308927Y1076071D01*
X310833D01*
X312674Y1076564D01*
X314325Y1077517D01*
X315673Y1078865D01*
X316626Y1080516D01*
X317119Y1082357D01*
Y1084263D01*
X316626Y1086104D01*
X315673Y1087755D01*
X314325Y1089103D01*
X312674Y1090056D01*
X310833Y1090549D01*
D02*
G37*
G36*
X402482Y1086612D02*
X400158D01*
X398011Y1085723D01*
X396367Y1084079D01*
X395478Y1081932D01*
Y1079608D01*
X396367Y1077461D01*
X398011Y1075817D01*
X400158Y1074928D01*
X402482D01*
X404629Y1075817D01*
X406273Y1077461D01*
X407162Y1079608D01*
Y1081932D01*
X406273Y1084079D01*
X404629Y1085723D01*
X402482Y1086612D01*
D02*
G37*
G36*
X379413Y1076579D02*
X377507D01*
X375666Y1076086D01*
X374015Y1075133D01*
X372667Y1073785D01*
X371714Y1072134D01*
X371497Y1071325D01*
X370183D01*
X369966Y1072134D01*
X369013Y1073785D01*
X367665Y1075133D01*
X366014Y1076086D01*
X364173Y1076579D01*
X362267D01*
X360426Y1076086D01*
X358775Y1075133D01*
X357427Y1073785D01*
X356474Y1072134D01*
X355981Y1070293D01*
Y1068387D01*
X356474Y1066546D01*
X357427Y1064895D01*
X358775Y1063547D01*
X360426Y1062594D01*
X362267Y1062101D01*
X364173D01*
X366014Y1062594D01*
X367665Y1063547D01*
X369013Y1064895D01*
X369966Y1066546D01*
X370183Y1067355D01*
X371497D01*
X371714Y1066546D01*
X372667Y1064895D01*
X374015Y1063547D01*
X375666Y1062594D01*
X377507Y1062101D01*
X379413D01*
X381254Y1062594D01*
X382905Y1063547D01*
X384253Y1064895D01*
X385206Y1066546D01*
X385699Y1068387D01*
Y1070293D01*
X385206Y1072134D01*
X384253Y1073785D01*
X382905Y1075133D01*
X381254Y1076086D01*
X379413Y1076579D01*
D02*
G37*
G36*
X451803Y1049909D02*
X449897D01*
X448056Y1049416D01*
X446405Y1048463D01*
X445057Y1047115D01*
X444104Y1045464D01*
X443611Y1043623D01*
Y1041717D01*
X444104Y1039876D01*
X445057Y1038225D01*
X446405Y1036877D01*
X448056Y1035924D01*
X449897Y1035431D01*
X451803D01*
X453644Y1035924D01*
X455295Y1036877D01*
X456643Y1038225D01*
X457596Y1039876D01*
X458089Y1041717D01*
Y1043623D01*
X457596Y1045464D01*
X456643Y1047115D01*
X455295Y1048463D01*
X453644Y1049416D01*
X451803Y1049909D01*
D02*
G37*
G36*
X365927Y1034169D02*
X363033D01*
X360238Y1033420D01*
X357733Y1031973D01*
X355687Y1029927D01*
X354240Y1027422D01*
X353491Y1024627D01*
Y1021733D01*
X354240Y1018938D01*
X355687Y1016433D01*
X357733Y1014387D01*
X360238Y1012940D01*
X363033Y1012191D01*
X365927D01*
X368722Y1012940D01*
X371227Y1014387D01*
X373273Y1016433D01*
X374720Y1018938D01*
X375469Y1021733D01*
Y1024627D01*
X374720Y1027422D01*
X373273Y1029927D01*
X371227Y1031973D01*
X368722Y1033420D01*
X365927Y1034169D01*
D02*
G37*
G36*
X286170Y1032919D02*
X282790D01*
X279524Y1032044D01*
X276597Y1030354D01*
X274206Y1027963D01*
X272516Y1025036D01*
X271641Y1021770D01*
Y1018390D01*
X272516Y1015124D01*
X274206Y1012197D01*
X276597Y1009806D01*
X279524Y1008116D01*
X282790Y1007241D01*
X286170D01*
X289436Y1008116D01*
X292363Y1009806D01*
X294754Y1012197D01*
X296444Y1015124D01*
X297319Y1018390D01*
Y1021770D01*
X296444Y1025036D01*
X294754Y1027963D01*
X292363Y1030354D01*
X289436Y1032044D01*
X286170Y1032919D01*
D02*
G37*
G36*
X465773Y1005459D02*
X463867D01*
X462026Y1004966D01*
X460375Y1004013D01*
X459027Y1002665D01*
X458074Y1001014D01*
X457581Y999173D01*
Y997267D01*
X458074Y995426D01*
X459027Y993775D01*
X460375Y992427D01*
X462026Y991474D01*
X463867Y990981D01*
X465773D01*
X467614Y991474D01*
X469265Y992427D01*
X470613Y993775D01*
X471566Y995426D01*
X472059Y997267D01*
Y999173D01*
X471566Y1001014D01*
X470613Y1002665D01*
X469265Y1004013D01*
X467614Y1004966D01*
X465773Y1005459D01*
D02*
G37*
G36*
X446316Y956719D02*
X442644D01*
X439043Y956003D01*
X435651Y954598D01*
X432598Y952558D01*
X430002Y949962D01*
X427962Y946909D01*
X426557Y943517D01*
X425841Y939916D01*
Y936244D01*
X426557Y932643D01*
X427962Y929251D01*
X430002Y926198D01*
X432598Y923602D01*
X435651Y921562D01*
X439043Y920157D01*
X442644Y919441D01*
X446316D01*
X449917Y920157D01*
X453309Y921562D01*
X456362Y923602D01*
X458958Y926198D01*
X460998Y929251D01*
X462403Y932643D01*
X463119Y936244D01*
Y939916D01*
X462403Y943517D01*
X460998Y946909D01*
X458958Y949962D01*
X456362Y952558D01*
X453309Y954598D01*
X449917Y956003D01*
X446316Y956719D01*
D02*
G37*
G36*
X286316Y404719D02*
X282644D01*
X279043Y404003D01*
X275651Y402598D01*
X272598Y400558D01*
X270002Y397962D01*
X267962Y394909D01*
X266557Y391517D01*
X265841Y387916D01*
Y384244D01*
X266557Y380643D01*
X267962Y377251D01*
X270002Y374198D01*
X272598Y371602D01*
X275651Y369562D01*
X279043Y368157D01*
X282644Y367441D01*
X286316D01*
X289917Y368157D01*
X293309Y369562D01*
X296362Y371602D01*
X298958Y374198D01*
X300998Y377251D01*
X302403Y380643D01*
X303119Y384244D01*
Y387916D01*
X302403Y391517D01*
X300998Y394909D01*
X298958Y397962D01*
X296362Y400558D01*
X293309Y402598D01*
X289917Y404003D01*
X286316Y404719D01*
D02*
G37*
%LPD*%
D35*
X364480Y300980D02*
D03*
D36*
Y1023180D02*
D03*
D37*
X444480Y938080D02*
D03*
X284480Y386080D02*
D03*
D38*
Y1020080D02*
D03*
D42*
X401320Y1101090D02*
D03*
Y1080770D02*
D03*
X350520Y1090930D02*
D03*
D43*
X457200Y1295400D02*
D03*
X469900Y1270000D02*
D03*
Y1219200D02*
D03*
X457200Y1193800D02*
D03*
X469900Y1168400D02*
D03*
X457200Y1143000D02*
D03*
X469900Y1117600D02*
D03*
X457200Y1092200D02*
D03*
X469900Y1066800D02*
D03*
X457200Y990600D02*
D03*
X469900Y965200D02*
D03*
Y914400D02*
D03*
X457200Y889000D02*
D03*
X469900Y863600D02*
D03*
X457200Y838200D02*
D03*
X469900Y812800D02*
D03*
X457200Y787400D02*
D03*
X469900Y762000D02*
D03*
X457200Y736600D02*
D03*
X469900Y711200D02*
D03*
X457200Y685800D02*
D03*
X469900Y660400D02*
D03*
X457200Y635000D02*
D03*
X469900Y609600D02*
D03*
X457200Y584200D02*
D03*
X469900Y558800D02*
D03*
X457200Y533400D02*
D03*
X469900Y508000D02*
D03*
X457200Y482600D02*
D03*
X469900Y457200D02*
D03*
X457200Y431800D02*
D03*
X469900Y406400D02*
D03*
X457200Y381000D02*
D03*
X469900Y355600D02*
D03*
X457200Y330200D02*
D03*
X469900Y304800D02*
D03*
X457200Y279400D02*
D03*
X444500Y1117600D02*
D03*
X431800Y1092200D02*
D03*
X444500Y1066800D02*
D03*
Y1016000D02*
D03*
X431800Y990600D02*
D03*
X444500Y965200D02*
D03*
Y914400D02*
D03*
X431800Y889000D02*
D03*
X444500Y863600D02*
D03*
X431800Y838200D02*
D03*
X444500Y812800D02*
D03*
X431800Y787400D02*
D03*
X444500Y762000D02*
D03*
X431800Y736600D02*
D03*
X444500Y711200D02*
D03*
X431800Y685800D02*
D03*
X444500Y660400D02*
D03*
X431800Y635000D02*
D03*
X444500Y609600D02*
D03*
X431800Y584200D02*
D03*
X444500Y558800D02*
D03*
X431800Y533400D02*
D03*
X444500Y508000D02*
D03*
X431800Y482600D02*
D03*
X444500Y457200D02*
D03*
X431800Y431800D02*
D03*
X444500Y406400D02*
D03*
X431800Y381000D02*
D03*
X444500Y355600D02*
D03*
X431800Y330200D02*
D03*
X444500Y304800D02*
D03*
X431800Y279400D02*
D03*
X406400Y1295400D02*
D03*
X419100Y1270000D02*
D03*
X406400Y1244600D02*
D03*
X419100Y1219200D02*
D03*
X406400Y1193800D02*
D03*
X419100Y1168400D02*
D03*
X406400Y1092200D02*
D03*
X419100Y1066800D02*
D03*
X406400Y1041400D02*
D03*
Y990600D02*
D03*
X419100Y965200D02*
D03*
X406400Y939800D02*
D03*
X419100Y914400D02*
D03*
X406400Y889000D02*
D03*
X419100Y863600D02*
D03*
X406400Y838200D02*
D03*
X419100Y812800D02*
D03*
X406400Y787400D02*
D03*
X419100Y762000D02*
D03*
X406400Y736600D02*
D03*
X419100Y711200D02*
D03*
X406400Y685800D02*
D03*
X419100Y660400D02*
D03*
X406400Y635000D02*
D03*
X419100Y609600D02*
D03*
X406400Y584200D02*
D03*
X419100Y558800D02*
D03*
X406400Y533400D02*
D03*
X419100Y508000D02*
D03*
X406400Y482600D02*
D03*
X419100Y457200D02*
D03*
X406400Y431800D02*
D03*
X419100Y406400D02*
D03*
X406400Y381000D02*
D03*
X419100Y355600D02*
D03*
X406400Y330200D02*
D03*
X419100Y304800D02*
D03*
X406400Y279400D02*
D03*
X381000Y1295400D02*
D03*
X393700Y1270000D02*
D03*
X381000Y1244600D02*
D03*
X393700Y1219200D02*
D03*
X381000Y1193800D02*
D03*
X393700Y1168400D02*
D03*
Y1117600D02*
D03*
X381000Y1041400D02*
D03*
Y990600D02*
D03*
X393700Y965200D02*
D03*
X381000Y939800D02*
D03*
X393700Y914400D02*
D03*
X381000Y889000D02*
D03*
X393700Y863600D02*
D03*
X381000Y838200D02*
D03*
X393700Y812800D02*
D03*
X381000Y787400D02*
D03*
X393700Y762000D02*
D03*
X381000Y736600D02*
D03*
X393700Y711200D02*
D03*
X381000Y685800D02*
D03*
X393700Y660400D02*
D03*
X381000Y635000D02*
D03*
X393700Y609600D02*
D03*
X381000Y584200D02*
D03*
X393700Y558800D02*
D03*
X381000Y533400D02*
D03*
X393700Y508000D02*
D03*
X381000Y482600D02*
D03*
X393700Y457200D02*
D03*
X381000Y431800D02*
D03*
X393700Y406400D02*
D03*
X381000Y381000D02*
D03*
X393700Y355600D02*
D03*
X381000Y330200D02*
D03*
X393700Y304800D02*
D03*
X381000Y279400D02*
D03*
X355600Y1295400D02*
D03*
X368300Y1270000D02*
D03*
X355600Y1244600D02*
D03*
X368300Y1219200D02*
D03*
X355600Y1193800D02*
D03*
X368300Y1168400D02*
D03*
X355600Y1041400D02*
D03*
Y990600D02*
D03*
X368300Y965200D02*
D03*
X355600Y939800D02*
D03*
X368300Y914400D02*
D03*
X355600Y889000D02*
D03*
X368300Y863600D02*
D03*
X355600Y838200D02*
D03*
X368300Y812800D02*
D03*
X355600Y787400D02*
D03*
X368300Y762000D02*
D03*
X355600Y736600D02*
D03*
X368300Y711200D02*
D03*
X355600Y685800D02*
D03*
X368300Y660400D02*
D03*
X355600Y635000D02*
D03*
X368300Y609600D02*
D03*
X355600Y584200D02*
D03*
X368300Y558800D02*
D03*
X355600Y533400D02*
D03*
X368300Y508000D02*
D03*
X355600Y482600D02*
D03*
X368300Y457200D02*
D03*
X355600Y431800D02*
D03*
X368300Y406400D02*
D03*
X355600Y381000D02*
D03*
X368300Y355600D02*
D03*
X355600Y330200D02*
D03*
Y279400D02*
D03*
X330200Y1295400D02*
D03*
X342900Y1270000D02*
D03*
X330200Y1244600D02*
D03*
X342900Y1219200D02*
D03*
X330200Y1193800D02*
D03*
X342900Y1168400D02*
D03*
Y1117600D02*
D03*
X330200Y1041400D02*
D03*
X342900Y1016000D02*
D03*
X330200Y990600D02*
D03*
X342900Y965200D02*
D03*
X330200Y939800D02*
D03*
X342900Y914400D02*
D03*
X330200Y889000D02*
D03*
X342900Y863600D02*
D03*
X330200Y838200D02*
D03*
X342900Y812800D02*
D03*
X330200Y787400D02*
D03*
X342900Y762000D02*
D03*
X330200Y736600D02*
D03*
X342900Y711200D02*
D03*
X330200Y685800D02*
D03*
X342900Y660400D02*
D03*
X330200Y635000D02*
D03*
X342900Y609600D02*
D03*
X330200Y584200D02*
D03*
X342900Y558800D02*
D03*
X330200Y533400D02*
D03*
X342900Y508000D02*
D03*
X330200Y482600D02*
D03*
X342900Y457200D02*
D03*
X330200Y431800D02*
D03*
X342900Y406400D02*
D03*
X330200Y381000D02*
D03*
X342900Y355600D02*
D03*
X330200Y330200D02*
D03*
X342900Y304800D02*
D03*
X330200Y279400D02*
D03*
X304800Y1295400D02*
D03*
X317500Y1270000D02*
D03*
X304800Y1244600D02*
D03*
X317500Y1219200D02*
D03*
X304800Y1193800D02*
D03*
X317500Y1168400D02*
D03*
X304800Y1143000D02*
D03*
Y1092200D02*
D03*
Y1041400D02*
D03*
X317500Y1016000D02*
D03*
X304800Y990600D02*
D03*
X317500Y965200D02*
D03*
X304800Y939800D02*
D03*
X317500Y914400D02*
D03*
X304800Y889000D02*
D03*
X317500Y863600D02*
D03*
X304800Y838200D02*
D03*
X317500Y812800D02*
D03*
X304800Y787400D02*
D03*
X317500Y762000D02*
D03*
X304800Y736600D02*
D03*
X317500Y711200D02*
D03*
X304800Y685800D02*
D03*
X317500Y660400D02*
D03*
X304800Y635000D02*
D03*
X317500Y609600D02*
D03*
X304800Y584200D02*
D03*
X317500Y558800D02*
D03*
X304800Y533400D02*
D03*
X317500Y508000D02*
D03*
X304800Y482600D02*
D03*
X317500Y457200D02*
D03*
X304800Y431800D02*
D03*
X317500Y406400D02*
D03*
X304800Y381000D02*
D03*
X317500Y355600D02*
D03*
X304800Y330200D02*
D03*
X317500Y304800D02*
D03*
X304800Y279400D02*
D03*
X279400Y1143000D02*
D03*
Y1092200D02*
D03*
Y1041400D02*
D03*
Y990600D02*
D03*
X292100Y965200D02*
D03*
X279400Y939800D02*
D03*
X292100Y914400D02*
D03*
X279400Y889000D02*
D03*
X292100Y863600D02*
D03*
X279400Y838200D02*
D03*
X292100Y812800D02*
D03*
X279400Y787400D02*
D03*
X292100Y762000D02*
D03*
X279400Y736600D02*
D03*
X292100Y711200D02*
D03*
X279400Y685800D02*
D03*
X292100Y660400D02*
D03*
X279400Y635000D02*
D03*
X292100Y609600D02*
D03*
X279400Y584200D02*
D03*
X292100Y558800D02*
D03*
X279400Y533400D02*
D03*
X292100Y508000D02*
D03*
X279400Y482600D02*
D03*
X292100Y457200D02*
D03*
X279400Y431800D02*
D03*
X292100Y406400D02*
D03*
Y355600D02*
D03*
X279400Y330200D02*
D03*
X292100Y304800D02*
D03*
X279400Y279400D02*
D03*
X325120Y1050290D02*
D03*
D44*
X276860Y1306830D02*
D03*
X415290Y1106170D02*
D03*
X462280Y1233170D02*
D03*
X375920Y1112520D02*
D03*
X358140D02*
D03*
X462280Y1249680D02*
D03*
X378460Y1069340D02*
D03*
X363220D02*
D03*
X267970Y1270000D02*
D03*
X464820Y998220D02*
D03*
X450850Y1042670D02*
D03*
X264160Y1090930D02*
D03*
X309880Y1083310D02*
D03*
M02*
