G04*
G04 #@! TF.GenerationSoftware,Altium Limited,Altium Designer,24.5.2 (23)*
G04*
G04 Layer_Physical_Order=1*
G04 Layer_Color=255*
%FSLAX44Y44*%
%MOMM*%
G71*
G04*
G04 #@! TF.SameCoordinates,2FE71BF4-1BC5-4688-A169-50693282DBDC*
G04*
G04*
G04 #@! TF.FilePolarity,Positive*
G04*
G01*
G75*
%ADD12C,0.2540*%
%ADD17R,2.0000X0.8000*%
%ADD18R,0.8000X2.0000*%
%ADD19R,0.6500X0.7000*%
%ADD20R,0.3000X0.4500*%
%ADD21R,0.5153X0.4725*%
%ADD22R,0.9500X0.7700*%
%ADD23R,0.9500X1.3500*%
%ADD24R,0.7500X0.6000*%
%ADD25R,0.9000X0.7500*%
%ADD26R,0.3000X0.2700*%
%ADD35R,2.0200X2.0200*%
%ADD36C,2.0200*%
%ADD37C,3.5500*%
%ADD38C,2.3900*%
%ADD40C,0.7874*%
%ADD41C,0.6096*%
%ADD42C,0.1000*%
%ADD43C,0.4500*%
%ADD44C,1.2700*%
G36*
X473660Y256590D02*
X256590D01*
Y1313180D01*
X473660D01*
Y256590D01*
D02*
G37*
%LPC*%
G36*
X451719Y1304099D02*
X429941D01*
Y1294321D01*
X451719D01*
Y1304099D01*
D02*
G37*
G36*
Y1291399D02*
X429941D01*
Y1281621D01*
X451719D01*
Y1291399D01*
D02*
G37*
G36*
Y1278699D02*
X429941D01*
Y1268921D01*
X451719D01*
Y1278699D01*
D02*
G37*
G36*
Y1265999D02*
X429941D01*
Y1256221D01*
X451719D01*
Y1265999D01*
D02*
G37*
G36*
X463233Y1256919D02*
X461327D01*
X459486Y1256426D01*
X457835Y1255473D01*
X456487Y1254125D01*
X455534Y1252474D01*
X455376Y1251881D01*
X451719D01*
Y1253299D01*
X429941D01*
Y1243521D01*
X451719D01*
Y1247479D01*
X455376D01*
X455534Y1246886D01*
X456487Y1245235D01*
X457835Y1243887D01*
X459486Y1242934D01*
X461327Y1242441D01*
X463233D01*
X465074Y1242934D01*
X466725Y1243887D01*
X468073Y1245235D01*
X469026Y1246886D01*
X469519Y1248727D01*
Y1250633D01*
X469026Y1252474D01*
X468073Y1254125D01*
X466725Y1255473D01*
X465074Y1256426D01*
X463233Y1256919D01*
D02*
G37*
G36*
X302260Y1292552D02*
X260350D01*
X259670Y1292270D01*
X259388Y1291590D01*
Y1254760D01*
X259670Y1254080D01*
X260350Y1253798D01*
X278878D01*
X279941Y1253299D01*
X279941Y1252528D01*
Y1243521D01*
X301719D01*
Y1253299D01*
X281500D01*
X280824Y1254569D01*
X280903Y1254760D01*
Y1256221D01*
X301719D01*
Y1265999D01*
X280903D01*
Y1268921D01*
X301719D01*
Y1278699D01*
X302706Y1279382D01*
X302940Y1279480D01*
X303222Y1280160D01*
Y1291590D01*
X302940Y1292270D01*
X302260Y1292552D01*
D02*
G37*
G36*
X301719Y1240599D02*
X279941D01*
Y1230821D01*
X301719D01*
Y1240599D01*
D02*
G37*
G36*
X451719D02*
X429941D01*
Y1230821D01*
X451719D01*
Y1230969D01*
X455376D01*
X455534Y1230376D01*
X456487Y1228725D01*
X457835Y1227377D01*
X459486Y1226424D01*
X461327Y1225931D01*
X463233D01*
X465074Y1226424D01*
X466725Y1227377D01*
X468073Y1228725D01*
X469026Y1230376D01*
X469519Y1232217D01*
Y1234123D01*
X469026Y1235964D01*
X468073Y1237615D01*
X466725Y1238963D01*
X465074Y1239916D01*
X463233Y1240409D01*
X461327D01*
X459486Y1239916D01*
X457835Y1238963D01*
X456487Y1237615D01*
X455534Y1235964D01*
X455376Y1235371D01*
X451719D01*
Y1240599D01*
D02*
G37*
G36*
Y1227899D02*
X429941D01*
Y1218121D01*
X451719D01*
Y1227899D01*
D02*
G37*
G36*
X301719D02*
X279941D01*
Y1218121D01*
X301719D01*
Y1227899D01*
D02*
G37*
G36*
X451719Y1215199D02*
X429941D01*
Y1205421D01*
X451719D01*
Y1215199D01*
D02*
G37*
G36*
X301719D02*
X279941D01*
Y1205421D01*
X301719D01*
Y1215199D01*
D02*
G37*
G36*
X451719Y1202499D02*
X429941D01*
Y1192721D01*
X451719D01*
Y1202499D01*
D02*
G37*
G36*
X301719D02*
X279941D01*
Y1192721D01*
X301719D01*
Y1202499D01*
D02*
G37*
G36*
X451719Y1189799D02*
X429941D01*
Y1180021D01*
X451719D01*
Y1189799D01*
D02*
G37*
G36*
X301719D02*
X279941D01*
Y1180021D01*
X301719D01*
Y1189799D01*
D02*
G37*
G36*
X451719Y1177099D02*
X429941D01*
Y1167321D01*
X451719D01*
Y1177099D01*
D02*
G37*
G36*
X301719D02*
X279941D01*
Y1167321D01*
X301719D01*
Y1177099D01*
D02*
G37*
G36*
X451719Y1164399D02*
X429941D01*
Y1154621D01*
X451719D01*
Y1164399D01*
D02*
G37*
G36*
X408819Y1145999D02*
X399041D01*
Y1124221D01*
X408819D01*
Y1145999D01*
D02*
G37*
G36*
X383419D02*
X373641D01*
Y1124221D01*
X383419D01*
Y1145999D01*
D02*
G37*
G36*
X370719D02*
X360941D01*
Y1124221D01*
X370719D01*
Y1145999D01*
D02*
G37*
G36*
X358019D02*
X348241D01*
Y1124221D01*
X358019D01*
Y1145999D01*
D02*
G37*
G36*
X345319D02*
X335541D01*
Y1124221D01*
X345319D01*
Y1145999D01*
D02*
G37*
G36*
X421519D02*
X411741D01*
Y1124221D01*
X413089D01*
Y1113074D01*
X412496Y1112916D01*
X410845Y1111963D01*
X409497Y1110615D01*
X408544Y1108964D01*
X408051Y1107123D01*
Y1105217D01*
X408544Y1103376D01*
X409497Y1101725D01*
X410845Y1100377D01*
X412496Y1099424D01*
X414337Y1098931D01*
X416243D01*
X418084Y1099424D01*
X419735Y1100377D01*
X421083Y1101725D01*
X422036Y1103376D01*
X422529Y1105217D01*
Y1107123D01*
X422036Y1108964D01*
X421083Y1110615D01*
X419735Y1111963D01*
X418084Y1112916D01*
X417491Y1113074D01*
Y1124221D01*
X421519D01*
Y1145999D01*
D02*
G37*
G36*
X396119D02*
X386341D01*
Y1124221D01*
X386419D01*
Y1101592D01*
X385886Y1101371D01*
X384529Y1100014D01*
X383795Y1098242D01*
X380745D01*
X380011Y1100014D01*
X378654Y1101371D01*
X378121Y1101592D01*
Y1105615D01*
X378714Y1105774D01*
X380365Y1106727D01*
X381713Y1108075D01*
X382666Y1109726D01*
X383159Y1111567D01*
Y1113473D01*
X382666Y1115314D01*
X381713Y1116965D01*
X380365Y1118313D01*
X378714Y1119266D01*
X376873Y1119759D01*
X374967D01*
X373126Y1119266D01*
X371475Y1118313D01*
X370127Y1116965D01*
X369174Y1115314D01*
X368681Y1113473D01*
Y1111567D01*
X369174Y1109726D01*
X370127Y1108075D01*
X371475Y1106727D01*
X373126Y1105774D01*
X373719Y1105615D01*
Y1101592D01*
X373186Y1101371D01*
X371829Y1100014D01*
X371095Y1098242D01*
X368045D01*
X367311Y1100014D01*
X365954Y1101371D01*
X365085Y1101731D01*
Y1105027D01*
X364917Y1105869D01*
X364440Y1106583D01*
X363441Y1107583D01*
X363933Y1108075D01*
X364886Y1109726D01*
X365379Y1111567D01*
Y1113473D01*
X364886Y1115314D01*
X363933Y1116965D01*
X362585Y1118313D01*
X360934Y1119266D01*
X359093Y1119759D01*
X357187D01*
X355346Y1119266D01*
X353695Y1118313D01*
X352347Y1116965D01*
X351394Y1115314D01*
X350901Y1113473D01*
Y1111567D01*
X351394Y1109726D01*
X352347Y1108075D01*
X353695Y1106727D01*
X355346Y1105774D01*
X357187Y1105281D01*
X359093D01*
X359427Y1105370D01*
X360682Y1104115D01*
Y1101452D01*
X360486Y1101371D01*
X359129Y1100014D01*
X358394Y1098240D01*
Y1096320D01*
X359129Y1094546D01*
X360486Y1093189D01*
X362258Y1092455D01*
Y1089405D01*
X360486Y1088671D01*
X359129Y1087314D01*
X358394Y1085540D01*
Y1083620D01*
X359129Y1081846D01*
X360486Y1080489D01*
X361019Y1080268D01*
Y1076245D01*
X360426Y1076086D01*
X358775Y1075133D01*
X357427Y1073785D01*
X356474Y1072134D01*
X355981Y1070293D01*
Y1069455D01*
X354711Y1068929D01*
X329931Y1093708D01*
Y1124221D01*
X332619D01*
Y1145999D01*
X322841D01*
Y1124221D01*
X325529D01*
Y1092796D01*
X325696Y1091954D01*
X326174Y1091240D01*
X358190Y1059223D01*
X358904Y1058746D01*
X359747Y1058579D01*
X423851D01*
Y1056391D01*
X425789D01*
Y1051119D01*
X425379Y1050019D01*
X424331Y1050019D01*
X420601D01*
Y1043741D01*
X420789D01*
Y1040820D01*
X420956Y1039978D01*
X421433Y1039264D01*
X422921Y1037775D01*
X423635Y1037298D01*
X424478Y1037131D01*
X424584D01*
X425601Y1036519D01*
X425601Y1035861D01*
Y1030241D01*
X425789D01*
Y1023869D01*
X423851D01*
Y1021681D01*
X393672D01*
X317231Y1098122D01*
Y1124221D01*
X319919D01*
Y1145999D01*
X310141D01*
Y1124221D01*
X312829D01*
Y1097210D01*
X312996Y1096368D01*
X313473Y1095654D01*
X391203Y1017923D01*
X391918Y1017446D01*
X392760Y1017279D01*
X423851D01*
Y1015091D01*
X432129D01*
Y1023869D01*
X430191D01*
Y1026935D01*
X431342Y1027330D01*
X431461Y1027334D01*
X432921Y1025873D01*
X433635Y1025396D01*
X434478Y1025229D01*
X441059D01*
Y1024179D01*
X448310Y1024179D01*
X449260Y1024179D01*
X455561D01*
Y1025229D01*
X459181D01*
Y1023221D01*
X470459D01*
Y1032699D01*
X459181D01*
Y1029631D01*
X455561D01*
Y1030681D01*
X448310Y1030681D01*
X447360Y1030681D01*
X441059D01*
Y1029631D01*
X436396D01*
X435379Y1030241D01*
Y1036519D01*
X434207D01*
X433816Y1037731D01*
X433815Y1037789D01*
X446081Y1050054D01*
X446558Y1050769D01*
X446726Y1051611D01*
Y1056301D01*
X447624Y1057199D01*
X448310Y1057199D01*
X449260Y1057199D01*
X455561D01*
Y1058249D01*
X459181D01*
Y1054971D01*
X470459D01*
Y1064449D01*
X459181D01*
Y1062651D01*
X455561D01*
Y1063701D01*
X448310Y1063701D01*
X447360Y1063701D01*
X441059D01*
Y1057199D01*
X442323D01*
Y1052523D01*
X431334Y1041533D01*
X425764D01*
X425287Y1042601D01*
X425872Y1043741D01*
X426649Y1043741D01*
X430379D01*
Y1050019D01*
X430191D01*
Y1056391D01*
X432129D01*
Y1065169D01*
X423851D01*
Y1062981D01*
X384135D01*
X383609Y1064251D01*
X384253Y1064895D01*
X385206Y1066546D01*
X385699Y1068387D01*
Y1070293D01*
X385206Y1072134D01*
X384253Y1073785D01*
X382905Y1075133D01*
X381254Y1076086D01*
X379413Y1076579D01*
X379142D01*
Y1080977D01*
X380011Y1081846D01*
X380745Y1083618D01*
X384683D01*
X384983Y1083742D01*
X385294Y1083836D01*
X385317Y1083880D01*
X385363Y1083900D01*
X385488Y1084199D01*
X385641Y1084486D01*
X385702Y1085112D01*
X386162Y1086222D01*
X386978Y1087038D01*
X388088Y1087498D01*
X388714Y1087559D01*
X389001Y1087712D01*
X389300Y1087837D01*
X389320Y1087883D01*
X389364Y1087907D01*
X389458Y1088217D01*
X389582Y1088517D01*
Y1092455D01*
X391354Y1093189D01*
X392711Y1094546D01*
X393446Y1096320D01*
Y1098240D01*
X392711Y1100014D01*
X391354Y1101371D01*
X390821Y1101592D01*
Y1124221D01*
X396119D01*
Y1145999D01*
D02*
G37*
G36*
X402482Y1106932D02*
X400158D01*
X398011Y1106043D01*
X396367Y1104399D01*
X395478Y1102252D01*
Y1099928D01*
X396367Y1097781D01*
X398011Y1096137D01*
X400158Y1095248D01*
X402482D01*
X404629Y1096137D01*
X406273Y1097781D01*
X407162Y1099928D01*
Y1102252D01*
X406273Y1104399D01*
X404629Y1106043D01*
X402482Y1106932D01*
D02*
G37*
G36*
X301719Y1164399D02*
X279941D01*
Y1154621D01*
X288629D01*
Y1112350D01*
X288796Y1111508D01*
X289273Y1110794D01*
X292989Y1107078D01*
Y1092889D01*
X290551D01*
Y1085111D01*
X299829D01*
Y1092889D01*
X297391D01*
Y1107990D01*
X297224Y1108832D01*
X296747Y1109547D01*
X293031Y1113262D01*
Y1154621D01*
X301719D01*
Y1164399D01*
D02*
G37*
G36*
X351682Y1096772D02*
X349358D01*
X347211Y1095883D01*
X345567Y1094239D01*
X344678Y1092092D01*
Y1089768D01*
X345567Y1087621D01*
X347211Y1085977D01*
X349358Y1085088D01*
X351682D01*
X353829Y1085977D01*
X355473Y1087621D01*
X356362Y1089768D01*
Y1092092D01*
X355473Y1094239D01*
X353829Y1095883D01*
X351682Y1096772D01*
D02*
G37*
G36*
X264160Y1094944D02*
X262624Y1094639D01*
X261322Y1093768D01*
X260451Y1092466D01*
X260146Y1090930D01*
X260451Y1089394D01*
X261322Y1088092D01*
X261409Y1088004D01*
Y1082766D01*
X261715Y1081230D01*
X262585Y1079928D01*
X264224Y1078289D01*
X264279Y1078012D01*
X265150Y1076710D01*
X265198Y1076662D01*
X266500Y1075791D01*
X268036Y1075486D01*
X268690D01*
X270226Y1075791D01*
X271528Y1076662D01*
X272399Y1077964D01*
X272704Y1079500D01*
X272399Y1081036D01*
X271528Y1082338D01*
X271108Y1082620D01*
X270826Y1083040D01*
X269438Y1084429D01*
Y1089666D01*
X269132Y1091202D01*
X268262Y1092505D01*
X266998Y1093768D01*
X265696Y1094639D01*
X264160Y1094944D01*
D02*
G37*
G36*
X402482Y1086612D02*
X400158D01*
X398011Y1085723D01*
X396367Y1084079D01*
X395478Y1081932D01*
Y1079608D01*
X396367Y1077461D01*
X398011Y1075817D01*
X400158Y1074928D01*
X402482D01*
X404629Y1075817D01*
X406273Y1077461D01*
X407162Y1079608D01*
Y1081932D01*
X406273Y1084079D01*
X404629Y1085723D01*
X402482Y1086612D01*
D02*
G37*
G36*
X310833Y1090549D02*
X308927D01*
X307086Y1090056D01*
X305435Y1089103D01*
X304087Y1087755D01*
X303134Y1086104D01*
X302641Y1084263D01*
Y1082357D01*
X303134Y1080516D01*
X304087Y1078865D01*
X305435Y1077517D01*
X305866Y1077269D01*
Y1075709D01*
X304241D01*
Y1074014D01*
X295190D01*
X294561Y1073889D01*
X290551D01*
Y1066111D01*
X294561D01*
X295190Y1065986D01*
X304241D01*
Y1060431D01*
X315519D01*
Y1075709D01*
X313894D01*
Y1077269D01*
X314325Y1077517D01*
X315673Y1078865D01*
X316626Y1080516D01*
X317119Y1082357D01*
Y1084263D01*
X316626Y1086104D01*
X315673Y1087755D01*
X314325Y1089103D01*
X312674Y1090056D01*
X310833Y1090549D01*
D02*
G37*
G36*
X324880Y1072084D02*
X323344Y1071779D01*
X322042Y1070908D01*
X321171Y1069606D01*
X320866Y1068070D01*
X320986Y1067467D01*
Y1050410D01*
X321291Y1048874D01*
X322162Y1047572D01*
X322282Y1047452D01*
X323584Y1046581D01*
X325120Y1046276D01*
X326656Y1046581D01*
X327958Y1047452D01*
X328829Y1048754D01*
X329134Y1050290D01*
X329014Y1050893D01*
Y1067950D01*
X328709Y1069486D01*
X327838Y1070788D01*
X327718Y1070908D01*
X326416Y1071779D01*
X324880Y1072084D01*
D02*
G37*
G36*
X451803Y1049909D02*
X449897D01*
X448056Y1049416D01*
X446405Y1048463D01*
X445057Y1047115D01*
X444104Y1045464D01*
X443611Y1043623D01*
Y1041717D01*
X444104Y1039876D01*
X445057Y1038225D01*
X446405Y1036877D01*
X448056Y1035924D01*
X449897Y1035431D01*
X451803D01*
X453644Y1035924D01*
X455295Y1036877D01*
X456643Y1038225D01*
X457596Y1039876D01*
X457755Y1040469D01*
X459181D01*
Y1038671D01*
X470459D01*
Y1048149D01*
X459181D01*
Y1044871D01*
X457755D01*
X457596Y1045464D01*
X456643Y1047115D01*
X455295Y1048463D01*
X453644Y1049416D01*
X451803Y1049909D01*
D02*
G37*
G36*
X365927Y1034169D02*
X363033D01*
X360238Y1033420D01*
X357733Y1031973D01*
X355687Y1029927D01*
X354240Y1027422D01*
X353491Y1024627D01*
Y1021733D01*
X354240Y1018938D01*
X355687Y1016433D01*
X357733Y1014387D01*
X360238Y1012940D01*
X363033Y1012191D01*
X365927D01*
X368722Y1012940D01*
X371227Y1014387D01*
X373273Y1016433D01*
X374720Y1018938D01*
X375469Y1021733D01*
Y1024627D01*
X374720Y1027422D01*
X373273Y1029927D01*
X371227Y1031973D01*
X368722Y1033420D01*
X365927Y1034169D01*
D02*
G37*
G36*
X286170Y1032919D02*
X282790D01*
X279524Y1032044D01*
X276597Y1030354D01*
X274206Y1027963D01*
X272516Y1025036D01*
X271641Y1021770D01*
Y1018390D01*
X272516Y1015124D01*
X274206Y1012197D01*
X276597Y1009806D01*
X279524Y1008116D01*
X282790Y1007241D01*
X286170D01*
X289436Y1008116D01*
X292363Y1009806D01*
X294754Y1012197D01*
X296444Y1015124D01*
X297319Y1018390D01*
Y1021770D01*
X296444Y1025036D01*
X294754Y1027963D01*
X292363Y1030354D01*
X289436Y1032044D01*
X286170Y1032919D01*
D02*
G37*
G36*
X470459Y1016399D02*
X459181D01*
Y1006921D01*
X462619D01*
Y1005125D01*
X462026Y1004966D01*
X460375Y1004013D01*
X459027Y1002665D01*
X458074Y1001014D01*
X457581Y999173D01*
Y997267D01*
X458074Y995426D01*
X459027Y993775D01*
X460375Y992427D01*
X462026Y991474D01*
X463867Y990981D01*
X465773D01*
X467614Y991474D01*
X469265Y992427D01*
X470613Y993775D01*
X471566Y995426D01*
X472059Y997267D01*
Y999173D01*
X471566Y1001014D01*
X470613Y1002665D01*
X469265Y1004013D01*
X467614Y1004966D01*
X467021Y1005125D01*
Y1006921D01*
X470459D01*
Y1016399D01*
D02*
G37*
G36*
X446316Y956719D02*
X442644D01*
X439043Y956003D01*
X435651Y954598D01*
X432598Y952558D01*
X430002Y949962D01*
X427962Y946909D01*
X426557Y943517D01*
X425841Y939916D01*
Y936244D01*
X426557Y932643D01*
X427962Y929251D01*
X430002Y926198D01*
X432598Y923602D01*
X435651Y921562D01*
X439043Y920157D01*
X442644Y919441D01*
X446316D01*
X449917Y920157D01*
X453309Y921562D01*
X456362Y923602D01*
X458958Y926198D01*
X460998Y929251D01*
X462403Y932643D01*
X463119Y936244D01*
Y939916D01*
X462403Y943517D01*
X460998Y946909D01*
X458958Y949962D01*
X456362Y952558D01*
X453309Y954598D01*
X449917Y956003D01*
X446316Y956719D01*
D02*
G37*
G36*
X286316Y404719D02*
X282644D01*
X279043Y404003D01*
X275651Y402598D01*
X272598Y400558D01*
X270002Y397962D01*
X267962Y394909D01*
X266557Y391517D01*
X265841Y387916D01*
Y384244D01*
X266557Y380643D01*
X267962Y377251D01*
X270002Y374198D01*
X272598Y371602D01*
X275651Y369562D01*
X279043Y368157D01*
X282644Y367441D01*
X286316D01*
X289917Y368157D01*
X293309Y369562D01*
X296362Y371602D01*
X298958Y374198D01*
X300998Y377251D01*
X302403Y380643D01*
X303119Y384244D01*
Y387916D01*
X302403Y391517D01*
X300998Y394909D01*
X298958Y397962D01*
X296362Y400558D01*
X293309Y402598D01*
X289917Y404003D01*
X286316Y404719D01*
D02*
G37*
%LPD*%
G36*
X302260Y1280160D02*
X279941D01*
Y1278699D01*
Y1268921D01*
Y1265999D01*
Y1256221D01*
Y1254760D01*
X260350D01*
Y1291590D01*
X302260D01*
Y1280160D01*
D02*
G37*
D12*
X290830Y1112350D02*
X295190Y1107990D01*
X290830Y1112350D02*
Y1159510D01*
X315030Y1097210D02*
Y1135110D01*
X327730Y1092796D02*
Y1135110D01*
Y1092796D02*
X359747Y1060780D01*
X427990D01*
X440830Y1235710D02*
X443370Y1233170D01*
X462280D01*
X440830Y1248410D02*
X442100Y1249680D01*
X462280D01*
X375920Y1097280D02*
Y1112520D01*
X358140Y1109771D02*
Y1112520D01*
X362884Y1097616D02*
X363220Y1097280D01*
X362884Y1097616D02*
Y1105027D01*
X358140Y1109771D02*
X362884Y1105027D01*
X388620Y1097280D02*
Y1132500D01*
X391230Y1135110D01*
X415290Y1106170D02*
Y1125220D01*
X376941Y1070859D02*
X378460Y1069340D01*
X375920Y1084580D02*
X376941Y1083559D01*
Y1070859D02*
Y1083559D01*
X434478Y1027430D02*
X444524D01*
X432990Y1028918D02*
X434478Y1027430D01*
X432990Y1028918D02*
Y1033380D01*
X392760Y1019480D02*
X427990D01*
X315030Y1097210D02*
X392760Y1019480D01*
X363220Y1069340D02*
Y1084580D01*
X464080Y1042670D02*
X464820Y1043410D01*
X450850Y1042670D02*
X464080D01*
X464820Y998220D02*
Y1011660D01*
X444524Y1051611D02*
Y1060450D01*
X432245Y1039332D02*
X444524Y1051611D01*
X424478Y1039332D02*
X432245D01*
X422990Y1040820D02*
X424478Y1039332D01*
X422990Y1040820D02*
Y1046880D01*
X452096Y1027430D02*
X464290D01*
X464820Y1027960D01*
X427990Y1019480D02*
Y1033380D01*
X427990Y1033380D01*
X427990Y1046880D02*
Y1060780D01*
Y1046880D02*
X427990Y1046880D01*
X452096Y1060450D02*
X464080D01*
X464820Y1059710D01*
X295190Y1089000D02*
Y1107990D01*
D17*
X290830Y1299210D02*
D03*
Y1286510D02*
D03*
Y1273810D02*
D03*
Y1261110D02*
D03*
Y1248410D02*
D03*
Y1235710D02*
D03*
Y1223010D02*
D03*
Y1210310D02*
D03*
Y1197610D02*
D03*
Y1184910D02*
D03*
Y1172210D02*
D03*
Y1159510D02*
D03*
X440830D02*
D03*
Y1172210D02*
D03*
Y1184910D02*
D03*
Y1197610D02*
D03*
Y1210310D02*
D03*
Y1223010D02*
D03*
Y1235710D02*
D03*
Y1248410D02*
D03*
Y1261110D02*
D03*
Y1273810D02*
D03*
Y1286510D02*
D03*
Y1299210D02*
D03*
D18*
X315030Y1135110D02*
D03*
X327730D02*
D03*
X340430D02*
D03*
X353130D02*
D03*
X365830D02*
D03*
X378530D02*
D03*
X391230D02*
D03*
X403930D02*
D03*
X416630D02*
D03*
D19*
X427990Y1070280D02*
D03*
Y1060780D02*
D03*
Y1009980D02*
D03*
Y1019480D02*
D03*
D20*
X432990Y1046880D02*
D03*
X427990D02*
D03*
X422990D02*
D03*
Y1033380D02*
D03*
X427990D02*
D03*
X432990D02*
D03*
D21*
X444524Y1060450D02*
D03*
X452096D02*
D03*
X444524Y1027430D02*
D03*
X452096D02*
D03*
D22*
X464820Y1059710D02*
D03*
Y1043410D02*
D03*
Y1027960D02*
D03*
Y1011660D02*
D03*
D23*
X324880Y1068070D02*
D03*
X309880D02*
D03*
D24*
X268690Y1079500D02*
D03*
X295190Y1089000D02*
D03*
Y1070000D02*
D03*
D25*
X267970Y1299470D02*
D03*
Y1283970D02*
D03*
D26*
Y1257610D02*
D03*
Y1251910D02*
D03*
D35*
X364480Y300980D02*
D03*
D36*
Y1023180D02*
D03*
D37*
X444480Y938080D02*
D03*
X284480Y386080D02*
D03*
D38*
Y1020080D02*
D03*
D40*
X388620Y1084580D02*
D03*
X375920D02*
D03*
X363220D02*
D03*
X388620Y1097280D02*
D03*
X363220D02*
D03*
X375920D02*
D03*
D41*
X324880Y1068070D02*
X325000Y1067950D01*
Y1050410D02*
X325120Y1050290D01*
X325000Y1050410D02*
Y1067950D01*
X267988Y1079548D02*
Y1080202D01*
X265424Y1082766D02*
Y1089666D01*
X268036Y1079500D02*
X268690D01*
X267988Y1079548D02*
X268036Y1079500D01*
X265424Y1082766D02*
X267988Y1080202D01*
X264160Y1090930D02*
X265424Y1089666D01*
X309880Y1068298D02*
Y1083310D01*
Y1068070D02*
Y1068298D01*
X295190Y1070000D02*
X308178D01*
X309880Y1068298D01*
D42*
X401320Y1101090D02*
D03*
Y1080770D02*
D03*
X350520Y1090930D02*
D03*
D43*
X457200Y1295400D02*
D03*
X469900Y1270000D02*
D03*
Y1219200D02*
D03*
X457200Y1193800D02*
D03*
X469900Y1168400D02*
D03*
X457200Y1143000D02*
D03*
X469900Y1117600D02*
D03*
X457200Y1092200D02*
D03*
X469900Y1066800D02*
D03*
X457200Y990600D02*
D03*
X469900Y965200D02*
D03*
Y914400D02*
D03*
X457200Y889000D02*
D03*
X469900Y863600D02*
D03*
X457200Y838200D02*
D03*
X469900Y812800D02*
D03*
X457200Y787400D02*
D03*
X469900Y762000D02*
D03*
X457200Y736600D02*
D03*
X469900Y711200D02*
D03*
X457200Y685800D02*
D03*
X469900Y660400D02*
D03*
X457200Y635000D02*
D03*
X469900Y609600D02*
D03*
X457200Y584200D02*
D03*
X469900Y558800D02*
D03*
X457200Y533400D02*
D03*
X469900Y508000D02*
D03*
X457200Y482600D02*
D03*
X469900Y457200D02*
D03*
X457200Y431800D02*
D03*
X469900Y406400D02*
D03*
X457200Y381000D02*
D03*
X469900Y355600D02*
D03*
X457200Y330200D02*
D03*
X469900Y304800D02*
D03*
X457200Y279400D02*
D03*
X444500Y1117600D02*
D03*
X431800Y1092200D02*
D03*
X444500Y1066800D02*
D03*
Y1016000D02*
D03*
X431800Y990600D02*
D03*
X444500Y965200D02*
D03*
Y914400D02*
D03*
X431800Y889000D02*
D03*
X444500Y863600D02*
D03*
X431800Y838200D02*
D03*
X444500Y812800D02*
D03*
X431800Y787400D02*
D03*
X444500Y762000D02*
D03*
X431800Y736600D02*
D03*
X444500Y711200D02*
D03*
X431800Y685800D02*
D03*
X444500Y660400D02*
D03*
X431800Y635000D02*
D03*
X444500Y609600D02*
D03*
X431800Y584200D02*
D03*
X444500Y558800D02*
D03*
X431800Y533400D02*
D03*
X444500Y508000D02*
D03*
X431800Y482600D02*
D03*
X444500Y457200D02*
D03*
X431800Y431800D02*
D03*
X444500Y406400D02*
D03*
X431800Y381000D02*
D03*
X444500Y355600D02*
D03*
X431800Y330200D02*
D03*
X444500Y304800D02*
D03*
X431800Y279400D02*
D03*
X406400Y1295400D02*
D03*
X419100Y1270000D02*
D03*
X406400Y1244600D02*
D03*
X419100Y1219200D02*
D03*
X406400Y1193800D02*
D03*
X419100Y1168400D02*
D03*
X406400Y1092200D02*
D03*
X419100Y1066800D02*
D03*
X406400Y1041400D02*
D03*
Y990600D02*
D03*
X419100Y965200D02*
D03*
X406400Y939800D02*
D03*
X419100Y914400D02*
D03*
X406400Y889000D02*
D03*
X419100Y863600D02*
D03*
X406400Y838200D02*
D03*
X419100Y812800D02*
D03*
X406400Y787400D02*
D03*
X419100Y762000D02*
D03*
X406400Y736600D02*
D03*
X419100Y711200D02*
D03*
X406400Y685800D02*
D03*
X419100Y660400D02*
D03*
X406400Y635000D02*
D03*
X419100Y609600D02*
D03*
X406400Y584200D02*
D03*
X419100Y558800D02*
D03*
X406400Y533400D02*
D03*
X419100Y508000D02*
D03*
X406400Y482600D02*
D03*
X419100Y457200D02*
D03*
X406400Y431800D02*
D03*
X419100Y406400D02*
D03*
X406400Y381000D02*
D03*
X419100Y355600D02*
D03*
X406400Y330200D02*
D03*
X419100Y304800D02*
D03*
X406400Y279400D02*
D03*
X381000Y1295400D02*
D03*
X393700Y1270000D02*
D03*
X381000Y1244600D02*
D03*
X393700Y1219200D02*
D03*
X381000Y1193800D02*
D03*
X393700Y1168400D02*
D03*
Y1117600D02*
D03*
X381000Y1041400D02*
D03*
Y990600D02*
D03*
X393700Y965200D02*
D03*
X381000Y939800D02*
D03*
X393700Y914400D02*
D03*
X381000Y889000D02*
D03*
X393700Y863600D02*
D03*
X381000Y838200D02*
D03*
X393700Y812800D02*
D03*
X381000Y787400D02*
D03*
X393700Y762000D02*
D03*
X381000Y736600D02*
D03*
X393700Y711200D02*
D03*
X381000Y685800D02*
D03*
X393700Y660400D02*
D03*
X381000Y635000D02*
D03*
X393700Y609600D02*
D03*
X381000Y584200D02*
D03*
X393700Y558800D02*
D03*
X381000Y533400D02*
D03*
X393700Y508000D02*
D03*
X381000Y482600D02*
D03*
X393700Y457200D02*
D03*
X381000Y431800D02*
D03*
X393700Y406400D02*
D03*
X381000Y381000D02*
D03*
X393700Y355600D02*
D03*
X381000Y330200D02*
D03*
X393700Y304800D02*
D03*
X381000Y279400D02*
D03*
X355600Y1295400D02*
D03*
X368300Y1270000D02*
D03*
X355600Y1244600D02*
D03*
X368300Y1219200D02*
D03*
X355600Y1193800D02*
D03*
X368300Y1168400D02*
D03*
X355600Y1041400D02*
D03*
Y990600D02*
D03*
X368300Y965200D02*
D03*
X355600Y939800D02*
D03*
X368300Y914400D02*
D03*
X355600Y889000D02*
D03*
X368300Y863600D02*
D03*
X355600Y838200D02*
D03*
X368300Y812800D02*
D03*
X355600Y787400D02*
D03*
X368300Y762000D02*
D03*
X355600Y736600D02*
D03*
X368300Y711200D02*
D03*
X355600Y685800D02*
D03*
X368300Y660400D02*
D03*
X355600Y635000D02*
D03*
X368300Y609600D02*
D03*
X355600Y584200D02*
D03*
X368300Y558800D02*
D03*
X355600Y533400D02*
D03*
X368300Y508000D02*
D03*
X355600Y482600D02*
D03*
X368300Y457200D02*
D03*
X355600Y431800D02*
D03*
X368300Y406400D02*
D03*
X355600Y381000D02*
D03*
X368300Y355600D02*
D03*
X355600Y330200D02*
D03*
Y279400D02*
D03*
X330200Y1295400D02*
D03*
X342900Y1270000D02*
D03*
X330200Y1244600D02*
D03*
X342900Y1219200D02*
D03*
X330200Y1193800D02*
D03*
X342900Y1168400D02*
D03*
Y1117600D02*
D03*
X330200Y1041400D02*
D03*
X342900Y1016000D02*
D03*
X330200Y990600D02*
D03*
X342900Y965200D02*
D03*
X330200Y939800D02*
D03*
X342900Y914400D02*
D03*
X330200Y889000D02*
D03*
X342900Y863600D02*
D03*
X330200Y838200D02*
D03*
X342900Y812800D02*
D03*
X330200Y787400D02*
D03*
X342900Y762000D02*
D03*
X330200Y736600D02*
D03*
X342900Y711200D02*
D03*
X330200Y685800D02*
D03*
X342900Y660400D02*
D03*
X330200Y635000D02*
D03*
X342900Y609600D02*
D03*
X330200Y584200D02*
D03*
X342900Y558800D02*
D03*
X330200Y533400D02*
D03*
X342900Y508000D02*
D03*
X330200Y482600D02*
D03*
X342900Y457200D02*
D03*
X330200Y431800D02*
D03*
X342900Y406400D02*
D03*
X330200Y381000D02*
D03*
X342900Y355600D02*
D03*
X330200Y330200D02*
D03*
X342900Y304800D02*
D03*
X330200Y279400D02*
D03*
X304800Y1295400D02*
D03*
X317500Y1270000D02*
D03*
X304800Y1244600D02*
D03*
X317500Y1219200D02*
D03*
X304800Y1193800D02*
D03*
X317500Y1168400D02*
D03*
X304800Y1143000D02*
D03*
Y1092200D02*
D03*
Y1041400D02*
D03*
X317500Y1016000D02*
D03*
X304800Y990600D02*
D03*
X317500Y965200D02*
D03*
X304800Y939800D02*
D03*
X317500Y914400D02*
D03*
X304800Y889000D02*
D03*
X317500Y863600D02*
D03*
X304800Y838200D02*
D03*
X317500Y812800D02*
D03*
X304800Y787400D02*
D03*
X317500Y762000D02*
D03*
X304800Y736600D02*
D03*
X317500Y711200D02*
D03*
X304800Y685800D02*
D03*
X317500Y660400D02*
D03*
X304800Y635000D02*
D03*
X317500Y609600D02*
D03*
X304800Y584200D02*
D03*
X317500Y558800D02*
D03*
X304800Y533400D02*
D03*
X317500Y508000D02*
D03*
X304800Y482600D02*
D03*
X317500Y457200D02*
D03*
X304800Y431800D02*
D03*
X317500Y406400D02*
D03*
X304800Y381000D02*
D03*
X317500Y355600D02*
D03*
X304800Y330200D02*
D03*
X317500Y304800D02*
D03*
X304800Y279400D02*
D03*
X279400Y1143000D02*
D03*
Y1092200D02*
D03*
Y1041400D02*
D03*
Y990600D02*
D03*
X292100Y965200D02*
D03*
X279400Y939800D02*
D03*
X292100Y914400D02*
D03*
X279400Y889000D02*
D03*
X292100Y863600D02*
D03*
X279400Y838200D02*
D03*
X292100Y812800D02*
D03*
X279400Y787400D02*
D03*
X292100Y762000D02*
D03*
X279400Y736600D02*
D03*
X292100Y711200D02*
D03*
X279400Y685800D02*
D03*
X292100Y660400D02*
D03*
X279400Y635000D02*
D03*
X292100Y609600D02*
D03*
X279400Y584200D02*
D03*
X292100Y558800D02*
D03*
X279400Y533400D02*
D03*
X292100Y508000D02*
D03*
X279400Y482600D02*
D03*
X292100Y457200D02*
D03*
X279400Y431800D02*
D03*
X292100Y406400D02*
D03*
Y355600D02*
D03*
X279400Y330200D02*
D03*
X292100Y304800D02*
D03*
X279400Y279400D02*
D03*
X325120Y1050290D02*
D03*
D44*
X276860Y1306830D02*
D03*
X415290Y1106170D02*
D03*
X462280Y1233170D02*
D03*
X375920Y1112520D02*
D03*
X358140D02*
D03*
X462280Y1249680D02*
D03*
X378460Y1069340D02*
D03*
X363220D02*
D03*
X267970Y1270000D02*
D03*
X464820Y998220D02*
D03*
X450850Y1042670D02*
D03*
X264160Y1090930D02*
D03*
X309880Y1083310D02*
D03*
M02*
