G04*
G04 #@! TF.GenerationSoftware,Altium Limited,Altium Designer,24.5.2 (23)*
G04*
G04 Layer_Color=8421504*
%FSLAX44Y44*%
%MOMM*%
G71*
G04*
G04 #@! TF.SameCoordinates,2FE71BF4-1BC5-4688-A169-50693282DBDC*
G04*
G04*
G04 #@! TF.FilePolarity,Positive*
G04*
G01*
G75*
%ADD17R,2.0000X0.8000*%
%ADD18R,0.8000X2.0000*%
%ADD19R,0.6500X0.7000*%
%ADD20R,0.3000X0.4500*%
%ADD21R,0.5153X0.4725*%
%ADD22R,0.9500X0.7700*%
%ADD23R,0.9500X1.3500*%
%ADD24R,0.7500X0.6000*%
%ADD25R,0.9000X0.7500*%
%ADD26R,0.3000X0.2700*%
D17*
X290830Y1299210D02*
D03*
Y1286510D02*
D03*
Y1273810D02*
D03*
Y1261110D02*
D03*
Y1248410D02*
D03*
Y1235710D02*
D03*
Y1223010D02*
D03*
Y1210310D02*
D03*
Y1197610D02*
D03*
Y1184910D02*
D03*
Y1172210D02*
D03*
Y1159510D02*
D03*
X440830D02*
D03*
Y1172210D02*
D03*
Y1184910D02*
D03*
Y1197610D02*
D03*
Y1210310D02*
D03*
Y1223010D02*
D03*
Y1235710D02*
D03*
Y1248410D02*
D03*
Y1261110D02*
D03*
Y1273810D02*
D03*
Y1286510D02*
D03*
Y1299210D02*
D03*
D18*
X315030Y1135110D02*
D03*
X327730D02*
D03*
X340430D02*
D03*
X353130D02*
D03*
X365830D02*
D03*
X378530D02*
D03*
X391230D02*
D03*
X403930D02*
D03*
X416630D02*
D03*
D19*
X427990Y1070280D02*
D03*
Y1060780D02*
D03*
Y1009980D02*
D03*
Y1019480D02*
D03*
D20*
X432990Y1046880D02*
D03*
X427990D02*
D03*
X422990D02*
D03*
Y1033380D02*
D03*
X427990D02*
D03*
X432990D02*
D03*
D21*
X444524Y1060450D02*
D03*
X452096D02*
D03*
X444524Y1027430D02*
D03*
X452096D02*
D03*
D22*
X464820Y1059710D02*
D03*
Y1043410D02*
D03*
Y1027960D02*
D03*
Y1011660D02*
D03*
D23*
X324880Y1068070D02*
D03*
X309880D02*
D03*
D24*
X268690Y1079500D02*
D03*
X295190Y1089000D02*
D03*
Y1070000D02*
D03*
D25*
X267970Y1299470D02*
D03*
Y1283970D02*
D03*
D26*
Y1257610D02*
D03*
Y1251910D02*
D03*
M02*
