G04*
G04 #@! TF.GenerationSoftware,Altium Limited,Altium Designer,24.5.2 (23)*
G04*
G04 Layer_Physical_Order=4*
G04 Layer_Color=16711680*
%FSLAX44Y44*%
%MOMM*%
G71*
G04*
G04 #@! TF.SameCoordinates,2FE71BF4-1BC5-4688-A169-50693282DBDC*
G04*
G04*
G04 #@! TF.FilePolarity,Positive*
G04*
G01*
G75*
%ADD12C,0.2540*%
%ADD35R,2.0200X2.0200*%
%ADD36C,2.0200*%
%ADD37C,3.5500*%
%ADD38C,2.3900*%
%ADD42C,0.1000*%
%ADD43C,0.4500*%
%ADD44C,1.2700*%
G36*
X473660Y1272338D02*
X473197Y1272102D01*
X472390Y1271949D01*
X471678Y1272661D01*
X470524Y1273139D01*
X469276D01*
X468122Y1272661D01*
X467239Y1271778D01*
X466761Y1270624D01*
Y1269376D01*
X467239Y1268222D01*
X468122Y1267339D01*
X469276Y1266861D01*
X470524D01*
X471678Y1267339D01*
X472390Y1268051D01*
X473197Y1267898D01*
X473660Y1267662D01*
Y1221538D01*
X473197Y1221302D01*
X472390Y1221149D01*
X471678Y1221861D01*
X470524Y1222339D01*
X469276D01*
X468122Y1221861D01*
X467239Y1220978D01*
X466761Y1219824D01*
Y1218576D01*
X467239Y1217422D01*
X468122Y1216539D01*
X469276Y1216061D01*
X470524D01*
X471678Y1216539D01*
X472390Y1217251D01*
X473197Y1217098D01*
X473660Y1216862D01*
Y1170738D01*
X473197Y1170502D01*
X472390Y1170349D01*
X471678Y1171061D01*
X470524Y1171539D01*
X469276D01*
X468122Y1171061D01*
X467239Y1170178D01*
X466761Y1169024D01*
Y1167776D01*
X467239Y1166622D01*
X468122Y1165739D01*
X469276Y1165261D01*
X470524D01*
X471678Y1165739D01*
X472390Y1166451D01*
X473197Y1166298D01*
X473660Y1166062D01*
Y1119938D01*
X473197Y1119702D01*
X472390Y1119549D01*
X471678Y1120261D01*
X470524Y1120739D01*
X469276D01*
X468122Y1120261D01*
X467239Y1119378D01*
X466761Y1118224D01*
Y1116976D01*
X467239Y1115822D01*
X468122Y1114939D01*
X469276Y1114461D01*
X470524D01*
X471678Y1114939D01*
X472390Y1115651D01*
X473197Y1115498D01*
X473660Y1115262D01*
Y1069138D01*
X473197Y1068902D01*
X472390Y1068749D01*
X471678Y1069461D01*
X470524Y1069939D01*
X469276D01*
X468122Y1069461D01*
X467239Y1068578D01*
X466761Y1067424D01*
Y1066176D01*
X467239Y1065022D01*
X468122Y1064139D01*
X469276Y1063661D01*
X470524D01*
X471678Y1064139D01*
X472390Y1064851D01*
X473197Y1064698D01*
X473660Y1064462D01*
Y967538D01*
X473197Y967302D01*
X472390Y967149D01*
X471678Y967861D01*
X470524Y968339D01*
X469276D01*
X468122Y967861D01*
X467239Y966978D01*
X466761Y965824D01*
Y964576D01*
X467239Y963422D01*
X468122Y962539D01*
X469276Y962061D01*
X470524D01*
X471678Y962539D01*
X472390Y963251D01*
X473197Y963098D01*
X473660Y962862D01*
Y916738D01*
X473197Y916502D01*
X472390Y916349D01*
X471678Y917061D01*
X470524Y917539D01*
X469276D01*
X468122Y917061D01*
X467239Y916178D01*
X466761Y915024D01*
Y913776D01*
X467239Y912622D01*
X468122Y911739D01*
X469276Y911261D01*
X470524D01*
X471678Y911739D01*
X472390Y912451D01*
X473197Y912298D01*
X473660Y912062D01*
Y865938D01*
X473197Y865702D01*
X472390Y865549D01*
X471678Y866261D01*
X470524Y866739D01*
X469276D01*
X468122Y866261D01*
X467239Y865378D01*
X466761Y864224D01*
Y862976D01*
X467239Y861822D01*
X468122Y860939D01*
X469276Y860461D01*
X470524D01*
X471678Y860939D01*
X472390Y861651D01*
X473197Y861498D01*
X473660Y861262D01*
Y815138D01*
X473197Y814902D01*
X472390Y814749D01*
X471678Y815461D01*
X470524Y815939D01*
X469276D01*
X468122Y815461D01*
X467239Y814578D01*
X466761Y813424D01*
Y812176D01*
X467239Y811022D01*
X468122Y810139D01*
X469276Y809661D01*
X470524D01*
X471678Y810139D01*
X472390Y810851D01*
X473197Y810698D01*
X473660Y810462D01*
Y764338D01*
X473197Y764102D01*
X472390Y763949D01*
X471678Y764661D01*
X470524Y765139D01*
X469276D01*
X468122Y764661D01*
X467239Y763778D01*
X466761Y762624D01*
Y761376D01*
X467239Y760222D01*
X468122Y759339D01*
X469276Y758861D01*
X470524D01*
X471678Y759339D01*
X472390Y760051D01*
X473197Y759898D01*
X473660Y759662D01*
Y713538D01*
X473197Y713302D01*
X472390Y713149D01*
X471678Y713861D01*
X470524Y714339D01*
X469276D01*
X468122Y713861D01*
X467239Y712978D01*
X466761Y711824D01*
Y710576D01*
X467239Y709422D01*
X468122Y708539D01*
X469276Y708061D01*
X470524D01*
X471678Y708539D01*
X472390Y709251D01*
X473197Y709098D01*
X473660Y708862D01*
Y662738D01*
X473197Y662502D01*
X472390Y662349D01*
X471678Y663061D01*
X470524Y663539D01*
X469276D01*
X468122Y663061D01*
X467239Y662178D01*
X466761Y661024D01*
Y659776D01*
X467239Y658622D01*
X468122Y657739D01*
X469276Y657261D01*
X470524D01*
X471678Y657739D01*
X472390Y658451D01*
X473197Y658298D01*
X473660Y658062D01*
Y611938D01*
X473197Y611702D01*
X472390Y611549D01*
X471678Y612261D01*
X470524Y612739D01*
X469276D01*
X468122Y612261D01*
X467239Y611378D01*
X466761Y610224D01*
Y608976D01*
X467239Y607822D01*
X468122Y606939D01*
X469276Y606461D01*
X470524D01*
X471678Y606939D01*
X472390Y607651D01*
X473197Y607498D01*
X473660Y607262D01*
Y561138D01*
X473197Y560902D01*
X472390Y560749D01*
X471678Y561461D01*
X470524Y561939D01*
X469276D01*
X468122Y561461D01*
X467239Y560578D01*
X466761Y559424D01*
Y558176D01*
X467239Y557022D01*
X468122Y556139D01*
X469276Y555661D01*
X470524D01*
X471678Y556139D01*
X472390Y556851D01*
X473197Y556698D01*
X473660Y556462D01*
Y510338D01*
X473197Y510102D01*
X472390Y509949D01*
X471678Y510661D01*
X470524Y511139D01*
X469276D01*
X468122Y510661D01*
X467239Y509778D01*
X466761Y508624D01*
Y507376D01*
X467239Y506222D01*
X468122Y505339D01*
X469276Y504861D01*
X470524D01*
X471678Y505339D01*
X472390Y506051D01*
X473197Y505898D01*
X473660Y505662D01*
Y459538D01*
X473197Y459302D01*
X472390Y459149D01*
X471678Y459861D01*
X470524Y460339D01*
X469276D01*
X468122Y459861D01*
X467239Y458978D01*
X466761Y457824D01*
Y456576D01*
X467239Y455422D01*
X468122Y454539D01*
X469276Y454061D01*
X470524D01*
X471678Y454539D01*
X472390Y455251D01*
X473197Y455098D01*
X473660Y454862D01*
Y408738D01*
X473197Y408502D01*
X472390Y408349D01*
X471678Y409061D01*
X470524Y409539D01*
X469276D01*
X468122Y409061D01*
X467239Y408178D01*
X466761Y407024D01*
Y405776D01*
X467239Y404622D01*
X468122Y403739D01*
X469276Y403261D01*
X470524D01*
X471678Y403739D01*
X472390Y404451D01*
X473197Y404298D01*
X473660Y404062D01*
Y357938D01*
X473197Y357702D01*
X472390Y357549D01*
X471678Y358261D01*
X470524Y358739D01*
X469276D01*
X468122Y358261D01*
X467239Y357378D01*
X466761Y356224D01*
Y354976D01*
X467239Y353822D01*
X468122Y352939D01*
X469276Y352461D01*
X470524D01*
X471678Y352939D01*
X472390Y353651D01*
X473197Y353498D01*
X473660Y353262D01*
Y307138D01*
X473197Y306902D01*
X472390Y306749D01*
X471678Y307461D01*
X470524Y307939D01*
X469276D01*
X468122Y307461D01*
X467239Y306578D01*
X466761Y305424D01*
Y304176D01*
X467239Y303022D01*
X468122Y302139D01*
X469276Y301661D01*
X470524D01*
X471678Y302139D01*
X472390Y302851D01*
X473197Y302698D01*
X473660Y302462D01*
Y256590D01*
X256590D01*
Y1087024D01*
X257860Y1087365D01*
X258367Y1086485D01*
X259715Y1085137D01*
X261366Y1084184D01*
X263207Y1083691D01*
X265113D01*
X266954Y1084184D01*
X268605Y1085137D01*
X269953Y1086485D01*
X270906Y1088136D01*
X271399Y1089977D01*
Y1091883D01*
X270906Y1093724D01*
X269953Y1095375D01*
X268605Y1096723D01*
X266954Y1097676D01*
X265113Y1098169D01*
X263207D01*
X261366Y1097676D01*
X259715Y1096723D01*
X258367Y1095375D01*
X257860Y1094495D01*
X256590Y1094836D01*
Y1313180D01*
X271176D01*
X271702Y1311910D01*
X271067Y1311275D01*
X270114Y1309624D01*
X269621Y1307783D01*
Y1305877D01*
X270114Y1304036D01*
X271067Y1302385D01*
X272415Y1301037D01*
X274066Y1300084D01*
X275907Y1299591D01*
X277813D01*
X279654Y1300084D01*
X281305Y1301037D01*
X282653Y1302385D01*
X283606Y1304036D01*
X284099Y1305877D01*
Y1307783D01*
X283606Y1309624D01*
X282653Y1311275D01*
X282017Y1311910D01*
X282544Y1313180D01*
X473660D01*
Y1272338D01*
D02*
G37*
%LPC*%
G36*
X457824Y1298539D02*
X456576D01*
X455422Y1298061D01*
X454539Y1297178D01*
X454061Y1296024D01*
Y1294776D01*
X454539Y1293622D01*
X455422Y1292739D01*
X456576Y1292261D01*
X457824D01*
X458978Y1292739D01*
X459861Y1293622D01*
X460339Y1294776D01*
Y1296024D01*
X459861Y1297178D01*
X458978Y1298061D01*
X457824Y1298539D01*
D02*
G37*
G36*
X407024D02*
X405776D01*
X404622Y1298061D01*
X403739Y1297178D01*
X403261Y1296024D01*
Y1294776D01*
X403739Y1293622D01*
X404622Y1292739D01*
X405776Y1292261D01*
X407024D01*
X408178Y1292739D01*
X409061Y1293622D01*
X409539Y1294776D01*
Y1296024D01*
X409061Y1297178D01*
X408178Y1298061D01*
X407024Y1298539D01*
D02*
G37*
G36*
X381624D02*
X380376D01*
X379222Y1298061D01*
X378339Y1297178D01*
X377861Y1296024D01*
Y1294776D01*
X378339Y1293622D01*
X379222Y1292739D01*
X380376Y1292261D01*
X381624D01*
X382778Y1292739D01*
X383661Y1293622D01*
X384139Y1294776D01*
Y1296024D01*
X383661Y1297178D01*
X382778Y1298061D01*
X381624Y1298539D01*
D02*
G37*
G36*
X356224D02*
X354976D01*
X353822Y1298061D01*
X352939Y1297178D01*
X352461Y1296024D01*
Y1294776D01*
X352939Y1293622D01*
X353822Y1292739D01*
X354976Y1292261D01*
X356224D01*
X357378Y1292739D01*
X358261Y1293622D01*
X358739Y1294776D01*
Y1296024D01*
X358261Y1297178D01*
X357378Y1298061D01*
X356224Y1298539D01*
D02*
G37*
G36*
X330824D02*
X329576D01*
X328422Y1298061D01*
X327539Y1297178D01*
X327061Y1296024D01*
Y1294776D01*
X327539Y1293622D01*
X328422Y1292739D01*
X329576Y1292261D01*
X330824D01*
X331978Y1292739D01*
X332861Y1293622D01*
X333339Y1294776D01*
Y1296024D01*
X332861Y1297178D01*
X331978Y1298061D01*
X330824Y1298539D01*
D02*
G37*
G36*
X305424D02*
X304176D01*
X303022Y1298061D01*
X302139Y1297178D01*
X301661Y1296024D01*
Y1294776D01*
X302139Y1293622D01*
X303022Y1292739D01*
X304176Y1292261D01*
X305424D01*
X306578Y1292739D01*
X307461Y1293622D01*
X307939Y1294776D01*
Y1296024D01*
X307461Y1297178D01*
X306578Y1298061D01*
X305424Y1298539D01*
D02*
G37*
G36*
X419724Y1273139D02*
X418476D01*
X417322Y1272661D01*
X416439Y1271778D01*
X415961Y1270624D01*
Y1269376D01*
X416439Y1268222D01*
X417322Y1267339D01*
X418476Y1266861D01*
X419724D01*
X420878Y1267339D01*
X421761Y1268222D01*
X422239Y1269376D01*
Y1270624D01*
X421761Y1271778D01*
X420878Y1272661D01*
X419724Y1273139D01*
D02*
G37*
G36*
X394324D02*
X393076D01*
X391922Y1272661D01*
X391039Y1271778D01*
X390561Y1270624D01*
Y1269376D01*
X391039Y1268222D01*
X391922Y1267339D01*
X393076Y1266861D01*
X394324D01*
X395478Y1267339D01*
X396361Y1268222D01*
X396839Y1269376D01*
Y1270624D01*
X396361Y1271778D01*
X395478Y1272661D01*
X394324Y1273139D01*
D02*
G37*
G36*
X368924D02*
X367676D01*
X366522Y1272661D01*
X365639Y1271778D01*
X365161Y1270624D01*
Y1269376D01*
X365639Y1268222D01*
X366522Y1267339D01*
X367676Y1266861D01*
X368924D01*
X370078Y1267339D01*
X370961Y1268222D01*
X371439Y1269376D01*
Y1270624D01*
X370961Y1271778D01*
X370078Y1272661D01*
X368924Y1273139D01*
D02*
G37*
G36*
X343524D02*
X342276D01*
X341122Y1272661D01*
X340239Y1271778D01*
X339761Y1270624D01*
Y1269376D01*
X340239Y1268222D01*
X341122Y1267339D01*
X342276Y1266861D01*
X343524D01*
X344678Y1267339D01*
X345561Y1268222D01*
X346039Y1269376D01*
Y1270624D01*
X345561Y1271778D01*
X344678Y1272661D01*
X343524Y1273139D01*
D02*
G37*
G36*
X318124D02*
X316876D01*
X315722Y1272661D01*
X314839Y1271778D01*
X314361Y1270624D01*
Y1269376D01*
X314839Y1268222D01*
X315722Y1267339D01*
X316876Y1266861D01*
X318124D01*
X319278Y1267339D01*
X320161Y1268222D01*
X320639Y1269376D01*
Y1270624D01*
X320161Y1271778D01*
X319278Y1272661D01*
X318124Y1273139D01*
D02*
G37*
G36*
X463233Y1256919D02*
X461327D01*
X459486Y1256426D01*
X457835Y1255473D01*
X456487Y1254125D01*
X455534Y1252474D01*
X455041Y1250633D01*
Y1249005D01*
X454888Y1248975D01*
X454174Y1248497D01*
X445484Y1239807D01*
X445006Y1239092D01*
X444839Y1238250D01*
Y1184552D01*
X379246Y1118959D01*
X378714Y1119266D01*
X376873Y1119759D01*
X374967D01*
X373126Y1119266D01*
X371475Y1118313D01*
X370127Y1116965D01*
X369174Y1115314D01*
X368681Y1113473D01*
Y1111567D01*
X369174Y1109726D01*
X370127Y1108075D01*
X370720Y1107482D01*
X370194Y1106212D01*
X367561D01*
X364579Y1109194D01*
X364886Y1109726D01*
X365379Y1111567D01*
Y1113473D01*
X364886Y1115314D01*
X363933Y1116965D01*
X362585Y1118313D01*
X360934Y1119266D01*
X359093Y1119759D01*
X357187D01*
X355346Y1119266D01*
X353695Y1118313D01*
X352347Y1116965D01*
X351394Y1115314D01*
X350901Y1113473D01*
Y1111567D01*
X351394Y1109726D01*
X352347Y1108075D01*
X353695Y1106727D01*
X355346Y1105774D01*
X357187Y1105281D01*
X359093D01*
X360934Y1105774D01*
X361466Y1106081D01*
X365093Y1102454D01*
X365807Y1101977D01*
X366649Y1101810D01*
X391541D01*
X392383Y1101977D01*
X393097Y1102455D01*
X394958Y1104315D01*
X396034Y1103595D01*
X395478Y1102252D01*
Y1099928D01*
X396367Y1097781D01*
X398011Y1096137D01*
X400158Y1095248D01*
X402482D01*
X403522Y1095679D01*
X403963Y1095861D01*
X404622Y1094861D01*
X404216Y1094456D01*
X403739Y1093978D01*
X403261Y1092824D01*
Y1091576D01*
X403739Y1090422D01*
X404622Y1089539D01*
X405776Y1089061D01*
X407024D01*
X408178Y1089539D01*
X409061Y1090422D01*
X409539Y1091576D01*
Y1092824D01*
X409061Y1093978D01*
X408178Y1094861D01*
X407024Y1095339D01*
X405776D01*
X405288Y1095137D01*
X404629Y1096137D01*
X405035Y1096543D01*
X406273Y1097781D01*
X407162Y1099928D01*
Y1102252D01*
X406273Y1104399D01*
X404629Y1106043D01*
X402482Y1106932D01*
X400158D01*
X398815Y1106376D01*
X398095Y1107452D01*
X463837Y1173194D01*
X464314Y1173908D01*
X464481Y1174750D01*
Y1226265D01*
X465074Y1226424D01*
X466725Y1227377D01*
X468073Y1228725D01*
X469026Y1230376D01*
X469519Y1232217D01*
Y1234123D01*
X469026Y1235964D01*
X468073Y1237615D01*
X466725Y1238963D01*
X465074Y1239916D01*
X463233Y1240409D01*
X461327D01*
X459486Y1239916D01*
X457835Y1238963D01*
X456487Y1237615D01*
X455534Y1235964D01*
X455041Y1234123D01*
Y1232217D01*
X455534Y1230376D01*
X456487Y1228725D01*
X457835Y1227377D01*
X459486Y1226424D01*
X460079Y1226265D01*
Y1197157D01*
X459526Y1196807D01*
X458809Y1196531D01*
X457824Y1196939D01*
X456576D01*
X455422Y1196461D01*
X454539Y1195578D01*
X454061Y1194424D01*
Y1193176D01*
X454539Y1192022D01*
X455422Y1191139D01*
X456576Y1190661D01*
X457824D01*
X458809Y1191069D01*
X459526Y1190793D01*
X460079Y1190443D01*
Y1175662D01*
X390629Y1106212D01*
X381646D01*
X381120Y1107482D01*
X381713Y1108075D01*
X382666Y1109726D01*
X383159Y1111567D01*
Y1113473D01*
X382666Y1115314D01*
X382359Y1115846D01*
X448596Y1182084D01*
X449074Y1182798D01*
X449241Y1183640D01*
Y1237338D01*
X456643Y1244740D01*
X456791D01*
X456951Y1244771D01*
X457835Y1243887D01*
X459486Y1242934D01*
X461327Y1242441D01*
X463233D01*
X465074Y1242934D01*
X466725Y1243887D01*
X468073Y1245235D01*
X469026Y1246886D01*
X469519Y1248727D01*
Y1250633D01*
X469026Y1252474D01*
X468073Y1254125D01*
X466725Y1255473D01*
X465074Y1256426D01*
X463233Y1256919D01*
D02*
G37*
G36*
X407024Y1247739D02*
X405776D01*
X404622Y1247261D01*
X403739Y1246378D01*
X403261Y1245224D01*
Y1243976D01*
X403739Y1242822D01*
X404622Y1241939D01*
X405776Y1241461D01*
X407024D01*
X408178Y1241939D01*
X409061Y1242822D01*
X409539Y1243976D01*
Y1245224D01*
X409061Y1246378D01*
X408178Y1247261D01*
X407024Y1247739D01*
D02*
G37*
G36*
X381624D02*
X380376D01*
X379222Y1247261D01*
X378339Y1246378D01*
X377861Y1245224D01*
Y1243976D01*
X378339Y1242822D01*
X379222Y1241939D01*
X380376Y1241461D01*
X381624D01*
X382778Y1241939D01*
X383661Y1242822D01*
X384139Y1243976D01*
Y1245224D01*
X383661Y1246378D01*
X382778Y1247261D01*
X381624Y1247739D01*
D02*
G37*
G36*
X356224D02*
X354976D01*
X353822Y1247261D01*
X352939Y1246378D01*
X352461Y1245224D01*
Y1243976D01*
X352939Y1242822D01*
X353822Y1241939D01*
X354976Y1241461D01*
X356224D01*
X357378Y1241939D01*
X358261Y1242822D01*
X358739Y1243976D01*
Y1245224D01*
X358261Y1246378D01*
X357378Y1247261D01*
X356224Y1247739D01*
D02*
G37*
G36*
X330824D02*
X329576D01*
X328422Y1247261D01*
X327539Y1246378D01*
X327061Y1245224D01*
Y1243976D01*
X327539Y1242822D01*
X328422Y1241939D01*
X329576Y1241461D01*
X330824D01*
X331978Y1241939D01*
X332861Y1242822D01*
X333339Y1243976D01*
Y1245224D01*
X332861Y1246378D01*
X331978Y1247261D01*
X330824Y1247739D01*
D02*
G37*
G36*
X305424D02*
X304176D01*
X303022Y1247261D01*
X302139Y1246378D01*
X301661Y1245224D01*
Y1243976D01*
X302139Y1242822D01*
X303022Y1241939D01*
X304176Y1241461D01*
X305424D01*
X306578Y1241939D01*
X307461Y1242822D01*
X307939Y1243976D01*
Y1245224D01*
X307461Y1246378D01*
X306578Y1247261D01*
X305424Y1247739D01*
D02*
G37*
G36*
X419724Y1222339D02*
X418476D01*
X417322Y1221861D01*
X416439Y1220978D01*
X415961Y1219824D01*
Y1218576D01*
X416439Y1217422D01*
X417322Y1216539D01*
X418476Y1216061D01*
X419724D01*
X420878Y1216539D01*
X421761Y1217422D01*
X422239Y1218576D01*
Y1219824D01*
X421761Y1220978D01*
X420878Y1221861D01*
X419724Y1222339D01*
D02*
G37*
G36*
X394324D02*
X393076D01*
X391922Y1221861D01*
X391039Y1220978D01*
X390561Y1219824D01*
Y1218576D01*
X391039Y1217422D01*
X391922Y1216539D01*
X393076Y1216061D01*
X394324D01*
X395478Y1216539D01*
X396361Y1217422D01*
X396839Y1218576D01*
Y1219824D01*
X396361Y1220978D01*
X395478Y1221861D01*
X394324Y1222339D01*
D02*
G37*
G36*
X368924D02*
X367676D01*
X366522Y1221861D01*
X365639Y1220978D01*
X365161Y1219824D01*
Y1218576D01*
X365639Y1217422D01*
X366522Y1216539D01*
X367676Y1216061D01*
X368924D01*
X370078Y1216539D01*
X370961Y1217422D01*
X371439Y1218576D01*
Y1219824D01*
X370961Y1220978D01*
X370078Y1221861D01*
X368924Y1222339D01*
D02*
G37*
G36*
X343524D02*
X342276D01*
X341122Y1221861D01*
X340239Y1220978D01*
X339761Y1219824D01*
Y1218576D01*
X340239Y1217422D01*
X341122Y1216539D01*
X342276Y1216061D01*
X343524D01*
X344678Y1216539D01*
X345561Y1217422D01*
X346039Y1218576D01*
Y1219824D01*
X345561Y1220978D01*
X344678Y1221861D01*
X343524Y1222339D01*
D02*
G37*
G36*
X318124D02*
X316876D01*
X315722Y1221861D01*
X314839Y1220978D01*
X314361Y1219824D01*
Y1218576D01*
X314839Y1217422D01*
X315722Y1216539D01*
X316876Y1216061D01*
X318124D01*
X319278Y1216539D01*
X320161Y1217422D01*
X320639Y1218576D01*
Y1219824D01*
X320161Y1220978D01*
X319278Y1221861D01*
X318124Y1222339D01*
D02*
G37*
G36*
X407024Y1196939D02*
X405776D01*
X404622Y1196461D01*
X403739Y1195578D01*
X403261Y1194424D01*
Y1193176D01*
X403739Y1192022D01*
X404622Y1191139D01*
X405776Y1190661D01*
X407024D01*
X408178Y1191139D01*
X409061Y1192022D01*
X409539Y1193176D01*
Y1194424D01*
X409061Y1195578D01*
X408178Y1196461D01*
X407024Y1196939D01*
D02*
G37*
G36*
X381624D02*
X380376D01*
X379222Y1196461D01*
X378339Y1195578D01*
X377861Y1194424D01*
Y1193176D01*
X378339Y1192022D01*
X379222Y1191139D01*
X380376Y1190661D01*
X381624D01*
X382778Y1191139D01*
X383661Y1192022D01*
X384139Y1193176D01*
Y1194424D01*
X383661Y1195578D01*
X382778Y1196461D01*
X381624Y1196939D01*
D02*
G37*
G36*
X356224D02*
X354976D01*
X353822Y1196461D01*
X352939Y1195578D01*
X352461Y1194424D01*
Y1193176D01*
X352939Y1192022D01*
X353822Y1191139D01*
X354976Y1190661D01*
X356224D01*
X357378Y1191139D01*
X358261Y1192022D01*
X358739Y1193176D01*
Y1194424D01*
X358261Y1195578D01*
X357378Y1196461D01*
X356224Y1196939D01*
D02*
G37*
G36*
X330824D02*
X329576D01*
X328422Y1196461D01*
X327539Y1195578D01*
X327061Y1194424D01*
Y1193176D01*
X327539Y1192022D01*
X328422Y1191139D01*
X329576Y1190661D01*
X330824D01*
X331978Y1191139D01*
X332861Y1192022D01*
X333339Y1193176D01*
Y1194424D01*
X332861Y1195578D01*
X331978Y1196461D01*
X330824Y1196939D01*
D02*
G37*
G36*
X305424D02*
X304176D01*
X303022Y1196461D01*
X302139Y1195578D01*
X301661Y1194424D01*
Y1193176D01*
X302139Y1192022D01*
X303022Y1191139D01*
X304176Y1190661D01*
X305424D01*
X306578Y1191139D01*
X307461Y1192022D01*
X307939Y1193176D01*
Y1194424D01*
X307461Y1195578D01*
X306578Y1196461D01*
X305424Y1196939D01*
D02*
G37*
G36*
X419724Y1171539D02*
X418476D01*
X417322Y1171061D01*
X416439Y1170178D01*
X415961Y1169024D01*
Y1167776D01*
X416439Y1166622D01*
X417322Y1165739D01*
X418476Y1165261D01*
X419724D01*
X420878Y1165739D01*
X421761Y1166622D01*
X422239Y1167776D01*
Y1169024D01*
X421761Y1170178D01*
X420878Y1171061D01*
X419724Y1171539D01*
D02*
G37*
G36*
X394324D02*
X393076D01*
X391922Y1171061D01*
X391039Y1170178D01*
X390561Y1169024D01*
Y1167776D01*
X391039Y1166622D01*
X391922Y1165739D01*
X393076Y1165261D01*
X394324D01*
X395478Y1165739D01*
X396361Y1166622D01*
X396839Y1167776D01*
Y1169024D01*
X396361Y1170178D01*
X395478Y1171061D01*
X394324Y1171539D01*
D02*
G37*
G36*
X368924D02*
X367676D01*
X366522Y1171061D01*
X365639Y1170178D01*
X365161Y1169024D01*
Y1167776D01*
X365639Y1166622D01*
X366522Y1165739D01*
X367676Y1165261D01*
X368924D01*
X370078Y1165739D01*
X370961Y1166622D01*
X371439Y1167776D01*
Y1169024D01*
X370961Y1170178D01*
X370078Y1171061D01*
X368924Y1171539D01*
D02*
G37*
G36*
X343524D02*
X342276D01*
X341122Y1171061D01*
X340239Y1170178D01*
X339761Y1169024D01*
Y1167776D01*
X340239Y1166622D01*
X341122Y1165739D01*
X342276Y1165261D01*
X343524D01*
X344678Y1165739D01*
X345561Y1166622D01*
X346039Y1167776D01*
Y1169024D01*
X345561Y1170178D01*
X344678Y1171061D01*
X343524Y1171539D01*
D02*
G37*
G36*
X318124D02*
X316876D01*
X315722Y1171061D01*
X314839Y1170178D01*
X314361Y1169024D01*
Y1167776D01*
X314839Y1166622D01*
X315722Y1165739D01*
X316876Y1165261D01*
X318124D01*
X319278Y1165739D01*
X320161Y1166622D01*
X320639Y1167776D01*
Y1169024D01*
X320161Y1170178D01*
X319278Y1171061D01*
X318124Y1171539D01*
D02*
G37*
G36*
X457824Y1146139D02*
X456576D01*
X455422Y1145661D01*
X454539Y1144778D01*
X454061Y1143624D01*
Y1142376D01*
X454539Y1141222D01*
X455422Y1140339D01*
X456576Y1139861D01*
X457824D01*
X458978Y1140339D01*
X459861Y1141222D01*
X460339Y1142376D01*
Y1143624D01*
X459861Y1144778D01*
X458978Y1145661D01*
X457824Y1146139D01*
D02*
G37*
G36*
X305424D02*
X304176D01*
X303022Y1145661D01*
X302139Y1144778D01*
X301661Y1143624D01*
Y1142376D01*
X302139Y1141222D01*
X303022Y1140339D01*
X304176Y1139861D01*
X305424D01*
X306578Y1140339D01*
X307461Y1141222D01*
X307939Y1142376D01*
Y1143624D01*
X307461Y1144778D01*
X306578Y1145661D01*
X305424Y1146139D01*
D02*
G37*
G36*
X280024D02*
X278776D01*
X277622Y1145661D01*
X276739Y1144778D01*
X276261Y1143624D01*
Y1142376D01*
X276739Y1141222D01*
X277622Y1140339D01*
X278776Y1139861D01*
X280024D01*
X281178Y1140339D01*
X282061Y1141222D01*
X282539Y1142376D01*
Y1143624D01*
X282061Y1144778D01*
X281178Y1145661D01*
X280024Y1146139D01*
D02*
G37*
G36*
X445124Y1120739D02*
X443876D01*
X442722Y1120261D01*
X441839Y1119378D01*
X441361Y1118224D01*
Y1116976D01*
X441839Y1115822D01*
X442722Y1114939D01*
X443876Y1114461D01*
X445124D01*
X446278Y1114939D01*
X447161Y1115822D01*
X447639Y1116976D01*
Y1118224D01*
X447161Y1119378D01*
X446278Y1120261D01*
X445124Y1120739D01*
D02*
G37*
G36*
X394324D02*
X393076D01*
X391922Y1120261D01*
X391039Y1119378D01*
X390561Y1118224D01*
Y1116976D01*
X391039Y1115822D01*
X391922Y1114939D01*
X393076Y1114461D01*
X394324D01*
X395478Y1114939D01*
X396361Y1115822D01*
X396839Y1116976D01*
Y1118224D01*
X396361Y1119378D01*
X395478Y1120261D01*
X394324Y1120739D01*
D02*
G37*
G36*
X343524D02*
X342276D01*
X341122Y1120261D01*
X340239Y1119378D01*
X339761Y1118224D01*
Y1116976D01*
X340239Y1115822D01*
X341122Y1114939D01*
X342276Y1114461D01*
X343524D01*
X344678Y1114939D01*
X345561Y1115822D01*
X346039Y1116976D01*
Y1118224D01*
X345561Y1119378D01*
X344678Y1120261D01*
X343524Y1120739D01*
D02*
G37*
G36*
X457824Y1095339D02*
X456576D01*
X455422Y1094861D01*
X454539Y1093978D01*
X454061Y1092824D01*
Y1091576D01*
X454539Y1090422D01*
X455422Y1089539D01*
X456576Y1089061D01*
X457824D01*
X458978Y1089539D01*
X459861Y1090422D01*
X460339Y1091576D01*
Y1092824D01*
X459861Y1093978D01*
X458978Y1094861D01*
X457824Y1095339D01*
D02*
G37*
G36*
X432424D02*
X431176D01*
X430022Y1094861D01*
X429139Y1093978D01*
X428661Y1092824D01*
Y1091576D01*
X429139Y1090422D01*
X430022Y1089539D01*
X431176Y1089061D01*
X432424D01*
X433578Y1089539D01*
X434461Y1090422D01*
X434939Y1091576D01*
Y1092824D01*
X434461Y1093978D01*
X433578Y1094861D01*
X432424Y1095339D01*
D02*
G37*
G36*
X305424D02*
X304176D01*
X303022Y1094861D01*
X302139Y1093978D01*
X301661Y1092824D01*
Y1091576D01*
X302139Y1090422D01*
X303022Y1089539D01*
X304176Y1089061D01*
X305424D01*
X306578Y1089539D01*
X307461Y1090422D01*
X307939Y1091576D01*
Y1092824D01*
X307461Y1093978D01*
X306578Y1094861D01*
X305424Y1095339D01*
D02*
G37*
G36*
X280024D02*
X278776D01*
X277622Y1094861D01*
X276739Y1093978D01*
X276261Y1092824D01*
Y1091576D01*
X276739Y1090422D01*
X277622Y1089539D01*
X278776Y1089061D01*
X280024D01*
X281178Y1089539D01*
X282061Y1090422D01*
X282539Y1091576D01*
Y1092824D01*
X282061Y1093978D01*
X281178Y1094861D01*
X280024Y1095339D01*
D02*
G37*
G36*
X351682Y1096772D02*
X349358D01*
X347211Y1095883D01*
X345567Y1094239D01*
X344678Y1092092D01*
Y1089768D01*
X345567Y1087621D01*
X347211Y1085977D01*
X349358Y1085088D01*
X351682D01*
X353829Y1085977D01*
X355473Y1087621D01*
X356362Y1089768D01*
Y1092092D01*
X355473Y1094239D01*
X353829Y1095883D01*
X351682Y1096772D01*
D02*
G37*
G36*
X416243Y1113409D02*
X414337D01*
X412496Y1112916D01*
X410845Y1111963D01*
X409497Y1110615D01*
X408544Y1108964D01*
X408051Y1107123D01*
Y1105217D01*
X408544Y1103376D01*
X409497Y1101725D01*
X410845Y1100377D01*
X412496Y1099424D01*
X413089Y1099266D01*
Y1085594D01*
X408335Y1080841D01*
X407162Y1081327D01*
Y1081932D01*
X406273Y1084079D01*
X404629Y1085723D01*
X402482Y1086612D01*
X400158D01*
X398011Y1085723D01*
X396367Y1084079D01*
X395478Y1081932D01*
Y1079608D01*
X396367Y1077461D01*
X398011Y1075817D01*
X400158Y1074928D01*
X400763D01*
X401249Y1073755D01*
X399036Y1071541D01*
X385364D01*
X385206Y1072134D01*
X384253Y1073785D01*
X382905Y1075133D01*
X381254Y1076086D01*
X379413Y1076579D01*
X377507D01*
X375666Y1076086D01*
X374015Y1075133D01*
X372667Y1073785D01*
X371714Y1072134D01*
X371221Y1070293D01*
Y1068387D01*
X371714Y1066546D01*
X372667Y1064895D01*
X374015Y1063547D01*
X375666Y1062594D01*
X377507Y1062101D01*
X379413D01*
X381254Y1062594D01*
X382905Y1063547D01*
X384253Y1064895D01*
X385206Y1066546D01*
X385364Y1067139D01*
X399948D01*
X400790Y1067306D01*
X401504Y1067784D01*
X416847Y1083126D01*
X417324Y1083840D01*
X417491Y1084682D01*
Y1099266D01*
X418084Y1099424D01*
X419735Y1100377D01*
X421083Y1101725D01*
X422036Y1103376D01*
X422529Y1105217D01*
Y1107123D01*
X422036Y1108964D01*
X421083Y1110615D01*
X419735Y1111963D01*
X418084Y1112916D01*
X416243Y1113409D01*
D02*
G37*
G36*
X445124Y1069939D02*
X443876D01*
X442722Y1069461D01*
X441839Y1068578D01*
X441361Y1067424D01*
Y1066176D01*
X441839Y1065022D01*
X442722Y1064139D01*
X443876Y1063661D01*
X445124D01*
X446278Y1064139D01*
X447161Y1065022D01*
X447639Y1066176D01*
Y1067424D01*
X447161Y1068578D01*
X446278Y1069461D01*
X445124Y1069939D01*
D02*
G37*
G36*
X419724D02*
X418476D01*
X417322Y1069461D01*
X416439Y1068578D01*
X415961Y1067424D01*
Y1066176D01*
X416439Y1065022D01*
X417322Y1064139D01*
X418476Y1063661D01*
X419724D01*
X420878Y1064139D01*
X421761Y1065022D01*
X422239Y1066176D01*
Y1067424D01*
X421761Y1068578D01*
X420878Y1069461D01*
X419724Y1069939D01*
D02*
G37*
G36*
X325744Y1053429D02*
X324496D01*
X323342Y1052951D01*
X322459Y1052068D01*
X321981Y1050914D01*
Y1049666D01*
X322459Y1048512D01*
X323342Y1047629D01*
X324496Y1047151D01*
X325744D01*
X326898Y1047629D01*
X327781Y1048512D01*
X328259Y1049666D01*
Y1050914D01*
X327781Y1052068D01*
X326898Y1052951D01*
X325744Y1053429D01*
D02*
G37*
G36*
X407024Y1044539D02*
X405776D01*
X404622Y1044061D01*
X403739Y1043178D01*
X403261Y1042024D01*
Y1040776D01*
X403739Y1039622D01*
X404622Y1038739D01*
X405776Y1038261D01*
X407024D01*
X408178Y1038739D01*
X409061Y1039622D01*
X409539Y1040776D01*
Y1042024D01*
X409061Y1043178D01*
X408178Y1044061D01*
X407024Y1044539D01*
D02*
G37*
G36*
X381624D02*
X380376D01*
X379222Y1044061D01*
X378339Y1043178D01*
X377861Y1042024D01*
Y1040776D01*
X378339Y1039622D01*
X379222Y1038739D01*
X380376Y1038261D01*
X381624D01*
X382778Y1038739D01*
X383661Y1039622D01*
X384139Y1040776D01*
Y1042024D01*
X383661Y1043178D01*
X382778Y1044061D01*
X381624Y1044539D01*
D02*
G37*
G36*
X356224D02*
X354976D01*
X353822Y1044061D01*
X352939Y1043178D01*
X352461Y1042024D01*
Y1040776D01*
X352939Y1039622D01*
X353822Y1038739D01*
X354976Y1038261D01*
X356224D01*
X357378Y1038739D01*
X358261Y1039622D01*
X358739Y1040776D01*
Y1042024D01*
X358261Y1043178D01*
X357378Y1044061D01*
X356224Y1044539D01*
D02*
G37*
G36*
X330824D02*
X329576D01*
X328422Y1044061D01*
X327539Y1043178D01*
X327061Y1042024D01*
Y1040776D01*
X327539Y1039622D01*
X328422Y1038739D01*
X329576Y1038261D01*
X330824D01*
X331978Y1038739D01*
X332861Y1039622D01*
X333339Y1040776D01*
Y1042024D01*
X332861Y1043178D01*
X331978Y1044061D01*
X330824Y1044539D01*
D02*
G37*
G36*
X305424D02*
X304176D01*
X303022Y1044061D01*
X302139Y1043178D01*
X301661Y1042024D01*
Y1040776D01*
X302139Y1039622D01*
X303022Y1038739D01*
X304176Y1038261D01*
X305424D01*
X306578Y1038739D01*
X307461Y1039622D01*
X307939Y1040776D01*
Y1042024D01*
X307461Y1043178D01*
X306578Y1044061D01*
X305424Y1044539D01*
D02*
G37*
G36*
X280024D02*
X278776D01*
X277622Y1044061D01*
X276739Y1043178D01*
X276261Y1042024D01*
Y1040776D01*
X276739Y1039622D01*
X277622Y1038739D01*
X278776Y1038261D01*
X280024D01*
X281178Y1038739D01*
X282061Y1039622D01*
X282539Y1040776D01*
Y1042024D01*
X282061Y1043178D01*
X281178Y1044061D01*
X280024Y1044539D01*
D02*
G37*
G36*
X445124Y1019139D02*
X443876D01*
X442722Y1018661D01*
X441839Y1017778D01*
X441361Y1016624D01*
Y1015376D01*
X441839Y1014222D01*
X442722Y1013339D01*
X443876Y1012861D01*
X445124D01*
X446278Y1013339D01*
X447161Y1014222D01*
X447639Y1015376D01*
Y1016624D01*
X447161Y1017778D01*
X446278Y1018661D01*
X445124Y1019139D01*
D02*
G37*
G36*
X343524D02*
X342276D01*
X341122Y1018661D01*
X340239Y1017778D01*
X339761Y1016624D01*
Y1015376D01*
X340239Y1014222D01*
X341122Y1013339D01*
X342276Y1012861D01*
X343524D01*
X344678Y1013339D01*
X345561Y1014222D01*
X346039Y1015376D01*
Y1016624D01*
X345561Y1017778D01*
X344678Y1018661D01*
X343524Y1019139D01*
D02*
G37*
G36*
X318124D02*
X316876D01*
X315722Y1018661D01*
X314839Y1017778D01*
X314361Y1016624D01*
Y1015376D01*
X314839Y1014222D01*
X315722Y1013339D01*
X316876Y1012861D01*
X318124D01*
X319278Y1013339D01*
X320161Y1014222D01*
X320639Y1015376D01*
Y1016624D01*
X320161Y1017778D01*
X319278Y1018661D01*
X318124Y1019139D01*
D02*
G37*
G36*
X286170Y1032919D02*
X282790D01*
X279524Y1032044D01*
X276597Y1030354D01*
X274206Y1027963D01*
X272516Y1025036D01*
X271641Y1021770D01*
Y1018390D01*
X272516Y1015124D01*
X274206Y1012197D01*
X276597Y1009806D01*
X279524Y1008116D01*
X282790Y1007241D01*
X286170D01*
X289436Y1008116D01*
X292363Y1009806D01*
X294754Y1012197D01*
X296444Y1015124D01*
X297319Y1018390D01*
Y1021770D01*
X296444Y1025036D01*
X294754Y1027963D01*
X292363Y1030354D01*
X289436Y1032044D01*
X286170Y1032919D01*
D02*
G37*
G36*
X457824Y993739D02*
X456576D01*
X455422Y993261D01*
X454539Y992378D01*
X454061Y991224D01*
Y989976D01*
X454539Y988822D01*
X455422Y987939D01*
X456576Y987461D01*
X457824D01*
X458978Y987939D01*
X459861Y988822D01*
X460339Y989976D01*
Y991224D01*
X459861Y992378D01*
X458978Y993261D01*
X457824Y993739D01*
D02*
G37*
G36*
X432424D02*
X431176D01*
X430022Y993261D01*
X429139Y992378D01*
X428661Y991224D01*
Y989976D01*
X429139Y988822D01*
X430022Y987939D01*
X431176Y987461D01*
X432424D01*
X433578Y987939D01*
X434461Y988822D01*
X434939Y989976D01*
Y991224D01*
X434461Y992378D01*
X433578Y993261D01*
X432424Y993739D01*
D02*
G37*
G36*
X407024D02*
X405776D01*
X404622Y993261D01*
X403739Y992378D01*
X403261Y991224D01*
Y989976D01*
X403739Y988822D01*
X404622Y987939D01*
X405776Y987461D01*
X407024D01*
X408178Y987939D01*
X409061Y988822D01*
X409539Y989976D01*
Y991224D01*
X409061Y992378D01*
X408178Y993261D01*
X407024Y993739D01*
D02*
G37*
G36*
X381624D02*
X380376D01*
X379222Y993261D01*
X378339Y992378D01*
X377861Y991224D01*
Y989976D01*
X378339Y988822D01*
X379222Y987939D01*
X380376Y987461D01*
X381624D01*
X382778Y987939D01*
X383661Y988822D01*
X384139Y989976D01*
Y991224D01*
X383661Y992378D01*
X382778Y993261D01*
X381624Y993739D01*
D02*
G37*
G36*
X356224D02*
X354976D01*
X353822Y993261D01*
X352939Y992378D01*
X352461Y991224D01*
Y989976D01*
X352939Y988822D01*
X353822Y987939D01*
X354976Y987461D01*
X356224D01*
X357378Y987939D01*
X358261Y988822D01*
X358739Y989976D01*
Y991224D01*
X358261Y992378D01*
X357378Y993261D01*
X356224Y993739D01*
D02*
G37*
G36*
X330824D02*
X329576D01*
X328422Y993261D01*
X327539Y992378D01*
X327061Y991224D01*
Y989976D01*
X327539Y988822D01*
X328422Y987939D01*
X329576Y987461D01*
X330824D01*
X331978Y987939D01*
X332861Y988822D01*
X333339Y989976D01*
Y991224D01*
X332861Y992378D01*
X331978Y993261D01*
X330824Y993739D01*
D02*
G37*
G36*
X305424D02*
X304176D01*
X303022Y993261D01*
X302139Y992378D01*
X301661Y991224D01*
Y989976D01*
X302139Y988822D01*
X303022Y987939D01*
X304176Y987461D01*
X305424D01*
X306578Y987939D01*
X307461Y988822D01*
X307939Y989976D01*
Y991224D01*
X307461Y992378D01*
X306578Y993261D01*
X305424Y993739D01*
D02*
G37*
G36*
X280024D02*
X278776D01*
X277622Y993261D01*
X276739Y992378D01*
X276261Y991224D01*
Y989976D01*
X276739Y988822D01*
X277622Y987939D01*
X278776Y987461D01*
X280024D01*
X281178Y987939D01*
X282061Y988822D01*
X282539Y989976D01*
Y991224D01*
X282061Y992378D01*
X281178Y993261D01*
X280024Y993739D01*
D02*
G37*
G36*
X445124Y968339D02*
X443876D01*
X442722Y967861D01*
X441839Y966978D01*
X441361Y965824D01*
Y964576D01*
X441839Y963422D01*
X442722Y962539D01*
X443876Y962061D01*
X445124D01*
X446278Y962539D01*
X447161Y963422D01*
X447639Y964576D01*
Y965824D01*
X447161Y966978D01*
X446278Y967861D01*
X445124Y968339D01*
D02*
G37*
G36*
X419724D02*
X418476D01*
X417322Y967861D01*
X416439Y966978D01*
X415961Y965824D01*
Y964576D01*
X416439Y963422D01*
X417322Y962539D01*
X418476Y962061D01*
X419724D01*
X420878Y962539D01*
X421761Y963422D01*
X422239Y964576D01*
Y965824D01*
X421761Y966978D01*
X420878Y967861D01*
X419724Y968339D01*
D02*
G37*
G36*
X394324D02*
X393076D01*
X391922Y967861D01*
X391039Y966978D01*
X390561Y965824D01*
Y964576D01*
X391039Y963422D01*
X391922Y962539D01*
X393076Y962061D01*
X394324D01*
X395478Y962539D01*
X396361Y963422D01*
X396839Y964576D01*
Y965824D01*
X396361Y966978D01*
X395478Y967861D01*
X394324Y968339D01*
D02*
G37*
G36*
X368924D02*
X367676D01*
X366522Y967861D01*
X365639Y966978D01*
X365161Y965824D01*
Y964576D01*
X365639Y963422D01*
X366522Y962539D01*
X367676Y962061D01*
X368924D01*
X370078Y962539D01*
X370961Y963422D01*
X371439Y964576D01*
Y965824D01*
X370961Y966978D01*
X370078Y967861D01*
X368924Y968339D01*
D02*
G37*
G36*
X343524D02*
X342276D01*
X341122Y967861D01*
X340239Y966978D01*
X339761Y965824D01*
Y964576D01*
X340239Y963422D01*
X341122Y962539D01*
X342276Y962061D01*
X343524D01*
X344678Y962539D01*
X345561Y963422D01*
X346039Y964576D01*
Y965824D01*
X345561Y966978D01*
X344678Y967861D01*
X343524Y968339D01*
D02*
G37*
G36*
X318124D02*
X316876D01*
X315722Y967861D01*
X314839Y966978D01*
X314361Y965824D01*
Y964576D01*
X314839Y963422D01*
X315722Y962539D01*
X316876Y962061D01*
X318124D01*
X319278Y962539D01*
X320161Y963422D01*
X320639Y964576D01*
Y965824D01*
X320161Y966978D01*
X319278Y967861D01*
X318124Y968339D01*
D02*
G37*
G36*
X292724D02*
X291476D01*
X290322Y967861D01*
X289439Y966978D01*
X288961Y965824D01*
Y964576D01*
X289439Y963422D01*
X290322Y962539D01*
X291476Y962061D01*
X292724D01*
X293878Y962539D01*
X294761Y963422D01*
X295239Y964576D01*
Y965824D01*
X294761Y966978D01*
X293878Y967861D01*
X292724Y968339D01*
D02*
G37*
G36*
X407024Y942939D02*
X405776D01*
X404622Y942461D01*
X403739Y941578D01*
X403261Y940424D01*
Y939176D01*
X403739Y938022D01*
X404622Y937139D01*
X405776Y936661D01*
X407024D01*
X408178Y937139D01*
X409061Y938022D01*
X409539Y939176D01*
Y940424D01*
X409061Y941578D01*
X408178Y942461D01*
X407024Y942939D01*
D02*
G37*
G36*
X381624D02*
X380376D01*
X379222Y942461D01*
X378339Y941578D01*
X377861Y940424D01*
Y939176D01*
X378339Y938022D01*
X379222Y937139D01*
X380376Y936661D01*
X381624D01*
X382778Y937139D01*
X383661Y938022D01*
X384139Y939176D01*
Y940424D01*
X383661Y941578D01*
X382778Y942461D01*
X381624Y942939D01*
D02*
G37*
G36*
X356224D02*
X354976D01*
X353822Y942461D01*
X352939Y941578D01*
X352461Y940424D01*
Y939176D01*
X352939Y938022D01*
X353822Y937139D01*
X354976Y936661D01*
X356224D01*
X357378Y937139D01*
X358261Y938022D01*
X358739Y939176D01*
Y940424D01*
X358261Y941578D01*
X357378Y942461D01*
X356224Y942939D01*
D02*
G37*
G36*
X330824D02*
X329576D01*
X328422Y942461D01*
X327539Y941578D01*
X327061Y940424D01*
Y939176D01*
X327539Y938022D01*
X328422Y937139D01*
X329576Y936661D01*
X330824D01*
X331978Y937139D01*
X332861Y938022D01*
X333339Y939176D01*
Y940424D01*
X332861Y941578D01*
X331978Y942461D01*
X330824Y942939D01*
D02*
G37*
G36*
X305424D02*
X304176D01*
X303022Y942461D01*
X302139Y941578D01*
X301661Y940424D01*
Y939176D01*
X302139Y938022D01*
X303022Y937139D01*
X304176Y936661D01*
X305424D01*
X306578Y937139D01*
X307461Y938022D01*
X307939Y939176D01*
Y940424D01*
X307461Y941578D01*
X306578Y942461D01*
X305424Y942939D01*
D02*
G37*
G36*
X280024D02*
X278776D01*
X277622Y942461D01*
X276739Y941578D01*
X276261Y940424D01*
Y939176D01*
X276739Y938022D01*
X277622Y937139D01*
X278776Y936661D01*
X280024D01*
X281178Y937139D01*
X282061Y938022D01*
X282539Y939176D01*
Y940424D01*
X282061Y941578D01*
X281178Y942461D01*
X280024Y942939D01*
D02*
G37*
G36*
X446316Y956719D02*
X442644D01*
X439043Y956003D01*
X435651Y954598D01*
X432598Y952558D01*
X430002Y949962D01*
X427962Y946909D01*
X426557Y943517D01*
X425841Y939916D01*
Y936244D01*
X426557Y932643D01*
X427962Y929251D01*
X430002Y926198D01*
X432598Y923602D01*
X435651Y921562D01*
X439043Y920157D01*
X442644Y919441D01*
X446316D01*
X449917Y920157D01*
X453309Y921562D01*
X456362Y923602D01*
X458958Y926198D01*
X460998Y929251D01*
X462403Y932643D01*
X463119Y936244D01*
Y939916D01*
X462403Y943517D01*
X460998Y946909D01*
X458958Y949962D01*
X456362Y952558D01*
X453309Y954598D01*
X449917Y956003D01*
X446316Y956719D01*
D02*
G37*
G36*
X445124Y917539D02*
X443876D01*
X442722Y917061D01*
X441839Y916178D01*
X441361Y915024D01*
Y913776D01*
X441839Y912622D01*
X442722Y911739D01*
X443876Y911261D01*
X445124D01*
X446278Y911739D01*
X447161Y912622D01*
X447639Y913776D01*
Y915024D01*
X447161Y916178D01*
X446278Y917061D01*
X445124Y917539D01*
D02*
G37*
G36*
X419724D02*
X418476D01*
X417322Y917061D01*
X416439Y916178D01*
X415961Y915024D01*
Y913776D01*
X416439Y912622D01*
X417322Y911739D01*
X418476Y911261D01*
X419724D01*
X420878Y911739D01*
X421761Y912622D01*
X422239Y913776D01*
Y915024D01*
X421761Y916178D01*
X420878Y917061D01*
X419724Y917539D01*
D02*
G37*
G36*
X394324D02*
X393076D01*
X391922Y917061D01*
X391039Y916178D01*
X390561Y915024D01*
Y913776D01*
X391039Y912622D01*
X391922Y911739D01*
X393076Y911261D01*
X394324D01*
X395478Y911739D01*
X396361Y912622D01*
X396839Y913776D01*
Y915024D01*
X396361Y916178D01*
X395478Y917061D01*
X394324Y917539D01*
D02*
G37*
G36*
X368924D02*
X367676D01*
X366522Y917061D01*
X365639Y916178D01*
X365161Y915024D01*
Y913776D01*
X365639Y912622D01*
X366522Y911739D01*
X367676Y911261D01*
X368924D01*
X370078Y911739D01*
X370961Y912622D01*
X371439Y913776D01*
Y915024D01*
X370961Y916178D01*
X370078Y917061D01*
X368924Y917539D01*
D02*
G37*
G36*
X343524D02*
X342276D01*
X341122Y917061D01*
X340239Y916178D01*
X339761Y915024D01*
Y913776D01*
X340239Y912622D01*
X341122Y911739D01*
X342276Y911261D01*
X343524D01*
X344678Y911739D01*
X345561Y912622D01*
X346039Y913776D01*
Y915024D01*
X345561Y916178D01*
X344678Y917061D01*
X343524Y917539D01*
D02*
G37*
G36*
X318124D02*
X316876D01*
X315722Y917061D01*
X314839Y916178D01*
X314361Y915024D01*
Y913776D01*
X314839Y912622D01*
X315722Y911739D01*
X316876Y911261D01*
X318124D01*
X319278Y911739D01*
X320161Y912622D01*
X320639Y913776D01*
Y915024D01*
X320161Y916178D01*
X319278Y917061D01*
X318124Y917539D01*
D02*
G37*
G36*
X292724D02*
X291476D01*
X290322Y917061D01*
X289439Y916178D01*
X288961Y915024D01*
Y913776D01*
X289439Y912622D01*
X290322Y911739D01*
X291476Y911261D01*
X292724D01*
X293878Y911739D01*
X294761Y912622D01*
X295239Y913776D01*
Y915024D01*
X294761Y916178D01*
X293878Y917061D01*
X292724Y917539D01*
D02*
G37*
G36*
X457824Y892139D02*
X456576D01*
X455422Y891661D01*
X454539Y890778D01*
X454061Y889624D01*
Y888376D01*
X454539Y887222D01*
X455422Y886339D01*
X456576Y885861D01*
X457824D01*
X458978Y886339D01*
X459861Y887222D01*
X460339Y888376D01*
Y889624D01*
X459861Y890778D01*
X458978Y891661D01*
X457824Y892139D01*
D02*
G37*
G36*
X432424D02*
X431176D01*
X430022Y891661D01*
X429139Y890778D01*
X428661Y889624D01*
Y888376D01*
X429139Y887222D01*
X430022Y886339D01*
X431176Y885861D01*
X432424D01*
X433578Y886339D01*
X434461Y887222D01*
X434939Y888376D01*
Y889624D01*
X434461Y890778D01*
X433578Y891661D01*
X432424Y892139D01*
D02*
G37*
G36*
X407024D02*
X405776D01*
X404622Y891661D01*
X403739Y890778D01*
X403261Y889624D01*
Y888376D01*
X403739Y887222D01*
X404622Y886339D01*
X405776Y885861D01*
X407024D01*
X408178Y886339D01*
X409061Y887222D01*
X409539Y888376D01*
Y889624D01*
X409061Y890778D01*
X408178Y891661D01*
X407024Y892139D01*
D02*
G37*
G36*
X381624D02*
X380376D01*
X379222Y891661D01*
X378339Y890778D01*
X377861Y889624D01*
Y888376D01*
X378339Y887222D01*
X379222Y886339D01*
X380376Y885861D01*
X381624D01*
X382778Y886339D01*
X383661Y887222D01*
X384139Y888376D01*
Y889624D01*
X383661Y890778D01*
X382778Y891661D01*
X381624Y892139D01*
D02*
G37*
G36*
X356224D02*
X354976D01*
X353822Y891661D01*
X352939Y890778D01*
X352461Y889624D01*
Y888376D01*
X352939Y887222D01*
X353822Y886339D01*
X354976Y885861D01*
X356224D01*
X357378Y886339D01*
X358261Y887222D01*
X358739Y888376D01*
Y889624D01*
X358261Y890778D01*
X357378Y891661D01*
X356224Y892139D01*
D02*
G37*
G36*
X330824D02*
X329576D01*
X328422Y891661D01*
X327539Y890778D01*
X327061Y889624D01*
Y888376D01*
X327539Y887222D01*
X328422Y886339D01*
X329576Y885861D01*
X330824D01*
X331978Y886339D01*
X332861Y887222D01*
X333339Y888376D01*
Y889624D01*
X332861Y890778D01*
X331978Y891661D01*
X330824Y892139D01*
D02*
G37*
G36*
X305424D02*
X304176D01*
X303022Y891661D01*
X302139Y890778D01*
X301661Y889624D01*
Y888376D01*
X302139Y887222D01*
X303022Y886339D01*
X304176Y885861D01*
X305424D01*
X306578Y886339D01*
X307461Y887222D01*
X307939Y888376D01*
Y889624D01*
X307461Y890778D01*
X306578Y891661D01*
X305424Y892139D01*
D02*
G37*
G36*
X280024D02*
X278776D01*
X277622Y891661D01*
X276739Y890778D01*
X276261Y889624D01*
Y888376D01*
X276739Y887222D01*
X277622Y886339D01*
X278776Y885861D01*
X280024D01*
X281178Y886339D01*
X282061Y887222D01*
X282539Y888376D01*
Y889624D01*
X282061Y890778D01*
X281178Y891661D01*
X280024Y892139D01*
D02*
G37*
G36*
X445124Y866739D02*
X443876D01*
X442722Y866261D01*
X441839Y865378D01*
X441361Y864224D01*
Y862976D01*
X441839Y861822D01*
X442722Y860939D01*
X443876Y860461D01*
X445124D01*
X446278Y860939D01*
X447161Y861822D01*
X447639Y862976D01*
Y864224D01*
X447161Y865378D01*
X446278Y866261D01*
X445124Y866739D01*
D02*
G37*
G36*
X419724D02*
X418476D01*
X417322Y866261D01*
X416439Y865378D01*
X415961Y864224D01*
Y862976D01*
X416439Y861822D01*
X417322Y860939D01*
X418476Y860461D01*
X419724D01*
X420878Y860939D01*
X421761Y861822D01*
X422239Y862976D01*
Y864224D01*
X421761Y865378D01*
X420878Y866261D01*
X419724Y866739D01*
D02*
G37*
G36*
X394324D02*
X393076D01*
X391922Y866261D01*
X391039Y865378D01*
X390561Y864224D01*
Y862976D01*
X391039Y861822D01*
X391922Y860939D01*
X393076Y860461D01*
X394324D01*
X395478Y860939D01*
X396361Y861822D01*
X396839Y862976D01*
Y864224D01*
X396361Y865378D01*
X395478Y866261D01*
X394324Y866739D01*
D02*
G37*
G36*
X368924D02*
X367676D01*
X366522Y866261D01*
X365639Y865378D01*
X365161Y864224D01*
Y862976D01*
X365639Y861822D01*
X366522Y860939D01*
X367676Y860461D01*
X368924D01*
X370078Y860939D01*
X370961Y861822D01*
X371439Y862976D01*
Y864224D01*
X370961Y865378D01*
X370078Y866261D01*
X368924Y866739D01*
D02*
G37*
G36*
X343524D02*
X342276D01*
X341122Y866261D01*
X340239Y865378D01*
X339761Y864224D01*
Y862976D01*
X340239Y861822D01*
X341122Y860939D01*
X342276Y860461D01*
X343524D01*
X344678Y860939D01*
X345561Y861822D01*
X346039Y862976D01*
Y864224D01*
X345561Y865378D01*
X344678Y866261D01*
X343524Y866739D01*
D02*
G37*
G36*
X318124D02*
X316876D01*
X315722Y866261D01*
X314839Y865378D01*
X314361Y864224D01*
Y862976D01*
X314839Y861822D01*
X315722Y860939D01*
X316876Y860461D01*
X318124D01*
X319278Y860939D01*
X320161Y861822D01*
X320639Y862976D01*
Y864224D01*
X320161Y865378D01*
X319278Y866261D01*
X318124Y866739D01*
D02*
G37*
G36*
X292724D02*
X291476D01*
X290322Y866261D01*
X289439Y865378D01*
X288961Y864224D01*
Y862976D01*
X289439Y861822D01*
X290322Y860939D01*
X291476Y860461D01*
X292724D01*
X293878Y860939D01*
X294761Y861822D01*
X295239Y862976D01*
Y864224D01*
X294761Y865378D01*
X293878Y866261D01*
X292724Y866739D01*
D02*
G37*
G36*
X457824Y841339D02*
X456576D01*
X455422Y840861D01*
X454539Y839978D01*
X454061Y838824D01*
Y837576D01*
X454539Y836422D01*
X455422Y835539D01*
X456576Y835061D01*
X457824D01*
X458978Y835539D01*
X459861Y836422D01*
X460339Y837576D01*
Y838824D01*
X459861Y839978D01*
X458978Y840861D01*
X457824Y841339D01*
D02*
G37*
G36*
X432424D02*
X431176D01*
X430022Y840861D01*
X429139Y839978D01*
X428661Y838824D01*
Y837576D01*
X429139Y836422D01*
X430022Y835539D01*
X431176Y835061D01*
X432424D01*
X433578Y835539D01*
X434461Y836422D01*
X434939Y837576D01*
Y838824D01*
X434461Y839978D01*
X433578Y840861D01*
X432424Y841339D01*
D02*
G37*
G36*
X407024D02*
X405776D01*
X404622Y840861D01*
X403739Y839978D01*
X403261Y838824D01*
Y837576D01*
X403739Y836422D01*
X404622Y835539D01*
X405776Y835061D01*
X407024D01*
X408178Y835539D01*
X409061Y836422D01*
X409539Y837576D01*
Y838824D01*
X409061Y839978D01*
X408178Y840861D01*
X407024Y841339D01*
D02*
G37*
G36*
X381624D02*
X380376D01*
X379222Y840861D01*
X378339Y839978D01*
X377861Y838824D01*
Y837576D01*
X378339Y836422D01*
X379222Y835539D01*
X380376Y835061D01*
X381624D01*
X382778Y835539D01*
X383661Y836422D01*
X384139Y837576D01*
Y838824D01*
X383661Y839978D01*
X382778Y840861D01*
X381624Y841339D01*
D02*
G37*
G36*
X356224D02*
X354976D01*
X353822Y840861D01*
X352939Y839978D01*
X352461Y838824D01*
Y837576D01*
X352939Y836422D01*
X353822Y835539D01*
X354976Y835061D01*
X356224D01*
X357378Y835539D01*
X358261Y836422D01*
X358739Y837576D01*
Y838824D01*
X358261Y839978D01*
X357378Y840861D01*
X356224Y841339D01*
D02*
G37*
G36*
X330824D02*
X329576D01*
X328422Y840861D01*
X327539Y839978D01*
X327061Y838824D01*
Y837576D01*
X327539Y836422D01*
X328422Y835539D01*
X329576Y835061D01*
X330824D01*
X331978Y835539D01*
X332861Y836422D01*
X333339Y837576D01*
Y838824D01*
X332861Y839978D01*
X331978Y840861D01*
X330824Y841339D01*
D02*
G37*
G36*
X305424D02*
X304176D01*
X303022Y840861D01*
X302139Y839978D01*
X301661Y838824D01*
Y837576D01*
X302139Y836422D01*
X303022Y835539D01*
X304176Y835061D01*
X305424D01*
X306578Y835539D01*
X307461Y836422D01*
X307939Y837576D01*
Y838824D01*
X307461Y839978D01*
X306578Y840861D01*
X305424Y841339D01*
D02*
G37*
G36*
X280024D02*
X278776D01*
X277622Y840861D01*
X276739Y839978D01*
X276261Y838824D01*
Y837576D01*
X276739Y836422D01*
X277622Y835539D01*
X278776Y835061D01*
X280024D01*
X281178Y835539D01*
X282061Y836422D01*
X282539Y837576D01*
Y838824D01*
X282061Y839978D01*
X281178Y840861D01*
X280024Y841339D01*
D02*
G37*
G36*
X445124Y815939D02*
X443876D01*
X442722Y815461D01*
X441839Y814578D01*
X441361Y813424D01*
Y812176D01*
X441839Y811022D01*
X442722Y810139D01*
X443876Y809661D01*
X445124D01*
X446278Y810139D01*
X447161Y811022D01*
X447639Y812176D01*
Y813424D01*
X447161Y814578D01*
X446278Y815461D01*
X445124Y815939D01*
D02*
G37*
G36*
X419724D02*
X418476D01*
X417322Y815461D01*
X416439Y814578D01*
X415961Y813424D01*
Y812176D01*
X416439Y811022D01*
X417322Y810139D01*
X418476Y809661D01*
X419724D01*
X420878Y810139D01*
X421761Y811022D01*
X422239Y812176D01*
Y813424D01*
X421761Y814578D01*
X420878Y815461D01*
X419724Y815939D01*
D02*
G37*
G36*
X394324D02*
X393076D01*
X391922Y815461D01*
X391039Y814578D01*
X390561Y813424D01*
Y812176D01*
X391039Y811022D01*
X391922Y810139D01*
X393076Y809661D01*
X394324D01*
X395478Y810139D01*
X396361Y811022D01*
X396839Y812176D01*
Y813424D01*
X396361Y814578D01*
X395478Y815461D01*
X394324Y815939D01*
D02*
G37*
G36*
X368924D02*
X367676D01*
X366522Y815461D01*
X365639Y814578D01*
X365161Y813424D01*
Y812176D01*
X365639Y811022D01*
X366522Y810139D01*
X367676Y809661D01*
X368924D01*
X370078Y810139D01*
X370961Y811022D01*
X371439Y812176D01*
Y813424D01*
X370961Y814578D01*
X370078Y815461D01*
X368924Y815939D01*
D02*
G37*
G36*
X343524D02*
X342276D01*
X341122Y815461D01*
X340239Y814578D01*
X339761Y813424D01*
Y812176D01*
X340239Y811022D01*
X341122Y810139D01*
X342276Y809661D01*
X343524D01*
X344678Y810139D01*
X345561Y811022D01*
X346039Y812176D01*
Y813424D01*
X345561Y814578D01*
X344678Y815461D01*
X343524Y815939D01*
D02*
G37*
G36*
X318124D02*
X316876D01*
X315722Y815461D01*
X314839Y814578D01*
X314361Y813424D01*
Y812176D01*
X314839Y811022D01*
X315722Y810139D01*
X316876Y809661D01*
X318124D01*
X319278Y810139D01*
X320161Y811022D01*
X320639Y812176D01*
Y813424D01*
X320161Y814578D01*
X319278Y815461D01*
X318124Y815939D01*
D02*
G37*
G36*
X292724D02*
X291476D01*
X290322Y815461D01*
X289439Y814578D01*
X288961Y813424D01*
Y812176D01*
X289439Y811022D01*
X290322Y810139D01*
X291476Y809661D01*
X292724D01*
X293878Y810139D01*
X294761Y811022D01*
X295239Y812176D01*
Y813424D01*
X294761Y814578D01*
X293878Y815461D01*
X292724Y815939D01*
D02*
G37*
G36*
X457824Y790539D02*
X456576D01*
X455422Y790061D01*
X454539Y789178D01*
X454061Y788024D01*
Y786776D01*
X454539Y785622D01*
X455422Y784739D01*
X456576Y784261D01*
X457824D01*
X458978Y784739D01*
X459861Y785622D01*
X460339Y786776D01*
Y788024D01*
X459861Y789178D01*
X458978Y790061D01*
X457824Y790539D01*
D02*
G37*
G36*
X432424D02*
X431176D01*
X430022Y790061D01*
X429139Y789178D01*
X428661Y788024D01*
Y786776D01*
X429139Y785622D01*
X430022Y784739D01*
X431176Y784261D01*
X432424D01*
X433578Y784739D01*
X434461Y785622D01*
X434939Y786776D01*
Y788024D01*
X434461Y789178D01*
X433578Y790061D01*
X432424Y790539D01*
D02*
G37*
G36*
X407024D02*
X405776D01*
X404622Y790061D01*
X403739Y789178D01*
X403261Y788024D01*
Y786776D01*
X403739Y785622D01*
X404622Y784739D01*
X405776Y784261D01*
X407024D01*
X408178Y784739D01*
X409061Y785622D01*
X409539Y786776D01*
Y788024D01*
X409061Y789178D01*
X408178Y790061D01*
X407024Y790539D01*
D02*
G37*
G36*
X381624D02*
X380376D01*
X379222Y790061D01*
X378339Y789178D01*
X377861Y788024D01*
Y786776D01*
X378339Y785622D01*
X379222Y784739D01*
X380376Y784261D01*
X381624D01*
X382778Y784739D01*
X383661Y785622D01*
X384139Y786776D01*
Y788024D01*
X383661Y789178D01*
X382778Y790061D01*
X381624Y790539D01*
D02*
G37*
G36*
X356224D02*
X354976D01*
X353822Y790061D01*
X352939Y789178D01*
X352461Y788024D01*
Y786776D01*
X352939Y785622D01*
X353822Y784739D01*
X354976Y784261D01*
X356224D01*
X357378Y784739D01*
X358261Y785622D01*
X358739Y786776D01*
Y788024D01*
X358261Y789178D01*
X357378Y790061D01*
X356224Y790539D01*
D02*
G37*
G36*
X330824D02*
X329576D01*
X328422Y790061D01*
X327539Y789178D01*
X327061Y788024D01*
Y786776D01*
X327539Y785622D01*
X328422Y784739D01*
X329576Y784261D01*
X330824D01*
X331978Y784739D01*
X332861Y785622D01*
X333339Y786776D01*
Y788024D01*
X332861Y789178D01*
X331978Y790061D01*
X330824Y790539D01*
D02*
G37*
G36*
X305424D02*
X304176D01*
X303022Y790061D01*
X302139Y789178D01*
X301661Y788024D01*
Y786776D01*
X302139Y785622D01*
X303022Y784739D01*
X304176Y784261D01*
X305424D01*
X306578Y784739D01*
X307461Y785622D01*
X307939Y786776D01*
Y788024D01*
X307461Y789178D01*
X306578Y790061D01*
X305424Y790539D01*
D02*
G37*
G36*
X280024D02*
X278776D01*
X277622Y790061D01*
X276739Y789178D01*
X276261Y788024D01*
Y786776D01*
X276739Y785622D01*
X277622Y784739D01*
X278776Y784261D01*
X280024D01*
X281178Y784739D01*
X282061Y785622D01*
X282539Y786776D01*
Y788024D01*
X282061Y789178D01*
X281178Y790061D01*
X280024Y790539D01*
D02*
G37*
G36*
X445124Y765139D02*
X443876D01*
X442722Y764661D01*
X441839Y763778D01*
X441361Y762624D01*
Y761376D01*
X441839Y760222D01*
X442722Y759339D01*
X443876Y758861D01*
X445124D01*
X446278Y759339D01*
X447161Y760222D01*
X447639Y761376D01*
Y762624D01*
X447161Y763778D01*
X446278Y764661D01*
X445124Y765139D01*
D02*
G37*
G36*
X419724D02*
X418476D01*
X417322Y764661D01*
X416439Y763778D01*
X415961Y762624D01*
Y761376D01*
X416439Y760222D01*
X417322Y759339D01*
X418476Y758861D01*
X419724D01*
X420878Y759339D01*
X421761Y760222D01*
X422239Y761376D01*
Y762624D01*
X421761Y763778D01*
X420878Y764661D01*
X419724Y765139D01*
D02*
G37*
G36*
X394324D02*
X393076D01*
X391922Y764661D01*
X391039Y763778D01*
X390561Y762624D01*
Y761376D01*
X391039Y760222D01*
X391922Y759339D01*
X393076Y758861D01*
X394324D01*
X395478Y759339D01*
X396361Y760222D01*
X396839Y761376D01*
Y762624D01*
X396361Y763778D01*
X395478Y764661D01*
X394324Y765139D01*
D02*
G37*
G36*
X368924D02*
X367676D01*
X366522Y764661D01*
X365639Y763778D01*
X365161Y762624D01*
Y761376D01*
X365639Y760222D01*
X366522Y759339D01*
X367676Y758861D01*
X368924D01*
X370078Y759339D01*
X370961Y760222D01*
X371439Y761376D01*
Y762624D01*
X370961Y763778D01*
X370078Y764661D01*
X368924Y765139D01*
D02*
G37*
G36*
X343524D02*
X342276D01*
X341122Y764661D01*
X340239Y763778D01*
X339761Y762624D01*
Y761376D01*
X340239Y760222D01*
X341122Y759339D01*
X342276Y758861D01*
X343524D01*
X344678Y759339D01*
X345561Y760222D01*
X346039Y761376D01*
Y762624D01*
X345561Y763778D01*
X344678Y764661D01*
X343524Y765139D01*
D02*
G37*
G36*
X318124D02*
X316876D01*
X315722Y764661D01*
X314839Y763778D01*
X314361Y762624D01*
Y761376D01*
X314839Y760222D01*
X315722Y759339D01*
X316876Y758861D01*
X318124D01*
X319278Y759339D01*
X320161Y760222D01*
X320639Y761376D01*
Y762624D01*
X320161Y763778D01*
X319278Y764661D01*
X318124Y765139D01*
D02*
G37*
G36*
X292724D02*
X291476D01*
X290322Y764661D01*
X289439Y763778D01*
X288961Y762624D01*
Y761376D01*
X289439Y760222D01*
X290322Y759339D01*
X291476Y758861D01*
X292724D01*
X293878Y759339D01*
X294761Y760222D01*
X295239Y761376D01*
Y762624D01*
X294761Y763778D01*
X293878Y764661D01*
X292724Y765139D01*
D02*
G37*
G36*
X457824Y739739D02*
X456576D01*
X455422Y739261D01*
X454539Y738378D01*
X454061Y737224D01*
Y735976D01*
X454539Y734822D01*
X455422Y733939D01*
X456576Y733461D01*
X457824D01*
X458978Y733939D01*
X459861Y734822D01*
X460339Y735976D01*
Y737224D01*
X459861Y738378D01*
X458978Y739261D01*
X457824Y739739D01*
D02*
G37*
G36*
X432424D02*
X431176D01*
X430022Y739261D01*
X429139Y738378D01*
X428661Y737224D01*
Y735976D01*
X429139Y734822D01*
X430022Y733939D01*
X431176Y733461D01*
X432424D01*
X433578Y733939D01*
X434461Y734822D01*
X434939Y735976D01*
Y737224D01*
X434461Y738378D01*
X433578Y739261D01*
X432424Y739739D01*
D02*
G37*
G36*
X407024D02*
X405776D01*
X404622Y739261D01*
X403739Y738378D01*
X403261Y737224D01*
Y735976D01*
X403739Y734822D01*
X404622Y733939D01*
X405776Y733461D01*
X407024D01*
X408178Y733939D01*
X409061Y734822D01*
X409539Y735976D01*
Y737224D01*
X409061Y738378D01*
X408178Y739261D01*
X407024Y739739D01*
D02*
G37*
G36*
X381624D02*
X380376D01*
X379222Y739261D01*
X378339Y738378D01*
X377861Y737224D01*
Y735976D01*
X378339Y734822D01*
X379222Y733939D01*
X380376Y733461D01*
X381624D01*
X382778Y733939D01*
X383661Y734822D01*
X384139Y735976D01*
Y737224D01*
X383661Y738378D01*
X382778Y739261D01*
X381624Y739739D01*
D02*
G37*
G36*
X356224D02*
X354976D01*
X353822Y739261D01*
X352939Y738378D01*
X352461Y737224D01*
Y735976D01*
X352939Y734822D01*
X353822Y733939D01*
X354976Y733461D01*
X356224D01*
X357378Y733939D01*
X358261Y734822D01*
X358739Y735976D01*
Y737224D01*
X358261Y738378D01*
X357378Y739261D01*
X356224Y739739D01*
D02*
G37*
G36*
X330824D02*
X329576D01*
X328422Y739261D01*
X327539Y738378D01*
X327061Y737224D01*
Y735976D01*
X327539Y734822D01*
X328422Y733939D01*
X329576Y733461D01*
X330824D01*
X331978Y733939D01*
X332861Y734822D01*
X333339Y735976D01*
Y737224D01*
X332861Y738378D01*
X331978Y739261D01*
X330824Y739739D01*
D02*
G37*
G36*
X305424D02*
X304176D01*
X303022Y739261D01*
X302139Y738378D01*
X301661Y737224D01*
Y735976D01*
X302139Y734822D01*
X303022Y733939D01*
X304176Y733461D01*
X305424D01*
X306578Y733939D01*
X307461Y734822D01*
X307939Y735976D01*
Y737224D01*
X307461Y738378D01*
X306578Y739261D01*
X305424Y739739D01*
D02*
G37*
G36*
X280024D02*
X278776D01*
X277622Y739261D01*
X276739Y738378D01*
X276261Y737224D01*
Y735976D01*
X276739Y734822D01*
X277622Y733939D01*
X278776Y733461D01*
X280024D01*
X281178Y733939D01*
X282061Y734822D01*
X282539Y735976D01*
Y737224D01*
X282061Y738378D01*
X281178Y739261D01*
X280024Y739739D01*
D02*
G37*
G36*
X445124Y714339D02*
X443876D01*
X442722Y713861D01*
X441839Y712978D01*
X441361Y711824D01*
Y710576D01*
X441839Y709422D01*
X442722Y708539D01*
X443876Y708061D01*
X445124D01*
X446278Y708539D01*
X447161Y709422D01*
X447639Y710576D01*
Y711824D01*
X447161Y712978D01*
X446278Y713861D01*
X445124Y714339D01*
D02*
G37*
G36*
X419724D02*
X418476D01*
X417322Y713861D01*
X416439Y712978D01*
X415961Y711824D01*
Y710576D01*
X416439Y709422D01*
X417322Y708539D01*
X418476Y708061D01*
X419724D01*
X420878Y708539D01*
X421761Y709422D01*
X422239Y710576D01*
Y711824D01*
X421761Y712978D01*
X420878Y713861D01*
X419724Y714339D01*
D02*
G37*
G36*
X394324D02*
X393076D01*
X391922Y713861D01*
X391039Y712978D01*
X390561Y711824D01*
Y710576D01*
X391039Y709422D01*
X391922Y708539D01*
X393076Y708061D01*
X394324D01*
X395478Y708539D01*
X396361Y709422D01*
X396839Y710576D01*
Y711824D01*
X396361Y712978D01*
X395478Y713861D01*
X394324Y714339D01*
D02*
G37*
G36*
X368924D02*
X367676D01*
X366522Y713861D01*
X365639Y712978D01*
X365161Y711824D01*
Y710576D01*
X365639Y709422D01*
X366522Y708539D01*
X367676Y708061D01*
X368924D01*
X370078Y708539D01*
X370961Y709422D01*
X371439Y710576D01*
Y711824D01*
X370961Y712978D01*
X370078Y713861D01*
X368924Y714339D01*
D02*
G37*
G36*
X343524D02*
X342276D01*
X341122Y713861D01*
X340239Y712978D01*
X339761Y711824D01*
Y710576D01*
X340239Y709422D01*
X341122Y708539D01*
X342276Y708061D01*
X343524D01*
X344678Y708539D01*
X345561Y709422D01*
X346039Y710576D01*
Y711824D01*
X345561Y712978D01*
X344678Y713861D01*
X343524Y714339D01*
D02*
G37*
G36*
X318124D02*
X316876D01*
X315722Y713861D01*
X314839Y712978D01*
X314361Y711824D01*
Y710576D01*
X314839Y709422D01*
X315722Y708539D01*
X316876Y708061D01*
X318124D01*
X319278Y708539D01*
X320161Y709422D01*
X320639Y710576D01*
Y711824D01*
X320161Y712978D01*
X319278Y713861D01*
X318124Y714339D01*
D02*
G37*
G36*
X292724D02*
X291476D01*
X290322Y713861D01*
X289439Y712978D01*
X288961Y711824D01*
Y710576D01*
X289439Y709422D01*
X290322Y708539D01*
X291476Y708061D01*
X292724D01*
X293878Y708539D01*
X294761Y709422D01*
X295239Y710576D01*
Y711824D01*
X294761Y712978D01*
X293878Y713861D01*
X292724Y714339D01*
D02*
G37*
G36*
X457824Y688939D02*
X456576D01*
X455422Y688461D01*
X454539Y687578D01*
X454061Y686424D01*
Y685176D01*
X454539Y684022D01*
X455422Y683139D01*
X456576Y682661D01*
X457824D01*
X458978Y683139D01*
X459861Y684022D01*
X460339Y685176D01*
Y686424D01*
X459861Y687578D01*
X458978Y688461D01*
X457824Y688939D01*
D02*
G37*
G36*
X432424D02*
X431176D01*
X430022Y688461D01*
X429139Y687578D01*
X428661Y686424D01*
Y685176D01*
X429139Y684022D01*
X430022Y683139D01*
X431176Y682661D01*
X432424D01*
X433578Y683139D01*
X434461Y684022D01*
X434939Y685176D01*
Y686424D01*
X434461Y687578D01*
X433578Y688461D01*
X432424Y688939D01*
D02*
G37*
G36*
X407024D02*
X405776D01*
X404622Y688461D01*
X403739Y687578D01*
X403261Y686424D01*
Y685176D01*
X403739Y684022D01*
X404622Y683139D01*
X405776Y682661D01*
X407024D01*
X408178Y683139D01*
X409061Y684022D01*
X409539Y685176D01*
Y686424D01*
X409061Y687578D01*
X408178Y688461D01*
X407024Y688939D01*
D02*
G37*
G36*
X381624D02*
X380376D01*
X379222Y688461D01*
X378339Y687578D01*
X377861Y686424D01*
Y685176D01*
X378339Y684022D01*
X379222Y683139D01*
X380376Y682661D01*
X381624D01*
X382778Y683139D01*
X383661Y684022D01*
X384139Y685176D01*
Y686424D01*
X383661Y687578D01*
X382778Y688461D01*
X381624Y688939D01*
D02*
G37*
G36*
X356224D02*
X354976D01*
X353822Y688461D01*
X352939Y687578D01*
X352461Y686424D01*
Y685176D01*
X352939Y684022D01*
X353822Y683139D01*
X354976Y682661D01*
X356224D01*
X357378Y683139D01*
X358261Y684022D01*
X358739Y685176D01*
Y686424D01*
X358261Y687578D01*
X357378Y688461D01*
X356224Y688939D01*
D02*
G37*
G36*
X330824D02*
X329576D01*
X328422Y688461D01*
X327539Y687578D01*
X327061Y686424D01*
Y685176D01*
X327539Y684022D01*
X328422Y683139D01*
X329576Y682661D01*
X330824D01*
X331978Y683139D01*
X332861Y684022D01*
X333339Y685176D01*
Y686424D01*
X332861Y687578D01*
X331978Y688461D01*
X330824Y688939D01*
D02*
G37*
G36*
X305424D02*
X304176D01*
X303022Y688461D01*
X302139Y687578D01*
X301661Y686424D01*
Y685176D01*
X302139Y684022D01*
X303022Y683139D01*
X304176Y682661D01*
X305424D01*
X306578Y683139D01*
X307461Y684022D01*
X307939Y685176D01*
Y686424D01*
X307461Y687578D01*
X306578Y688461D01*
X305424Y688939D01*
D02*
G37*
G36*
X280024D02*
X278776D01*
X277622Y688461D01*
X276739Y687578D01*
X276261Y686424D01*
Y685176D01*
X276739Y684022D01*
X277622Y683139D01*
X278776Y682661D01*
X280024D01*
X281178Y683139D01*
X282061Y684022D01*
X282539Y685176D01*
Y686424D01*
X282061Y687578D01*
X281178Y688461D01*
X280024Y688939D01*
D02*
G37*
G36*
X445124Y663539D02*
X443876D01*
X442722Y663061D01*
X441839Y662178D01*
X441361Y661024D01*
Y659776D01*
X441839Y658622D01*
X442722Y657739D01*
X443876Y657261D01*
X445124D01*
X446278Y657739D01*
X447161Y658622D01*
X447639Y659776D01*
Y661024D01*
X447161Y662178D01*
X446278Y663061D01*
X445124Y663539D01*
D02*
G37*
G36*
X419724D02*
X418476D01*
X417322Y663061D01*
X416439Y662178D01*
X415961Y661024D01*
Y659776D01*
X416439Y658622D01*
X417322Y657739D01*
X418476Y657261D01*
X419724D01*
X420878Y657739D01*
X421761Y658622D01*
X422239Y659776D01*
Y661024D01*
X421761Y662178D01*
X420878Y663061D01*
X419724Y663539D01*
D02*
G37*
G36*
X394324D02*
X393076D01*
X391922Y663061D01*
X391039Y662178D01*
X390561Y661024D01*
Y659776D01*
X391039Y658622D01*
X391922Y657739D01*
X393076Y657261D01*
X394324D01*
X395478Y657739D01*
X396361Y658622D01*
X396839Y659776D01*
Y661024D01*
X396361Y662178D01*
X395478Y663061D01*
X394324Y663539D01*
D02*
G37*
G36*
X368924D02*
X367676D01*
X366522Y663061D01*
X365639Y662178D01*
X365161Y661024D01*
Y659776D01*
X365639Y658622D01*
X366522Y657739D01*
X367676Y657261D01*
X368924D01*
X370078Y657739D01*
X370961Y658622D01*
X371439Y659776D01*
Y661024D01*
X370961Y662178D01*
X370078Y663061D01*
X368924Y663539D01*
D02*
G37*
G36*
X343524D02*
X342276D01*
X341122Y663061D01*
X340239Y662178D01*
X339761Y661024D01*
Y659776D01*
X340239Y658622D01*
X341122Y657739D01*
X342276Y657261D01*
X343524D01*
X344678Y657739D01*
X345561Y658622D01*
X346039Y659776D01*
Y661024D01*
X345561Y662178D01*
X344678Y663061D01*
X343524Y663539D01*
D02*
G37*
G36*
X318124D02*
X316876D01*
X315722Y663061D01*
X314839Y662178D01*
X314361Y661024D01*
Y659776D01*
X314839Y658622D01*
X315722Y657739D01*
X316876Y657261D01*
X318124D01*
X319278Y657739D01*
X320161Y658622D01*
X320639Y659776D01*
Y661024D01*
X320161Y662178D01*
X319278Y663061D01*
X318124Y663539D01*
D02*
G37*
G36*
X292724D02*
X291476D01*
X290322Y663061D01*
X289439Y662178D01*
X288961Y661024D01*
Y659776D01*
X289439Y658622D01*
X290322Y657739D01*
X291476Y657261D01*
X292724D01*
X293878Y657739D01*
X294761Y658622D01*
X295239Y659776D01*
Y661024D01*
X294761Y662178D01*
X293878Y663061D01*
X292724Y663539D01*
D02*
G37*
G36*
X457824Y638139D02*
X456576D01*
X455422Y637661D01*
X454539Y636778D01*
X454061Y635624D01*
Y634376D01*
X454539Y633222D01*
X455422Y632339D01*
X456576Y631861D01*
X457824D01*
X458978Y632339D01*
X459861Y633222D01*
X460339Y634376D01*
Y635624D01*
X459861Y636778D01*
X458978Y637661D01*
X457824Y638139D01*
D02*
G37*
G36*
X432424D02*
X431176D01*
X430022Y637661D01*
X429139Y636778D01*
X428661Y635624D01*
Y634376D01*
X429139Y633222D01*
X430022Y632339D01*
X431176Y631861D01*
X432424D01*
X433578Y632339D01*
X434461Y633222D01*
X434939Y634376D01*
Y635624D01*
X434461Y636778D01*
X433578Y637661D01*
X432424Y638139D01*
D02*
G37*
G36*
X407024D02*
X405776D01*
X404622Y637661D01*
X403739Y636778D01*
X403261Y635624D01*
Y634376D01*
X403739Y633222D01*
X404622Y632339D01*
X405776Y631861D01*
X407024D01*
X408178Y632339D01*
X409061Y633222D01*
X409539Y634376D01*
Y635624D01*
X409061Y636778D01*
X408178Y637661D01*
X407024Y638139D01*
D02*
G37*
G36*
X381624D02*
X380376D01*
X379222Y637661D01*
X378339Y636778D01*
X377861Y635624D01*
Y634376D01*
X378339Y633222D01*
X379222Y632339D01*
X380376Y631861D01*
X381624D01*
X382778Y632339D01*
X383661Y633222D01*
X384139Y634376D01*
Y635624D01*
X383661Y636778D01*
X382778Y637661D01*
X381624Y638139D01*
D02*
G37*
G36*
X356224D02*
X354976D01*
X353822Y637661D01*
X352939Y636778D01*
X352461Y635624D01*
Y634376D01*
X352939Y633222D01*
X353822Y632339D01*
X354976Y631861D01*
X356224D01*
X357378Y632339D01*
X358261Y633222D01*
X358739Y634376D01*
Y635624D01*
X358261Y636778D01*
X357378Y637661D01*
X356224Y638139D01*
D02*
G37*
G36*
X330824D02*
X329576D01*
X328422Y637661D01*
X327539Y636778D01*
X327061Y635624D01*
Y634376D01*
X327539Y633222D01*
X328422Y632339D01*
X329576Y631861D01*
X330824D01*
X331978Y632339D01*
X332861Y633222D01*
X333339Y634376D01*
Y635624D01*
X332861Y636778D01*
X331978Y637661D01*
X330824Y638139D01*
D02*
G37*
G36*
X305424D02*
X304176D01*
X303022Y637661D01*
X302139Y636778D01*
X301661Y635624D01*
Y634376D01*
X302139Y633222D01*
X303022Y632339D01*
X304176Y631861D01*
X305424D01*
X306578Y632339D01*
X307461Y633222D01*
X307939Y634376D01*
Y635624D01*
X307461Y636778D01*
X306578Y637661D01*
X305424Y638139D01*
D02*
G37*
G36*
X280024D02*
X278776D01*
X277622Y637661D01*
X276739Y636778D01*
X276261Y635624D01*
Y634376D01*
X276739Y633222D01*
X277622Y632339D01*
X278776Y631861D01*
X280024D01*
X281178Y632339D01*
X282061Y633222D01*
X282539Y634376D01*
Y635624D01*
X282061Y636778D01*
X281178Y637661D01*
X280024Y638139D01*
D02*
G37*
G36*
X445124Y612739D02*
X443876D01*
X442722Y612261D01*
X441839Y611378D01*
X441361Y610224D01*
Y608976D01*
X441839Y607822D01*
X442722Y606939D01*
X443876Y606461D01*
X445124D01*
X446278Y606939D01*
X447161Y607822D01*
X447639Y608976D01*
Y610224D01*
X447161Y611378D01*
X446278Y612261D01*
X445124Y612739D01*
D02*
G37*
G36*
X419724D02*
X418476D01*
X417322Y612261D01*
X416439Y611378D01*
X415961Y610224D01*
Y608976D01*
X416439Y607822D01*
X417322Y606939D01*
X418476Y606461D01*
X419724D01*
X420878Y606939D01*
X421761Y607822D01*
X422239Y608976D01*
Y610224D01*
X421761Y611378D01*
X420878Y612261D01*
X419724Y612739D01*
D02*
G37*
G36*
X394324D02*
X393076D01*
X391922Y612261D01*
X391039Y611378D01*
X390561Y610224D01*
Y608976D01*
X391039Y607822D01*
X391922Y606939D01*
X393076Y606461D01*
X394324D01*
X395478Y606939D01*
X396361Y607822D01*
X396839Y608976D01*
Y610224D01*
X396361Y611378D01*
X395478Y612261D01*
X394324Y612739D01*
D02*
G37*
G36*
X368924D02*
X367676D01*
X366522Y612261D01*
X365639Y611378D01*
X365161Y610224D01*
Y608976D01*
X365639Y607822D01*
X366522Y606939D01*
X367676Y606461D01*
X368924D01*
X370078Y606939D01*
X370961Y607822D01*
X371439Y608976D01*
Y610224D01*
X370961Y611378D01*
X370078Y612261D01*
X368924Y612739D01*
D02*
G37*
G36*
X343524D02*
X342276D01*
X341122Y612261D01*
X340239Y611378D01*
X339761Y610224D01*
Y608976D01*
X340239Y607822D01*
X341122Y606939D01*
X342276Y606461D01*
X343524D01*
X344678Y606939D01*
X345561Y607822D01*
X346039Y608976D01*
Y610224D01*
X345561Y611378D01*
X344678Y612261D01*
X343524Y612739D01*
D02*
G37*
G36*
X318124D02*
X316876D01*
X315722Y612261D01*
X314839Y611378D01*
X314361Y610224D01*
Y608976D01*
X314839Y607822D01*
X315722Y606939D01*
X316876Y606461D01*
X318124D01*
X319278Y606939D01*
X320161Y607822D01*
X320639Y608976D01*
Y610224D01*
X320161Y611378D01*
X319278Y612261D01*
X318124Y612739D01*
D02*
G37*
G36*
X292724D02*
X291476D01*
X290322Y612261D01*
X289439Y611378D01*
X288961Y610224D01*
Y608976D01*
X289439Y607822D01*
X290322Y606939D01*
X291476Y606461D01*
X292724D01*
X293878Y606939D01*
X294761Y607822D01*
X295239Y608976D01*
Y610224D01*
X294761Y611378D01*
X293878Y612261D01*
X292724Y612739D01*
D02*
G37*
G36*
X457824Y587339D02*
X456576D01*
X455422Y586861D01*
X454539Y585978D01*
X454061Y584824D01*
Y583576D01*
X454539Y582422D01*
X455422Y581539D01*
X456576Y581061D01*
X457824D01*
X458978Y581539D01*
X459861Y582422D01*
X460339Y583576D01*
Y584824D01*
X459861Y585978D01*
X458978Y586861D01*
X457824Y587339D01*
D02*
G37*
G36*
X432424D02*
X431176D01*
X430022Y586861D01*
X429139Y585978D01*
X428661Y584824D01*
Y583576D01*
X429139Y582422D01*
X430022Y581539D01*
X431176Y581061D01*
X432424D01*
X433578Y581539D01*
X434461Y582422D01*
X434939Y583576D01*
Y584824D01*
X434461Y585978D01*
X433578Y586861D01*
X432424Y587339D01*
D02*
G37*
G36*
X407024D02*
X405776D01*
X404622Y586861D01*
X403739Y585978D01*
X403261Y584824D01*
Y583576D01*
X403739Y582422D01*
X404622Y581539D01*
X405776Y581061D01*
X407024D01*
X408178Y581539D01*
X409061Y582422D01*
X409539Y583576D01*
Y584824D01*
X409061Y585978D01*
X408178Y586861D01*
X407024Y587339D01*
D02*
G37*
G36*
X381624D02*
X380376D01*
X379222Y586861D01*
X378339Y585978D01*
X377861Y584824D01*
Y583576D01*
X378339Y582422D01*
X379222Y581539D01*
X380376Y581061D01*
X381624D01*
X382778Y581539D01*
X383661Y582422D01*
X384139Y583576D01*
Y584824D01*
X383661Y585978D01*
X382778Y586861D01*
X381624Y587339D01*
D02*
G37*
G36*
X356224D02*
X354976D01*
X353822Y586861D01*
X352939Y585978D01*
X352461Y584824D01*
Y583576D01*
X352939Y582422D01*
X353822Y581539D01*
X354976Y581061D01*
X356224D01*
X357378Y581539D01*
X358261Y582422D01*
X358739Y583576D01*
Y584824D01*
X358261Y585978D01*
X357378Y586861D01*
X356224Y587339D01*
D02*
G37*
G36*
X330824D02*
X329576D01*
X328422Y586861D01*
X327539Y585978D01*
X327061Y584824D01*
Y583576D01*
X327539Y582422D01*
X328422Y581539D01*
X329576Y581061D01*
X330824D01*
X331978Y581539D01*
X332861Y582422D01*
X333339Y583576D01*
Y584824D01*
X332861Y585978D01*
X331978Y586861D01*
X330824Y587339D01*
D02*
G37*
G36*
X305424D02*
X304176D01*
X303022Y586861D01*
X302139Y585978D01*
X301661Y584824D01*
Y583576D01*
X302139Y582422D01*
X303022Y581539D01*
X304176Y581061D01*
X305424D01*
X306578Y581539D01*
X307461Y582422D01*
X307939Y583576D01*
Y584824D01*
X307461Y585978D01*
X306578Y586861D01*
X305424Y587339D01*
D02*
G37*
G36*
X280024D02*
X278776D01*
X277622Y586861D01*
X276739Y585978D01*
X276261Y584824D01*
Y583576D01*
X276739Y582422D01*
X277622Y581539D01*
X278776Y581061D01*
X280024D01*
X281178Y581539D01*
X282061Y582422D01*
X282539Y583576D01*
Y584824D01*
X282061Y585978D01*
X281178Y586861D01*
X280024Y587339D01*
D02*
G37*
G36*
X445124Y561939D02*
X443876D01*
X442722Y561461D01*
X441839Y560578D01*
X441361Y559424D01*
Y558176D01*
X441839Y557022D01*
X442722Y556139D01*
X443876Y555661D01*
X445124D01*
X446278Y556139D01*
X447161Y557022D01*
X447639Y558176D01*
Y559424D01*
X447161Y560578D01*
X446278Y561461D01*
X445124Y561939D01*
D02*
G37*
G36*
X419724D02*
X418476D01*
X417322Y561461D01*
X416439Y560578D01*
X415961Y559424D01*
Y558176D01*
X416439Y557022D01*
X417322Y556139D01*
X418476Y555661D01*
X419724D01*
X420878Y556139D01*
X421761Y557022D01*
X422239Y558176D01*
Y559424D01*
X421761Y560578D01*
X420878Y561461D01*
X419724Y561939D01*
D02*
G37*
G36*
X394324D02*
X393076D01*
X391922Y561461D01*
X391039Y560578D01*
X390561Y559424D01*
Y558176D01*
X391039Y557022D01*
X391922Y556139D01*
X393076Y555661D01*
X394324D01*
X395478Y556139D01*
X396361Y557022D01*
X396839Y558176D01*
Y559424D01*
X396361Y560578D01*
X395478Y561461D01*
X394324Y561939D01*
D02*
G37*
G36*
X368924D02*
X367676D01*
X366522Y561461D01*
X365639Y560578D01*
X365161Y559424D01*
Y558176D01*
X365639Y557022D01*
X366522Y556139D01*
X367676Y555661D01*
X368924D01*
X370078Y556139D01*
X370961Y557022D01*
X371439Y558176D01*
Y559424D01*
X370961Y560578D01*
X370078Y561461D01*
X368924Y561939D01*
D02*
G37*
G36*
X343524D02*
X342276D01*
X341122Y561461D01*
X340239Y560578D01*
X339761Y559424D01*
Y558176D01*
X340239Y557022D01*
X341122Y556139D01*
X342276Y555661D01*
X343524D01*
X344678Y556139D01*
X345561Y557022D01*
X346039Y558176D01*
Y559424D01*
X345561Y560578D01*
X344678Y561461D01*
X343524Y561939D01*
D02*
G37*
G36*
X318124D02*
X316876D01*
X315722Y561461D01*
X314839Y560578D01*
X314361Y559424D01*
Y558176D01*
X314839Y557022D01*
X315722Y556139D01*
X316876Y555661D01*
X318124D01*
X319278Y556139D01*
X320161Y557022D01*
X320639Y558176D01*
Y559424D01*
X320161Y560578D01*
X319278Y561461D01*
X318124Y561939D01*
D02*
G37*
G36*
X292724D02*
X291476D01*
X290322Y561461D01*
X289439Y560578D01*
X288961Y559424D01*
Y558176D01*
X289439Y557022D01*
X290322Y556139D01*
X291476Y555661D01*
X292724D01*
X293878Y556139D01*
X294761Y557022D01*
X295239Y558176D01*
Y559424D01*
X294761Y560578D01*
X293878Y561461D01*
X292724Y561939D01*
D02*
G37*
G36*
X457824Y536539D02*
X456576D01*
X455422Y536061D01*
X454539Y535178D01*
X454061Y534024D01*
Y532776D01*
X454539Y531622D01*
X455422Y530739D01*
X456576Y530261D01*
X457824D01*
X458978Y530739D01*
X459861Y531622D01*
X460339Y532776D01*
Y534024D01*
X459861Y535178D01*
X458978Y536061D01*
X457824Y536539D01*
D02*
G37*
G36*
X432424D02*
X431176D01*
X430022Y536061D01*
X429139Y535178D01*
X428661Y534024D01*
Y532776D01*
X429139Y531622D01*
X430022Y530739D01*
X431176Y530261D01*
X432424D01*
X433578Y530739D01*
X434461Y531622D01*
X434939Y532776D01*
Y534024D01*
X434461Y535178D01*
X433578Y536061D01*
X432424Y536539D01*
D02*
G37*
G36*
X407024D02*
X405776D01*
X404622Y536061D01*
X403739Y535178D01*
X403261Y534024D01*
Y532776D01*
X403739Y531622D01*
X404622Y530739D01*
X405776Y530261D01*
X407024D01*
X408178Y530739D01*
X409061Y531622D01*
X409539Y532776D01*
Y534024D01*
X409061Y535178D01*
X408178Y536061D01*
X407024Y536539D01*
D02*
G37*
G36*
X381624D02*
X380376D01*
X379222Y536061D01*
X378339Y535178D01*
X377861Y534024D01*
Y532776D01*
X378339Y531622D01*
X379222Y530739D01*
X380376Y530261D01*
X381624D01*
X382778Y530739D01*
X383661Y531622D01*
X384139Y532776D01*
Y534024D01*
X383661Y535178D01*
X382778Y536061D01*
X381624Y536539D01*
D02*
G37*
G36*
X356224D02*
X354976D01*
X353822Y536061D01*
X352939Y535178D01*
X352461Y534024D01*
Y532776D01*
X352939Y531622D01*
X353822Y530739D01*
X354976Y530261D01*
X356224D01*
X357378Y530739D01*
X358261Y531622D01*
X358739Y532776D01*
Y534024D01*
X358261Y535178D01*
X357378Y536061D01*
X356224Y536539D01*
D02*
G37*
G36*
X330824D02*
X329576D01*
X328422Y536061D01*
X327539Y535178D01*
X327061Y534024D01*
Y532776D01*
X327539Y531622D01*
X328422Y530739D01*
X329576Y530261D01*
X330824D01*
X331978Y530739D01*
X332861Y531622D01*
X333339Y532776D01*
Y534024D01*
X332861Y535178D01*
X331978Y536061D01*
X330824Y536539D01*
D02*
G37*
G36*
X305424D02*
X304176D01*
X303022Y536061D01*
X302139Y535178D01*
X301661Y534024D01*
Y532776D01*
X302139Y531622D01*
X303022Y530739D01*
X304176Y530261D01*
X305424D01*
X306578Y530739D01*
X307461Y531622D01*
X307939Y532776D01*
Y534024D01*
X307461Y535178D01*
X306578Y536061D01*
X305424Y536539D01*
D02*
G37*
G36*
X280024D02*
X278776D01*
X277622Y536061D01*
X276739Y535178D01*
X276261Y534024D01*
Y532776D01*
X276739Y531622D01*
X277622Y530739D01*
X278776Y530261D01*
X280024D01*
X281178Y530739D01*
X282061Y531622D01*
X282539Y532776D01*
Y534024D01*
X282061Y535178D01*
X281178Y536061D01*
X280024Y536539D01*
D02*
G37*
G36*
X445124Y511139D02*
X443876D01*
X442722Y510661D01*
X441839Y509778D01*
X441361Y508624D01*
Y507376D01*
X441839Y506222D01*
X442722Y505339D01*
X443876Y504861D01*
X445124D01*
X446278Y505339D01*
X447161Y506222D01*
X447639Y507376D01*
Y508624D01*
X447161Y509778D01*
X446278Y510661D01*
X445124Y511139D01*
D02*
G37*
G36*
X419724D02*
X418476D01*
X417322Y510661D01*
X416439Y509778D01*
X415961Y508624D01*
Y507376D01*
X416439Y506222D01*
X417322Y505339D01*
X418476Y504861D01*
X419724D01*
X420878Y505339D01*
X421761Y506222D01*
X422239Y507376D01*
Y508624D01*
X421761Y509778D01*
X420878Y510661D01*
X419724Y511139D01*
D02*
G37*
G36*
X394324D02*
X393076D01*
X391922Y510661D01*
X391039Y509778D01*
X390561Y508624D01*
Y507376D01*
X391039Y506222D01*
X391922Y505339D01*
X393076Y504861D01*
X394324D01*
X395478Y505339D01*
X396361Y506222D01*
X396839Y507376D01*
Y508624D01*
X396361Y509778D01*
X395478Y510661D01*
X394324Y511139D01*
D02*
G37*
G36*
X368924D02*
X367676D01*
X366522Y510661D01*
X365639Y509778D01*
X365161Y508624D01*
Y507376D01*
X365639Y506222D01*
X366522Y505339D01*
X367676Y504861D01*
X368924D01*
X370078Y505339D01*
X370961Y506222D01*
X371439Y507376D01*
Y508624D01*
X370961Y509778D01*
X370078Y510661D01*
X368924Y511139D01*
D02*
G37*
G36*
X343524D02*
X342276D01*
X341122Y510661D01*
X340239Y509778D01*
X339761Y508624D01*
Y507376D01*
X340239Y506222D01*
X341122Y505339D01*
X342276Y504861D01*
X343524D01*
X344678Y505339D01*
X345561Y506222D01*
X346039Y507376D01*
Y508624D01*
X345561Y509778D01*
X344678Y510661D01*
X343524Y511139D01*
D02*
G37*
G36*
X318124D02*
X316876D01*
X315722Y510661D01*
X314839Y509778D01*
X314361Y508624D01*
Y507376D01*
X314839Y506222D01*
X315722Y505339D01*
X316876Y504861D01*
X318124D01*
X319278Y505339D01*
X320161Y506222D01*
X320639Y507376D01*
Y508624D01*
X320161Y509778D01*
X319278Y510661D01*
X318124Y511139D01*
D02*
G37*
G36*
X292724D02*
X291476D01*
X290322Y510661D01*
X289439Y509778D01*
X288961Y508624D01*
Y507376D01*
X289439Y506222D01*
X290322Y505339D01*
X291476Y504861D01*
X292724D01*
X293878Y505339D01*
X294761Y506222D01*
X295239Y507376D01*
Y508624D01*
X294761Y509778D01*
X293878Y510661D01*
X292724Y511139D01*
D02*
G37*
G36*
X457824Y485739D02*
X456576D01*
X455422Y485261D01*
X454539Y484378D01*
X454061Y483224D01*
Y481976D01*
X454539Y480822D01*
X455422Y479939D01*
X456576Y479461D01*
X457824D01*
X458978Y479939D01*
X459861Y480822D01*
X460339Y481976D01*
Y483224D01*
X459861Y484378D01*
X458978Y485261D01*
X457824Y485739D01*
D02*
G37*
G36*
X432424D02*
X431176D01*
X430022Y485261D01*
X429139Y484378D01*
X428661Y483224D01*
Y481976D01*
X429139Y480822D01*
X430022Y479939D01*
X431176Y479461D01*
X432424D01*
X433578Y479939D01*
X434461Y480822D01*
X434939Y481976D01*
Y483224D01*
X434461Y484378D01*
X433578Y485261D01*
X432424Y485739D01*
D02*
G37*
G36*
X407024D02*
X405776D01*
X404622Y485261D01*
X403739Y484378D01*
X403261Y483224D01*
Y481976D01*
X403739Y480822D01*
X404622Y479939D01*
X405776Y479461D01*
X407024D01*
X408178Y479939D01*
X409061Y480822D01*
X409539Y481976D01*
Y483224D01*
X409061Y484378D01*
X408178Y485261D01*
X407024Y485739D01*
D02*
G37*
G36*
X381624D02*
X380376D01*
X379222Y485261D01*
X378339Y484378D01*
X377861Y483224D01*
Y481976D01*
X378339Y480822D01*
X379222Y479939D01*
X380376Y479461D01*
X381624D01*
X382778Y479939D01*
X383661Y480822D01*
X384139Y481976D01*
Y483224D01*
X383661Y484378D01*
X382778Y485261D01*
X381624Y485739D01*
D02*
G37*
G36*
X356224D02*
X354976D01*
X353822Y485261D01*
X352939Y484378D01*
X352461Y483224D01*
Y481976D01*
X352939Y480822D01*
X353822Y479939D01*
X354976Y479461D01*
X356224D01*
X357378Y479939D01*
X358261Y480822D01*
X358739Y481976D01*
Y483224D01*
X358261Y484378D01*
X357378Y485261D01*
X356224Y485739D01*
D02*
G37*
G36*
X330824D02*
X329576D01*
X328422Y485261D01*
X327539Y484378D01*
X327061Y483224D01*
Y481976D01*
X327539Y480822D01*
X328422Y479939D01*
X329576Y479461D01*
X330824D01*
X331978Y479939D01*
X332861Y480822D01*
X333339Y481976D01*
Y483224D01*
X332861Y484378D01*
X331978Y485261D01*
X330824Y485739D01*
D02*
G37*
G36*
X305424D02*
X304176D01*
X303022Y485261D01*
X302139Y484378D01*
X301661Y483224D01*
Y481976D01*
X302139Y480822D01*
X303022Y479939D01*
X304176Y479461D01*
X305424D01*
X306578Y479939D01*
X307461Y480822D01*
X307939Y481976D01*
Y483224D01*
X307461Y484378D01*
X306578Y485261D01*
X305424Y485739D01*
D02*
G37*
G36*
X280024D02*
X278776D01*
X277622Y485261D01*
X276739Y484378D01*
X276261Y483224D01*
Y481976D01*
X276739Y480822D01*
X277622Y479939D01*
X278776Y479461D01*
X280024D01*
X281178Y479939D01*
X282061Y480822D01*
X282539Y481976D01*
Y483224D01*
X282061Y484378D01*
X281178Y485261D01*
X280024Y485739D01*
D02*
G37*
G36*
X445124Y460339D02*
X443876D01*
X442722Y459861D01*
X441839Y458978D01*
X441361Y457824D01*
Y456576D01*
X441839Y455422D01*
X442722Y454539D01*
X443876Y454061D01*
X445124D01*
X446278Y454539D01*
X447161Y455422D01*
X447639Y456576D01*
Y457824D01*
X447161Y458978D01*
X446278Y459861D01*
X445124Y460339D01*
D02*
G37*
G36*
X419724D02*
X418476D01*
X417322Y459861D01*
X416439Y458978D01*
X415961Y457824D01*
Y456576D01*
X416439Y455422D01*
X417322Y454539D01*
X418476Y454061D01*
X419724D01*
X420878Y454539D01*
X421761Y455422D01*
X422239Y456576D01*
Y457824D01*
X421761Y458978D01*
X420878Y459861D01*
X419724Y460339D01*
D02*
G37*
G36*
X394324D02*
X393076D01*
X391922Y459861D01*
X391039Y458978D01*
X390561Y457824D01*
Y456576D01*
X391039Y455422D01*
X391922Y454539D01*
X393076Y454061D01*
X394324D01*
X395478Y454539D01*
X396361Y455422D01*
X396839Y456576D01*
Y457824D01*
X396361Y458978D01*
X395478Y459861D01*
X394324Y460339D01*
D02*
G37*
G36*
X368924D02*
X367676D01*
X366522Y459861D01*
X365639Y458978D01*
X365161Y457824D01*
Y456576D01*
X365639Y455422D01*
X366522Y454539D01*
X367676Y454061D01*
X368924D01*
X370078Y454539D01*
X370961Y455422D01*
X371439Y456576D01*
Y457824D01*
X370961Y458978D01*
X370078Y459861D01*
X368924Y460339D01*
D02*
G37*
G36*
X343524D02*
X342276D01*
X341122Y459861D01*
X340239Y458978D01*
X339761Y457824D01*
Y456576D01*
X340239Y455422D01*
X341122Y454539D01*
X342276Y454061D01*
X343524D01*
X344678Y454539D01*
X345561Y455422D01*
X346039Y456576D01*
Y457824D01*
X345561Y458978D01*
X344678Y459861D01*
X343524Y460339D01*
D02*
G37*
G36*
X318124D02*
X316876D01*
X315722Y459861D01*
X314839Y458978D01*
X314361Y457824D01*
Y456576D01*
X314839Y455422D01*
X315722Y454539D01*
X316876Y454061D01*
X318124D01*
X319278Y454539D01*
X320161Y455422D01*
X320639Y456576D01*
Y457824D01*
X320161Y458978D01*
X319278Y459861D01*
X318124Y460339D01*
D02*
G37*
G36*
X292724D02*
X291476D01*
X290322Y459861D01*
X289439Y458978D01*
X288961Y457824D01*
Y456576D01*
X289439Y455422D01*
X290322Y454539D01*
X291476Y454061D01*
X292724D01*
X293878Y454539D01*
X294761Y455422D01*
X295239Y456576D01*
Y457824D01*
X294761Y458978D01*
X293878Y459861D01*
X292724Y460339D01*
D02*
G37*
G36*
X457824Y434939D02*
X456576D01*
X455422Y434461D01*
X454539Y433578D01*
X454061Y432424D01*
Y431176D01*
X454539Y430022D01*
X455422Y429139D01*
X456576Y428661D01*
X457824D01*
X458978Y429139D01*
X459861Y430022D01*
X460339Y431176D01*
Y432424D01*
X459861Y433578D01*
X458978Y434461D01*
X457824Y434939D01*
D02*
G37*
G36*
X432424D02*
X431176D01*
X430022Y434461D01*
X429139Y433578D01*
X428661Y432424D01*
Y431176D01*
X429139Y430022D01*
X430022Y429139D01*
X431176Y428661D01*
X432424D01*
X433578Y429139D01*
X434461Y430022D01*
X434939Y431176D01*
Y432424D01*
X434461Y433578D01*
X433578Y434461D01*
X432424Y434939D01*
D02*
G37*
G36*
X407024D02*
X405776D01*
X404622Y434461D01*
X403739Y433578D01*
X403261Y432424D01*
Y431176D01*
X403739Y430022D01*
X404622Y429139D01*
X405776Y428661D01*
X407024D01*
X408178Y429139D01*
X409061Y430022D01*
X409539Y431176D01*
Y432424D01*
X409061Y433578D01*
X408178Y434461D01*
X407024Y434939D01*
D02*
G37*
G36*
X381624D02*
X380376D01*
X379222Y434461D01*
X378339Y433578D01*
X377861Y432424D01*
Y431176D01*
X378339Y430022D01*
X379222Y429139D01*
X380376Y428661D01*
X381624D01*
X382778Y429139D01*
X383661Y430022D01*
X384139Y431176D01*
Y432424D01*
X383661Y433578D01*
X382778Y434461D01*
X381624Y434939D01*
D02*
G37*
G36*
X356224D02*
X354976D01*
X353822Y434461D01*
X352939Y433578D01*
X352461Y432424D01*
Y431176D01*
X352939Y430022D01*
X353822Y429139D01*
X354976Y428661D01*
X356224D01*
X357378Y429139D01*
X358261Y430022D01*
X358739Y431176D01*
Y432424D01*
X358261Y433578D01*
X357378Y434461D01*
X356224Y434939D01*
D02*
G37*
G36*
X330824D02*
X329576D01*
X328422Y434461D01*
X327539Y433578D01*
X327061Y432424D01*
Y431176D01*
X327539Y430022D01*
X328422Y429139D01*
X329576Y428661D01*
X330824D01*
X331978Y429139D01*
X332861Y430022D01*
X333339Y431176D01*
Y432424D01*
X332861Y433578D01*
X331978Y434461D01*
X330824Y434939D01*
D02*
G37*
G36*
X305424D02*
X304176D01*
X303022Y434461D01*
X302139Y433578D01*
X301661Y432424D01*
Y431176D01*
X302139Y430022D01*
X303022Y429139D01*
X304176Y428661D01*
X305424D01*
X306578Y429139D01*
X307461Y430022D01*
X307939Y431176D01*
Y432424D01*
X307461Y433578D01*
X306578Y434461D01*
X305424Y434939D01*
D02*
G37*
G36*
X280024D02*
X278776D01*
X277622Y434461D01*
X276739Y433578D01*
X276261Y432424D01*
Y431176D01*
X276739Y430022D01*
X277622Y429139D01*
X278776Y428661D01*
X280024D01*
X281178Y429139D01*
X282061Y430022D01*
X282539Y431176D01*
Y432424D01*
X282061Y433578D01*
X281178Y434461D01*
X280024Y434939D01*
D02*
G37*
G36*
X292724Y409539D02*
X291476D01*
X290322Y409061D01*
X289439Y408178D01*
X288961Y407024D01*
Y405776D01*
X289091Y405462D01*
X288177Y404349D01*
X286316Y404719D01*
X282644D01*
X279043Y404003D01*
X275651Y402598D01*
X272598Y400558D01*
X270002Y397962D01*
X267962Y394909D01*
X266557Y391517D01*
X265841Y387916D01*
Y384244D01*
X266557Y380643D01*
X267962Y377251D01*
X270002Y374198D01*
X272598Y371602D01*
X275651Y369562D01*
X279043Y368157D01*
X282644Y367441D01*
X286316D01*
X289917Y368157D01*
X293309Y369562D01*
X296362Y371602D01*
X298958Y374198D01*
X300998Y377251D01*
X301383Y378182D01*
X302881Y378480D01*
X303022Y378339D01*
X304176Y377861D01*
X305424D01*
X306578Y378339D01*
X307461Y379222D01*
X307939Y380376D01*
Y381624D01*
X307461Y382778D01*
X306578Y383661D01*
X305424Y384139D01*
X304336D01*
X304158Y384154D01*
X303119Y385076D01*
Y387916D01*
X302403Y391517D01*
X300998Y394909D01*
X298958Y397962D01*
X296362Y400558D01*
X293742Y402308D01*
X293780Y403593D01*
X293842Y403724D01*
X293878Y403739D01*
X294761Y404622D01*
X295239Y405776D01*
Y407024D01*
X294761Y408178D01*
X293878Y409061D01*
X292724Y409539D01*
D02*
G37*
G36*
X445124D02*
X443876D01*
X442722Y409061D01*
X441839Y408178D01*
X441361Y407024D01*
Y405776D01*
X441839Y404622D01*
X442722Y403739D01*
X443876Y403261D01*
X445124D01*
X446278Y403739D01*
X447161Y404622D01*
X447639Y405776D01*
Y407024D01*
X447161Y408178D01*
X446278Y409061D01*
X445124Y409539D01*
D02*
G37*
G36*
X419724D02*
X418476D01*
X417322Y409061D01*
X416439Y408178D01*
X415961Y407024D01*
Y405776D01*
X416439Y404622D01*
X417322Y403739D01*
X418476Y403261D01*
X419724D01*
X420878Y403739D01*
X421761Y404622D01*
X422239Y405776D01*
Y407024D01*
X421761Y408178D01*
X420878Y409061D01*
X419724Y409539D01*
D02*
G37*
G36*
X394324D02*
X393076D01*
X391922Y409061D01*
X391039Y408178D01*
X390561Y407024D01*
Y405776D01*
X391039Y404622D01*
X391922Y403739D01*
X393076Y403261D01*
X394324D01*
X395478Y403739D01*
X396361Y404622D01*
X396839Y405776D01*
Y407024D01*
X396361Y408178D01*
X395478Y409061D01*
X394324Y409539D01*
D02*
G37*
G36*
X368924D02*
X367676D01*
X366522Y409061D01*
X365639Y408178D01*
X365161Y407024D01*
Y405776D01*
X365639Y404622D01*
X366522Y403739D01*
X367676Y403261D01*
X368924D01*
X370078Y403739D01*
X370961Y404622D01*
X371439Y405776D01*
Y407024D01*
X370961Y408178D01*
X370078Y409061D01*
X368924Y409539D01*
D02*
G37*
G36*
X343524D02*
X342276D01*
X341122Y409061D01*
X340239Y408178D01*
X339761Y407024D01*
Y405776D01*
X340239Y404622D01*
X341122Y403739D01*
X342276Y403261D01*
X343524D01*
X344678Y403739D01*
X345561Y404622D01*
X346039Y405776D01*
Y407024D01*
X345561Y408178D01*
X344678Y409061D01*
X343524Y409539D01*
D02*
G37*
G36*
X318124D02*
X316876D01*
X315722Y409061D01*
X314839Y408178D01*
X314361Y407024D01*
Y405776D01*
X314839Y404622D01*
X315722Y403739D01*
X316876Y403261D01*
X318124D01*
X319278Y403739D01*
X320161Y404622D01*
X320639Y405776D01*
Y407024D01*
X320161Y408178D01*
X319278Y409061D01*
X318124Y409539D01*
D02*
G37*
G36*
X457824Y384139D02*
X456576D01*
X455422Y383661D01*
X454539Y382778D01*
X454061Y381624D01*
Y380376D01*
X454539Y379222D01*
X455422Y378339D01*
X456576Y377861D01*
X457824D01*
X458978Y378339D01*
X459861Y379222D01*
X460339Y380376D01*
Y381624D01*
X459861Y382778D01*
X458978Y383661D01*
X457824Y384139D01*
D02*
G37*
G36*
X432424D02*
X431176D01*
X430022Y383661D01*
X429139Y382778D01*
X428661Y381624D01*
Y380376D01*
X429139Y379222D01*
X430022Y378339D01*
X431176Y377861D01*
X432424D01*
X433578Y378339D01*
X434461Y379222D01*
X434939Y380376D01*
Y381624D01*
X434461Y382778D01*
X433578Y383661D01*
X432424Y384139D01*
D02*
G37*
G36*
X407024D02*
X405776D01*
X404622Y383661D01*
X403739Y382778D01*
X403261Y381624D01*
Y380376D01*
X403739Y379222D01*
X404622Y378339D01*
X405776Y377861D01*
X407024D01*
X408178Y378339D01*
X409061Y379222D01*
X409539Y380376D01*
Y381624D01*
X409061Y382778D01*
X408178Y383661D01*
X407024Y384139D01*
D02*
G37*
G36*
X381624D02*
X380376D01*
X379222Y383661D01*
X378339Y382778D01*
X377861Y381624D01*
Y380376D01*
X378339Y379222D01*
X379222Y378339D01*
X380376Y377861D01*
X381624D01*
X382778Y378339D01*
X383661Y379222D01*
X384139Y380376D01*
Y381624D01*
X383661Y382778D01*
X382778Y383661D01*
X381624Y384139D01*
D02*
G37*
G36*
X356224D02*
X354976D01*
X353822Y383661D01*
X352939Y382778D01*
X352461Y381624D01*
Y380376D01*
X352939Y379222D01*
X353822Y378339D01*
X354976Y377861D01*
X356224D01*
X357378Y378339D01*
X358261Y379222D01*
X358739Y380376D01*
Y381624D01*
X358261Y382778D01*
X357378Y383661D01*
X356224Y384139D01*
D02*
G37*
G36*
X330824D02*
X329576D01*
X328422Y383661D01*
X327539Y382778D01*
X327061Y381624D01*
Y380376D01*
X327539Y379222D01*
X328422Y378339D01*
X329576Y377861D01*
X330824D01*
X331978Y378339D01*
X332861Y379222D01*
X333339Y380376D01*
Y381624D01*
X332861Y382778D01*
X331978Y383661D01*
X330824Y384139D01*
D02*
G37*
G36*
X445124Y358739D02*
X443876D01*
X442722Y358261D01*
X441839Y357378D01*
X441361Y356224D01*
Y354976D01*
X441839Y353822D01*
X442722Y352939D01*
X443876Y352461D01*
X445124D01*
X446278Y352939D01*
X447161Y353822D01*
X447639Y354976D01*
Y356224D01*
X447161Y357378D01*
X446278Y358261D01*
X445124Y358739D01*
D02*
G37*
G36*
X419724D02*
X418476D01*
X417322Y358261D01*
X416439Y357378D01*
X415961Y356224D01*
Y354976D01*
X416439Y353822D01*
X417322Y352939D01*
X418476Y352461D01*
X419724D01*
X420878Y352939D01*
X421761Y353822D01*
X422239Y354976D01*
Y356224D01*
X421761Y357378D01*
X420878Y358261D01*
X419724Y358739D01*
D02*
G37*
G36*
X394324D02*
X393076D01*
X391922Y358261D01*
X391039Y357378D01*
X390561Y356224D01*
Y354976D01*
X391039Y353822D01*
X391922Y352939D01*
X393076Y352461D01*
X394324D01*
X395478Y352939D01*
X396361Y353822D01*
X396839Y354976D01*
Y356224D01*
X396361Y357378D01*
X395478Y358261D01*
X394324Y358739D01*
D02*
G37*
G36*
X368924D02*
X367676D01*
X366522Y358261D01*
X365639Y357378D01*
X365161Y356224D01*
Y354976D01*
X365639Y353822D01*
X366522Y352939D01*
X367676Y352461D01*
X368924D01*
X370078Y352939D01*
X370961Y353822D01*
X371439Y354976D01*
Y356224D01*
X370961Y357378D01*
X370078Y358261D01*
X368924Y358739D01*
D02*
G37*
G36*
X343524D02*
X342276D01*
X341122Y358261D01*
X340239Y357378D01*
X339761Y356224D01*
Y354976D01*
X340239Y353822D01*
X341122Y352939D01*
X342276Y352461D01*
X343524D01*
X344678Y352939D01*
X345561Y353822D01*
X346039Y354976D01*
Y356224D01*
X345561Y357378D01*
X344678Y358261D01*
X343524Y358739D01*
D02*
G37*
G36*
X318124D02*
X316876D01*
X315722Y358261D01*
X314839Y357378D01*
X314361Y356224D01*
Y354976D01*
X314839Y353822D01*
X315722Y352939D01*
X316876Y352461D01*
X318124D01*
X319278Y352939D01*
X320161Y353822D01*
X320639Y354976D01*
Y356224D01*
X320161Y357378D01*
X319278Y358261D01*
X318124Y358739D01*
D02*
G37*
G36*
X292724D02*
X291476D01*
X290322Y358261D01*
X289439Y357378D01*
X288961Y356224D01*
Y354976D01*
X289439Y353822D01*
X290322Y352939D01*
X291476Y352461D01*
X292724D01*
X293878Y352939D01*
X294761Y353822D01*
X295239Y354976D01*
Y356224D01*
X294761Y357378D01*
X293878Y358261D01*
X292724Y358739D01*
D02*
G37*
G36*
X457824Y333339D02*
X456576D01*
X455422Y332861D01*
X454539Y331978D01*
X454061Y330824D01*
Y329576D01*
X454539Y328422D01*
X455422Y327539D01*
X456576Y327061D01*
X457824D01*
X458978Y327539D01*
X459861Y328422D01*
X460339Y329576D01*
Y330824D01*
X459861Y331978D01*
X458978Y332861D01*
X457824Y333339D01*
D02*
G37*
G36*
X432424D02*
X431176D01*
X430022Y332861D01*
X429139Y331978D01*
X428661Y330824D01*
Y329576D01*
X429139Y328422D01*
X430022Y327539D01*
X431176Y327061D01*
X432424D01*
X433578Y327539D01*
X434461Y328422D01*
X434939Y329576D01*
Y330824D01*
X434461Y331978D01*
X433578Y332861D01*
X432424Y333339D01*
D02*
G37*
G36*
X407024D02*
X405776D01*
X404622Y332861D01*
X403739Y331978D01*
X403261Y330824D01*
Y329576D01*
X403739Y328422D01*
X404622Y327539D01*
X405776Y327061D01*
X407024D01*
X408178Y327539D01*
X409061Y328422D01*
X409539Y329576D01*
Y330824D01*
X409061Y331978D01*
X408178Y332861D01*
X407024Y333339D01*
D02*
G37*
G36*
X381624D02*
X380376D01*
X379222Y332861D01*
X378339Y331978D01*
X377861Y330824D01*
Y329576D01*
X378339Y328422D01*
X379222Y327539D01*
X380376Y327061D01*
X381624D01*
X382778Y327539D01*
X383661Y328422D01*
X384139Y329576D01*
Y330824D01*
X383661Y331978D01*
X382778Y332861D01*
X381624Y333339D01*
D02*
G37*
G36*
X356224D02*
X354976D01*
X353822Y332861D01*
X352939Y331978D01*
X352461Y330824D01*
Y329576D01*
X352939Y328422D01*
X353822Y327539D01*
X354976Y327061D01*
X356224D01*
X357378Y327539D01*
X358261Y328422D01*
X358739Y329576D01*
Y330824D01*
X358261Y331978D01*
X357378Y332861D01*
X356224Y333339D01*
D02*
G37*
G36*
X330824D02*
X329576D01*
X328422Y332861D01*
X327539Y331978D01*
X327061Y330824D01*
Y329576D01*
X327539Y328422D01*
X328422Y327539D01*
X329576Y327061D01*
X330824D01*
X331978Y327539D01*
X332861Y328422D01*
X333339Y329576D01*
Y330824D01*
X332861Y331978D01*
X331978Y332861D01*
X330824Y333339D01*
D02*
G37*
G36*
X305424D02*
X304176D01*
X303022Y332861D01*
X302139Y331978D01*
X301661Y330824D01*
Y329576D01*
X302139Y328422D01*
X303022Y327539D01*
X304176Y327061D01*
X305424D01*
X306578Y327539D01*
X307461Y328422D01*
X307939Y329576D01*
Y330824D01*
X307461Y331978D01*
X306578Y332861D01*
X305424Y333339D01*
D02*
G37*
G36*
X280024D02*
X278776D01*
X277622Y332861D01*
X276739Y331978D01*
X276261Y330824D01*
Y329576D01*
X276739Y328422D01*
X277622Y327539D01*
X278776Y327061D01*
X280024D01*
X281178Y327539D01*
X282061Y328422D01*
X282539Y329576D01*
Y330824D01*
X282061Y331978D01*
X281178Y332861D01*
X280024Y333339D01*
D02*
G37*
G36*
X445124Y307939D02*
X443876D01*
X442722Y307461D01*
X441839Y306578D01*
X441361Y305424D01*
Y304176D01*
X441839Y303022D01*
X442722Y302139D01*
X443876Y301661D01*
X445124D01*
X446278Y302139D01*
X447161Y303022D01*
X447639Y304176D01*
Y305424D01*
X447161Y306578D01*
X446278Y307461D01*
X445124Y307939D01*
D02*
G37*
G36*
X419724D02*
X418476D01*
X417322Y307461D01*
X416439Y306578D01*
X415961Y305424D01*
Y304176D01*
X416439Y303022D01*
X417322Y302139D01*
X418476Y301661D01*
X419724D01*
X420878Y302139D01*
X421761Y303022D01*
X422239Y304176D01*
Y305424D01*
X421761Y306578D01*
X420878Y307461D01*
X419724Y307939D01*
D02*
G37*
G36*
X394324D02*
X393076D01*
X391922Y307461D01*
X391039Y306578D01*
X390561Y305424D01*
Y304176D01*
X391039Y303022D01*
X391922Y302139D01*
X393076Y301661D01*
X394324D01*
X395478Y302139D01*
X396361Y303022D01*
X396839Y304176D01*
Y305424D01*
X396361Y306578D01*
X395478Y307461D01*
X394324Y307939D01*
D02*
G37*
G36*
X343524D02*
X342276D01*
X341122Y307461D01*
X340239Y306578D01*
X339761Y305424D01*
Y304176D01*
X340239Y303022D01*
X341122Y302139D01*
X342276Y301661D01*
X343524D01*
X344678Y302139D01*
X345561Y303022D01*
X346039Y304176D01*
Y305424D01*
X345561Y306578D01*
X344678Y307461D01*
X343524Y307939D01*
D02*
G37*
G36*
X318124D02*
X316876D01*
X315722Y307461D01*
X314839Y306578D01*
X314361Y305424D01*
Y304176D01*
X314839Y303022D01*
X315722Y302139D01*
X316876Y301661D01*
X318124D01*
X319278Y302139D01*
X320161Y303022D01*
X320639Y304176D01*
Y305424D01*
X320161Y306578D01*
X319278Y307461D01*
X318124Y307939D01*
D02*
G37*
G36*
X292724D02*
X291476D01*
X290322Y307461D01*
X289439Y306578D01*
X288961Y305424D01*
Y304176D01*
X289439Y303022D01*
X290322Y302139D01*
X291476Y301661D01*
X292724D01*
X293878Y302139D01*
X294761Y303022D01*
X295239Y304176D01*
Y305424D01*
X294761Y306578D01*
X293878Y307461D01*
X292724Y307939D01*
D02*
G37*
G36*
X375469Y311969D02*
X353491D01*
Y289991D01*
X375469D01*
Y311969D01*
D02*
G37*
G36*
X457824Y282539D02*
X456576D01*
X455422Y282061D01*
X454539Y281178D01*
X454061Y280024D01*
Y278776D01*
X454539Y277622D01*
X455422Y276739D01*
X456576Y276261D01*
X457824D01*
X458978Y276739D01*
X459861Y277622D01*
X460339Y278776D01*
Y280024D01*
X459861Y281178D01*
X458978Y282061D01*
X457824Y282539D01*
D02*
G37*
G36*
X432424D02*
X431176D01*
X430022Y282061D01*
X429139Y281178D01*
X428661Y280024D01*
Y278776D01*
X429139Y277622D01*
X430022Y276739D01*
X431176Y276261D01*
X432424D01*
X433578Y276739D01*
X434461Y277622D01*
X434939Y278776D01*
Y280024D01*
X434461Y281178D01*
X433578Y282061D01*
X432424Y282539D01*
D02*
G37*
G36*
X407024D02*
X405776D01*
X404622Y282061D01*
X403739Y281178D01*
X403261Y280024D01*
Y278776D01*
X403739Y277622D01*
X404622Y276739D01*
X405776Y276261D01*
X407024D01*
X408178Y276739D01*
X409061Y277622D01*
X409539Y278776D01*
Y280024D01*
X409061Y281178D01*
X408178Y282061D01*
X407024Y282539D01*
D02*
G37*
G36*
X381624D02*
X380376D01*
X379222Y282061D01*
X378339Y281178D01*
X377861Y280024D01*
Y278776D01*
X378339Y277622D01*
X379222Y276739D01*
X380376Y276261D01*
X381624D01*
X382778Y276739D01*
X383661Y277622D01*
X384139Y278776D01*
Y280024D01*
X383661Y281178D01*
X382778Y282061D01*
X381624Y282539D01*
D02*
G37*
G36*
X356224D02*
X354976D01*
X353822Y282061D01*
X352939Y281178D01*
X352461Y280024D01*
Y278776D01*
X352939Y277622D01*
X353822Y276739D01*
X354976Y276261D01*
X356224D01*
X357378Y276739D01*
X358261Y277622D01*
X358739Y278776D01*
Y280024D01*
X358261Y281178D01*
X357378Y282061D01*
X356224Y282539D01*
D02*
G37*
G36*
X330824D02*
X329576D01*
X328422Y282061D01*
X327539Y281178D01*
X327061Y280024D01*
Y278776D01*
X327539Y277622D01*
X328422Y276739D01*
X329576Y276261D01*
X330824D01*
X331978Y276739D01*
X332861Y277622D01*
X333339Y278776D01*
Y280024D01*
X332861Y281178D01*
X331978Y282061D01*
X330824Y282539D01*
D02*
G37*
G36*
X305424D02*
X304176D01*
X303022Y282061D01*
X302139Y281178D01*
X301661Y280024D01*
Y278776D01*
X302139Y277622D01*
X303022Y276739D01*
X304176Y276261D01*
X305424D01*
X306578Y276739D01*
X307461Y277622D01*
X307939Y278776D01*
Y280024D01*
X307461Y281178D01*
X306578Y282061D01*
X305424Y282539D01*
D02*
G37*
G36*
X280024D02*
X278776D01*
X277622Y282061D01*
X276739Y281178D01*
X276261Y280024D01*
Y278776D01*
X276739Y277622D01*
X277622Y276739D01*
X278776Y276261D01*
X280024D01*
X281178Y276739D01*
X282061Y277622D01*
X282539Y278776D01*
Y280024D01*
X282061Y281178D01*
X281178Y282061D01*
X280024Y282539D01*
D02*
G37*
%LPD*%
D12*
X447040Y1183640D02*
Y1238250D01*
X375920Y1112520D02*
X447040Y1183640D01*
Y1238250D02*
X455731Y1246941D01*
X456791D02*
X459531Y1249680D01*
X462280D01*
X455731Y1246941D02*
X456791D01*
X462280Y1174750D02*
Y1233170D01*
X391541Y1104011D02*
X462280Y1174750D01*
X366649Y1104011D02*
X391541D01*
X358140Y1112520D02*
X366649Y1104011D01*
X415290Y1084682D02*
Y1106170D01*
X399948Y1069340D02*
X415290Y1084682D01*
X378460Y1069340D02*
X399948D01*
D35*
X364480Y300980D02*
D03*
D36*
Y1023180D02*
D03*
D37*
X444480Y938080D02*
D03*
X284480Y386080D02*
D03*
D38*
Y1020080D02*
D03*
D42*
X401320Y1101090D02*
D03*
Y1080770D02*
D03*
X350520Y1090930D02*
D03*
D43*
X457200Y1295400D02*
D03*
X469900Y1270000D02*
D03*
Y1219200D02*
D03*
X457200Y1193800D02*
D03*
X469900Y1168400D02*
D03*
X457200Y1143000D02*
D03*
X469900Y1117600D02*
D03*
X457200Y1092200D02*
D03*
X469900Y1066800D02*
D03*
X457200Y990600D02*
D03*
X469900Y965200D02*
D03*
Y914400D02*
D03*
X457200Y889000D02*
D03*
X469900Y863600D02*
D03*
X457200Y838200D02*
D03*
X469900Y812800D02*
D03*
X457200Y787400D02*
D03*
X469900Y762000D02*
D03*
X457200Y736600D02*
D03*
X469900Y711200D02*
D03*
X457200Y685800D02*
D03*
X469900Y660400D02*
D03*
X457200Y635000D02*
D03*
X469900Y609600D02*
D03*
X457200Y584200D02*
D03*
X469900Y558800D02*
D03*
X457200Y533400D02*
D03*
X469900Y508000D02*
D03*
X457200Y482600D02*
D03*
X469900Y457200D02*
D03*
X457200Y431800D02*
D03*
X469900Y406400D02*
D03*
X457200Y381000D02*
D03*
X469900Y355600D02*
D03*
X457200Y330200D02*
D03*
X469900Y304800D02*
D03*
X457200Y279400D02*
D03*
X444500Y1117600D02*
D03*
X431800Y1092200D02*
D03*
X444500Y1066800D02*
D03*
Y1016000D02*
D03*
X431800Y990600D02*
D03*
X444500Y965200D02*
D03*
Y914400D02*
D03*
X431800Y889000D02*
D03*
X444500Y863600D02*
D03*
X431800Y838200D02*
D03*
X444500Y812800D02*
D03*
X431800Y787400D02*
D03*
X444500Y762000D02*
D03*
X431800Y736600D02*
D03*
X444500Y711200D02*
D03*
X431800Y685800D02*
D03*
X444500Y660400D02*
D03*
X431800Y635000D02*
D03*
X444500Y609600D02*
D03*
X431800Y584200D02*
D03*
X444500Y558800D02*
D03*
X431800Y533400D02*
D03*
X444500Y508000D02*
D03*
X431800Y482600D02*
D03*
X444500Y457200D02*
D03*
X431800Y431800D02*
D03*
X444500Y406400D02*
D03*
X431800Y381000D02*
D03*
X444500Y355600D02*
D03*
X431800Y330200D02*
D03*
X444500Y304800D02*
D03*
X431800Y279400D02*
D03*
X406400Y1295400D02*
D03*
X419100Y1270000D02*
D03*
X406400Y1244600D02*
D03*
X419100Y1219200D02*
D03*
X406400Y1193800D02*
D03*
X419100Y1168400D02*
D03*
X406400Y1092200D02*
D03*
X419100Y1066800D02*
D03*
X406400Y1041400D02*
D03*
Y990600D02*
D03*
X419100Y965200D02*
D03*
X406400Y939800D02*
D03*
X419100Y914400D02*
D03*
X406400Y889000D02*
D03*
X419100Y863600D02*
D03*
X406400Y838200D02*
D03*
X419100Y812800D02*
D03*
X406400Y787400D02*
D03*
X419100Y762000D02*
D03*
X406400Y736600D02*
D03*
X419100Y711200D02*
D03*
X406400Y685800D02*
D03*
X419100Y660400D02*
D03*
X406400Y635000D02*
D03*
X419100Y609600D02*
D03*
X406400Y584200D02*
D03*
X419100Y558800D02*
D03*
X406400Y533400D02*
D03*
X419100Y508000D02*
D03*
X406400Y482600D02*
D03*
X419100Y457200D02*
D03*
X406400Y431800D02*
D03*
X419100Y406400D02*
D03*
X406400Y381000D02*
D03*
X419100Y355600D02*
D03*
X406400Y330200D02*
D03*
X419100Y304800D02*
D03*
X406400Y279400D02*
D03*
X381000Y1295400D02*
D03*
X393700Y1270000D02*
D03*
X381000Y1244600D02*
D03*
X393700Y1219200D02*
D03*
X381000Y1193800D02*
D03*
X393700Y1168400D02*
D03*
Y1117600D02*
D03*
X381000Y1041400D02*
D03*
Y990600D02*
D03*
X393700Y965200D02*
D03*
X381000Y939800D02*
D03*
X393700Y914400D02*
D03*
X381000Y889000D02*
D03*
X393700Y863600D02*
D03*
X381000Y838200D02*
D03*
X393700Y812800D02*
D03*
X381000Y787400D02*
D03*
X393700Y762000D02*
D03*
X381000Y736600D02*
D03*
X393700Y711200D02*
D03*
X381000Y685800D02*
D03*
X393700Y660400D02*
D03*
X381000Y635000D02*
D03*
X393700Y609600D02*
D03*
X381000Y584200D02*
D03*
X393700Y558800D02*
D03*
X381000Y533400D02*
D03*
X393700Y508000D02*
D03*
X381000Y482600D02*
D03*
X393700Y457200D02*
D03*
X381000Y431800D02*
D03*
X393700Y406400D02*
D03*
X381000Y381000D02*
D03*
X393700Y355600D02*
D03*
X381000Y330200D02*
D03*
X393700Y304800D02*
D03*
X381000Y279400D02*
D03*
X355600Y1295400D02*
D03*
X368300Y1270000D02*
D03*
X355600Y1244600D02*
D03*
X368300Y1219200D02*
D03*
X355600Y1193800D02*
D03*
X368300Y1168400D02*
D03*
X355600Y1041400D02*
D03*
Y990600D02*
D03*
X368300Y965200D02*
D03*
X355600Y939800D02*
D03*
X368300Y914400D02*
D03*
X355600Y889000D02*
D03*
X368300Y863600D02*
D03*
X355600Y838200D02*
D03*
X368300Y812800D02*
D03*
X355600Y787400D02*
D03*
X368300Y762000D02*
D03*
X355600Y736600D02*
D03*
X368300Y711200D02*
D03*
X355600Y685800D02*
D03*
X368300Y660400D02*
D03*
X355600Y635000D02*
D03*
X368300Y609600D02*
D03*
X355600Y584200D02*
D03*
X368300Y558800D02*
D03*
X355600Y533400D02*
D03*
X368300Y508000D02*
D03*
X355600Y482600D02*
D03*
X368300Y457200D02*
D03*
X355600Y431800D02*
D03*
X368300Y406400D02*
D03*
X355600Y381000D02*
D03*
X368300Y355600D02*
D03*
X355600Y330200D02*
D03*
Y279400D02*
D03*
X330200Y1295400D02*
D03*
X342900Y1270000D02*
D03*
X330200Y1244600D02*
D03*
X342900Y1219200D02*
D03*
X330200Y1193800D02*
D03*
X342900Y1168400D02*
D03*
Y1117600D02*
D03*
X330200Y1041400D02*
D03*
X342900Y1016000D02*
D03*
X330200Y990600D02*
D03*
X342900Y965200D02*
D03*
X330200Y939800D02*
D03*
X342900Y914400D02*
D03*
X330200Y889000D02*
D03*
X342900Y863600D02*
D03*
X330200Y838200D02*
D03*
X342900Y812800D02*
D03*
X330200Y787400D02*
D03*
X342900Y762000D02*
D03*
X330200Y736600D02*
D03*
X342900Y711200D02*
D03*
X330200Y685800D02*
D03*
X342900Y660400D02*
D03*
X330200Y635000D02*
D03*
X342900Y609600D02*
D03*
X330200Y584200D02*
D03*
X342900Y558800D02*
D03*
X330200Y533400D02*
D03*
X342900Y508000D02*
D03*
X330200Y482600D02*
D03*
X342900Y457200D02*
D03*
X330200Y431800D02*
D03*
X342900Y406400D02*
D03*
X330200Y381000D02*
D03*
X342900Y355600D02*
D03*
X330200Y330200D02*
D03*
X342900Y304800D02*
D03*
X330200Y279400D02*
D03*
X304800Y1295400D02*
D03*
X317500Y1270000D02*
D03*
X304800Y1244600D02*
D03*
X317500Y1219200D02*
D03*
X304800Y1193800D02*
D03*
X317500Y1168400D02*
D03*
X304800Y1143000D02*
D03*
Y1092200D02*
D03*
Y1041400D02*
D03*
X317500Y1016000D02*
D03*
X304800Y990600D02*
D03*
X317500Y965200D02*
D03*
X304800Y939800D02*
D03*
X317500Y914400D02*
D03*
X304800Y889000D02*
D03*
X317500Y863600D02*
D03*
X304800Y838200D02*
D03*
X317500Y812800D02*
D03*
X304800Y787400D02*
D03*
X317500Y762000D02*
D03*
X304800Y736600D02*
D03*
X317500Y711200D02*
D03*
X304800Y685800D02*
D03*
X317500Y660400D02*
D03*
X304800Y635000D02*
D03*
X317500Y609600D02*
D03*
X304800Y584200D02*
D03*
X317500Y558800D02*
D03*
X304800Y533400D02*
D03*
X317500Y508000D02*
D03*
X304800Y482600D02*
D03*
X317500Y457200D02*
D03*
X304800Y431800D02*
D03*
X317500Y406400D02*
D03*
X304800Y381000D02*
D03*
X317500Y355600D02*
D03*
X304800Y330200D02*
D03*
X317500Y304800D02*
D03*
X304800Y279400D02*
D03*
X279400Y1143000D02*
D03*
Y1092200D02*
D03*
Y1041400D02*
D03*
Y990600D02*
D03*
X292100Y965200D02*
D03*
X279400Y939800D02*
D03*
X292100Y914400D02*
D03*
X279400Y889000D02*
D03*
X292100Y863600D02*
D03*
X279400Y838200D02*
D03*
X292100Y812800D02*
D03*
X279400Y787400D02*
D03*
X292100Y762000D02*
D03*
X279400Y736600D02*
D03*
X292100Y711200D02*
D03*
X279400Y685800D02*
D03*
X292100Y660400D02*
D03*
X279400Y635000D02*
D03*
X292100Y609600D02*
D03*
X279400Y584200D02*
D03*
X292100Y558800D02*
D03*
X279400Y533400D02*
D03*
X292100Y508000D02*
D03*
X279400Y482600D02*
D03*
X292100Y457200D02*
D03*
X279400Y431800D02*
D03*
X292100Y406400D02*
D03*
Y355600D02*
D03*
X279400Y330200D02*
D03*
X292100Y304800D02*
D03*
X279400Y279400D02*
D03*
X325120Y1050290D02*
D03*
D44*
X276860Y1306830D02*
D03*
X415290Y1106170D02*
D03*
X462280Y1233170D02*
D03*
X375920Y1112520D02*
D03*
X358140D02*
D03*
X462280Y1249680D02*
D03*
X378460Y1069340D02*
D03*
X363220D02*
D03*
X267970Y1270000D02*
D03*
X464820Y998220D02*
D03*
X450850Y1042670D02*
D03*
X264160Y1090930D02*
D03*
X309880Y1083310D02*
D03*
M02*
