M48
;Layer_Color=9474304
;FILE_FORMAT=4:4
METRIC,LZ
;TYPE=PLATED
T01F00S00C0.2500
T02F00S00C0.3000
T03F00S00C0.7112
T04F00S00C1.3200
;TYPE=NON_PLATED
T05F00S00C0.9906
T06F00S00C2.3900
T07F00S00C3.5500
%
T01
X0032512Y0105029
T02
X002794Y002794
X003048
X003302
X003556
X00381
X003937Y003048
X00381Y003302
X003556
X003302
X003048
X002794
X002921Y003556
X003175
X003429
X003683
X003937
X00381Y00381
X003556
X003302
X003048
X003175Y003048
X003429
X002921
X004191
X004445
X004699
X004572Y003302
X004318
X004064
X004191Y003556
X004445
X004699
X004572Y00381
X004318
X004064
Y002794
X004318
X004572
X004699Y004064
X004445
X004191
X004318Y004318
X004572
X004699Y004572
X004445
X004191
X004318Y004826
X004572
X004699Y00508
X004445
X004191
X004318Y005334
X004572
X004699Y005588
X004445
X004191
X004318Y005842
X004572
X004699Y006096
X004445
X004191
X004318Y00635
X004572
X004699Y006604
X004445
X004191
X004318Y006858
X004572
X004699Y007112
X004445
X004191
X004318Y007366
X004572
X004699Y00762
X004445
X004191
X004318Y007874
X004572
X004064
Y007366
Y006858
Y00635
Y005842
Y005334
Y004826
Y004318
X00381
X003556
X003302
X003048
X002794
X002921Y004572
X003175
X003429
X003683
X003937
X00381Y004826
X003556
X003302
X003048
X002794
X002921Y00508
X003175
X003429
X003683
X003937
X00381Y005334
X003556
X003302
X003048
X002794
X002921Y005588
X003175
X003429
X003683
X003937
X00381Y005842
X003556
X003302
X003048
X002794
X002921Y006096
X003175
X003429
X003683
X003937
X00381Y00635
X003556
X003302
X003048
X002794
X002921Y006604
X003175
X003429
X003683
X003937
X00381Y006858
X003556
X003302
X003048
X002794
X002921Y007112
X003175
X003429
X003683
X003937
X00381Y007366
X003556
X003302
X003048
X002794
X002921Y00762
X003175
X003429
X003683
X003937
X00381Y007874
X003556
X003302
X003048
X002794
X002921Y004064
X003175
X003429
X003683
X003937
Y008128
X003683
X003429
X003175
X002921
X003048Y008382
X003302
X003556
X00381
X003937Y008636
X003683
X003429
X003175
X002921
X003048Y00889
X003302
X003556
X00381
X003937Y009144
X003683
X003429
X003175
X002921
X003048Y009398
X003302
X003556
X00381
X003937Y009652
X003683
X003429
X003175
X002921
X003048Y009906
X003302
X003556
X00381
Y010414
X003556
X003302
X003048
X002794
Y010922
X003048
Y01143
X002794
X003175Y011684
X003429
X003683
X003937
Y011176
X003429
Y01016
X003175
X002794Y009906
Y009398
Y00889
Y008382
X004064
X004318
X004572
X004699Y008636
X004445
X004191
X004318Y00889
X004572
X004699Y009144
X004445
X004191
X004064Y009398
X004191Y009652
X004445
X004699
X004572Y009906
X004318
X004064
Y010414
X004191Y010668
X004445
X004699
X004572Y010922
X004318
X004064
X004445Y011176
X004699
X004572Y01143
X004699Y011684
X004191
X004445Y01016
X004064Y00889
X004191Y008128
X004445
X004699
X004572Y011938
X004699Y012192
Y0127
X004572Y012954
X004064
X004191Y0127
X004064Y012446
X004191Y012192
X004064Y011938
X00381
X003556
X003302
X003048
X003175Y012192
X003429
X003683
X003937
X00381Y012446
X003556
X003302
X003048
X003175Y0127
X003429
X003683
X003937
X00381Y012954
X003556
X003302
X003048
T03
X0026416Y0109093
X0030988Y0108331
X0036322Y0106934
X0037846
X0037592Y0111252
X0035814
X0041529Y0110617
X0045085Y0104267
X0046482Y0099822
X0046228Y0123317
Y0124968
X0026797Y0127
X0027686Y0130683
T04
X0036448Y0030098
Y0102318
T05
X0035052Y0109093
X0040132Y0110109
Y0108077
T06
X0028448Y0102008
T07
X0028448Y0038608
X0044448Y0093808
M30
