<?xml version="1.0" encoding="UTF-8" standalone="no"?>
<!-- Generator: Adobe Illustrator 25.1.0, SVG Export Plug-In . SVG Version: 6.00 Build 0)  -->

<svg
   version="1.1"
   id="Layer_1"
   x="0px"
   y="0px"
   viewBox="0 0 117.16535 56.692913"
   xml:space="preserve"
   sodipodi:docname="customer_logo_31x15.svg"
   width="31mm"
   height="15mm"
   inkscape:version="1.2.2 (b0a8486541, 2022-12-01)"
   xmlns:inkscape="http://www.inkscape.org/namespaces/inkscape"
   xmlns:sodipodi="http://sodipodi.sourceforge.net/DTD/sodipodi-0.dtd"
   xmlns="http://www.w3.org/2000/svg"
   xmlns:svg="http://www.w3.org/2000/svg"><defs
   id="defs9"><clipPath
     clipPathUnits="userSpaceOnUse"
     id="clipPath586"><path
       d="m 422.733,774.373 h 152.518 v 49.674 H 422.733 Z"
       id="path584" /></clipPath><clipPath
     clipPathUnits="userSpaceOnUse"
     id="clipPath646"><path
       d="m 422.733,774.373 h 152.518 v 49.674 H 422.733 Z"
       id="path644" /></clipPath><clipPath
     clipPathUnits="userSpaceOnUse"
     id="clipPath626"><path
       d="m 439.503,795.154 5.246,-8.151 h 9.341 l -9.917,15.41 z"
       id="path624" /></clipPath><linearGradient
     x1="0"
     y1="0"
     x2="1"
     y2="0"
     gradientUnits="userSpaceOnUse"
     gradientTransform="matrix(-5.5041215,3.0823118,3.0823118,5.5041215,446.14124,793.76732)"
     spreadMethod="pad"
     id="linearGradient636"><stop
       style="stop-opacity:1;stop-color:#58595b"
       offset="0"
       id="stop632" /><stop
       style="stop-opacity:1;stop-color:#000000"
       offset="1"
       id="stop634" /></linearGradient><clipPath
     clipPathUnits="userSpaceOnUse"
     id="clipPath586-1"><path
       d="m 422.733,774.373 h 152.518 v 49.674 H 422.733 Z"
       id="path584-9" /></clipPath><clipPath
     clipPathUnits="userSpaceOnUse"
     id="clipPath646-8"><path
       d="m 422.733,774.373 h 152.518 v 49.674 H 422.733 Z"
       id="path644-8" /></clipPath></defs><sodipodi:namedview
   id="namedview7"
   pagecolor="#ffffff"
   bordercolor="#666666"
   borderopacity="1.0"
   inkscape:pageshadow="2"
   inkscape:pageopacity="0.0"
   inkscape:pagecheckerboard="0"
   showgrid="false"
   units="mm"
   inkscape:zoom="5.6568543"
   inkscape:cx="70.445513"
   inkscape:cy="45.343222"
   inkscape:window-width="2494"
   inkscape:window-height="1371"
   inkscape:window-x="66"
   inkscape:window-y="32"
   inkscape:window-maximized="1"
   inkscape:current-layer="Layer_1"
   inkscape:document-units="mm"
   inkscape:showpageshadow="2"
   inkscape:deskcolor="#d1d1d1" />
<style
   type="text/css"
   id="style2">
	.st0{fill:#5A604C;}
</style>

<path
   id="rect1296-5"
   style="fill:#396a48;fill-opacity:1;stroke-width:0.994279"
   d="m 5.2550127,4.3464151 c -2.91081,0 -5.254990030198,2.3441767 -5.254990030198,5.2549881 V 47.09151 c 0,2.910812 2.344180030198,5.254988 5.254990030198,5.254988 H 111.91034 c 2.91081,0 5.25499,-2.344176 5.25499,-5.254988 V 9.6014032 c 0,-2.9108114 -2.34418,-5.2549881 -5.25499,-5.2549881 z M 60.595483,8.1608539 c 0.57338,3.456e-4 1.16405,0.00743 1.77053,0.022626 0,0 12.51653,0.2016618 20.74466,7.3743311 h 29.827287 v 3.965281 H 79.756303 c -5.00767,-9.182561 -14.81654,-9.322089 -14.81654,-9.322089 -5.07784,-0.278025 -5.28516,2.573756 -5.28516,2.573756 -0.5657,2.834315 6.60692,4.104812 6.60692,4.104812 4.72582,1.0386 6.62483,2.877259 7.38188,4.306564 h 6.27694 V 41.11059 h 2.04581 v 1.994898 h -9.80856 V 41.11059 h 1.88931 V 23.769319 c -1.06062,5.254807 -11.33208,5.841389 -11.33208,5.841389 -3.96506,0.6262 -3.82575,3.26952 -3.82575,3.26952 h -2.05146 v -5.009869 h 4.13875 c 8.34656,-0.139011 7.92868,-4.104811 7.92868,-4.104811 0,-3.156747 -4.52151,-3.965282 -4.52151,-3.965282 -7.44296,-1.321906 -8.34727,-4.381985 -8.34727,-4.381985 -1.66944,-4.034586 3.26951,-5.5661016 3.26951,-5.5661016 -14.17285,0.3919386 -14.051,5.3568066 -14.051,5.3568066 0.029,3.230116 5.91304,4.035047 5.91304,4.035047 7.10959,0.926108 6.95574,4.800574 6.95574,4.800574 0,3.965724 -5.84328,4.730809 -5.84328,4.730809 -2.43399,0.417681 -6.29014,0.778726 -6.29014,0.778726 -2.25382,0.20852 -3.85018,0.830631 -4.63276,3.365681 h -2.10615 v -4.945759 h 4.54226 c 0,0 8.34882,0.03568 8.76585,-3.233695 0,0 0.83468,-2.644352 -5.28704,-3.548578 0,0 -4.06692,-0.487089 -5.20219,-1.668699 H 4.4216027 v 1.691325 H 14.969293 c 2.47171,0 4.34705,0.432539 5.62456,1.297249 1.28674,0.854416 1.9289,2.152032 1.9289,3.891746 0,1.533834 -0.39742,2.770192 -1.19355,3.706963 -0.78686,0.926475 -1.99078,1.650906 -3.6108,2.175908 0.62949,0.905886 1.36161,1.956603 2.19477,3.15073 0.8424,1.194123 1.71556,2.414231 2.62277,3.659826 0.28698,0.40147 0.38074,0.635664 0.83908,1.063441 0.3817,0.363194 0.56364,0.536957 0.88053,0.661824 0.21292,0.07206 0.44154,0.14462 0.76553,0.196095 0.33326,0.05146 0.57011,0.08209 0.70897,0.09239 l -0.0377,2.015638 h -6.71063 c -1.30527,-2.22354 -2.39179,-3.993904 -3.26197,-5.311554 -0.86093,-1.317655 -1.93564,-2.841119 -3.22238,-4.570538 h -0.76365 v 5.204078 c 0,0.370585 0.0607,0.683527 0.18101,0.940882 0.12961,0.257355 0.3704,0.473623 0.72217,0.648625 0.17588,0.08236 0.44992,0.169441 0.82021,0.26209 0.37955,0.08235 0.70069,0.138815 0.96915,0.169698 v 2.656719 H 4.4216127 v 1.438664 H 112.93797 v 3.965282 H 3.9162927 v -3.965282 h 0.50343 v -1.438664 h -0.50343 v -2.656719 c 0.128,-0.01473 0.3374,-0.03928 0.50343,-0.05845 V 23.978613 c -0.17081,-0.03683 -0.38009,-0.08553 -0.50343,-0.107475 l -0.002,-2.656721 h 0.50533 v -1.691325 h -0.50343 v -3.965281 h 0.50343 v -4.972158 c 0,-0.0065 0.002,-0.0124 0.002,-0.01886 v 4.991013 H 40.618253 c 0.0302,-0.158321 0.0668,-0.321024 0.11314,-0.488354 0,0 2.0896,-6.9190416 19.86411,-6.9086028 z M 110.62629,20.331987 a 1.9558493,1.9558493 0 0 1 1.43112,0.590173 c 0.39323,0.392581 0.59206,0.866242 0.59206,1.423579 a 1.960998,1.960998 0 0 1 -0.59206,1.434893 c -0.39516,0.396445 -0.87185,0.593944 -1.43112,0.593944 -0.55926,0 -1.03602,-0.197499 -1.42923,-0.593944 -0.38938,-0.393869 -0.58452,-0.87369 -0.58452,-1.434893 a 1.942334,1.942334 0 0 1 0.59206,-1.423579 c 0.39194,-0.392584 0.86629,-0.590173 1.42169,-0.590173 z m 0,0.273403 a 1.6668804,1.6668804 0 0 0 -1.22748,0.51098 c -0.33659,0.339165 -0.50532,0.748617 -0.50532,1.229369 a 1.7022774,1.7022774 0 0 0 0.50343,1.238798 1.6643061,1.6643061 0 0 0 1.22937,0.512865 1.6668804,1.6668804 0 0 0 1.22937,-0.512865 1.6990596,1.6990596 0 0 0 0.50533,-1.238798 c 0,-0.480108 -0.16874,-0.890204 -0.50533,-1.229369 -0.33916,-0.341099 -0.74796,-0.51098 -1.22937,-0.51098 z m -79.284887,0.586401 c 1.73058,0 3.08473,1.128415 3.08473,2.5681 0,1.439681 -1.35415,2.566214 -3.08473,2.566214 -1.73058,0 -3.08473,-1.126533 -3.08473,-2.566214 5.6e-4,-1.439685 1.35415,-2.5681 3.08473,-2.5681 z m 78.470337,0.04148 h 0.77684 c 0.27481,0 0.47718,0.02578 0.60526,0.07919 0.22976,0.09525 0.34505,0.283219 0.34505,0.561889 0,0.198224 -0.0739,0.344129 -0.21872,0.437444 -0.0766,0.04955 -0.18346,0.08495 -0.32054,0.107476 0.17377,0.02703 0.29978,0.09971 0.38088,0.216837 0.0811,0.117131 0.12067,0.231828 0.12067,0.343167 v 0.162156 a 2.5279947,2.5279947 0 0 0 0.007,0.165927 0.37134748,0.37134748 0 0 0 0.0189,0.115018 l 0.0132,0.02828 h -0.36579 a 0.15252921,0.15252921 0 0 1 -0.004,-0.02263 l -0.007,-0.02451 -0.008,-0.07165 v -0.175356 c 0,-0.25679 -0.0696,-0.426717 -0.2093,-0.509094 -0.0818,-0.04762 -0.22832,-0.07165 -0.43556,-0.07165 h -0.30922 v 0.874888 h -0.38842 z m 0.39031,0.26586 v 0.803239 h 0.35259 c 0.16604,0 0.28843,-0.0162 0.37145,-0.04902 0.15191,-0.0605 0.22871,-0.176388 0.22815,-0.346939 0,-0.161537 -0.048,-0.269603 -0.14707,-0.324312 -0.0978,-0.05535 -0.25514,-0.08296 -0.47138,-0.08296 z m -98.468337,1.121895 v 9.171246 h 1.0559 c 1.36082,0 2.41599,-0.395239 3.16582,-1.187888 0.74984,-0.792653 1.12566,-2.05006 1.12566,-3.769186 0,-1.461772 -0.37188,-2.526863 -1.11246,-3.195983 -0.73133,-0.679414 -1.77673,-1.018189 -3.13754,-1.018189 z m -7.3121103,1.357585 v 16.432444 c 0.18174,-0.021 0.3237,-0.03727 0.55059,-0.06411 0.44434,-0.06177 0.75951,-0.134479 0.94464,-0.216837 0.35179,-0.164708 0.58487,-0.369509 0.7052,-0.616571 0.12038,-0.25735 0.18101,-0.581758 0.18101,-0.972935 V 25.986709 c 0,-0.370591 -0.0509,-0.678738 -0.15273,-0.925799 -0.10185,-0.247061 -0.34466,-0.463328 -0.73348,-0.648624 -0.29623,-0.133823 -0.64858,-0.246747 -1.0559,-0.339396 -0.18516,-0.0431 -0.29009,-0.06208 -0.43933,-0.09428 z m 105.9162073,3.30723 c 1.69067,0 2.91182,1.190431 2.91126,2.692544 0,1.47058 -0.9461,2.30795 -2.25321,2.439884 -1.28846,0.130647 -2.4167,-0.453366 -2.52096,-1.491459 -0.0116,-0.111339 -1.37604,0.612441 -1.63476,3.231808 v 6.950085 h 2.0458 v 1.994896 h -9.184441 v -1.994896 h 1.889311 V 29.816232 h -1.825202 v -2.091059 h 6.729472 v 2.437998 c 0.71309,-1.370179 1.88431,-2.877329 3.84273,-2.877328 z M 90.828168,27.44234 c 3.818987,0 6.759645,3.131661 6.759645,8.107804 h -9.431449 c 0,3.005512 0.104101,5.187307 3.442988,5.447313 2.003454,0.157033 3.621081,-1.044402 4.685557,-2.609582 l 1.208628,1.148291 c -1.251768,2.316883 -3.035595,3.944541 -6.665369,3.944541 -5.322385,0 -8.202085,-4.76868 -8.202085,-8.305785 0,-3.537105 2.88034,-7.732582 8.202085,-7.732582 z m -63.685855,0.282831 h 7.07453 v 13.385417 h 2.04392 v 1.993011 h -9.18067 v -1.993011 h 1.88931 V 29.816232 h -1.82709 z m 63.495416,1.367013 c -1.439038,0 -2.231651,1.104869 -2.481365,4.704411 h 4.423467 c 0,-3.704444 -0.4387,-4.704411 -1.942102,-4.704411 z M 46.580293,30.01044 h 6.70686 l -7.81932,10.711729 c 0.85339,0 1.36464,0.06565 2.08352,0 2.18239,-0.198222 2.68127,-0.94342 3.45807,-3.439217 h 2.38521 v 5.822534 h -14.71473 v -1.994898 z m 17.11313,0 h 6.70497 l -7.81744,10.711729 c 0.85339,0 1.36464,0.06565 2.08353,0 2.18238,-0.198222 2.68063,-0.943418 3.45807,-3.439217 h 2.3852 v 5.822534 h -14.71473 v -1.994898 z" /><path
   style="fill:#ff0000;fill-opacity:0.528603;stroke:none;stroke-width:0.994279;stroke-dasharray:none;stroke-opacity:1"
   d="M 58.581677,9.5825481 V 47.110365 c 3e-5,-0.0065 0.002,-0.0124 0.002,-0.01885 V 9.6014034 c 0,-0.00646 -0.002,-0.012399 -0.002,-0.018855 z"
   id="path1397" /></svg>
